<svg id="firmengruendung" xmlns="http://www.w3.org/2000/svg" width="96.399" height="94.298" viewBox="0 0 96.399 94.298">
  <path id="Pfad_1" data-name="Pfad 1" d="M59.13,70.023h7.5v22.12l-7.5.009Zm9.64,0h7.493v22.12l-7.493.009ZM54,52.031h9.679V61.9L54,61.9Zm17.709,0h9.682V61.9l-9.682.005ZM54,34.227h9.678v9.866H54Zm17.709,0h9.682v9.866H71.712ZM54,16.423h9.678v9.866H54Zm17.709,0h9.682v9.866H71.712ZM41.117,0V10.43h3.528V94.291H90.752V10.43h3.524V0Z" transform="translate(2.122)" fill="#8a8997"/>
  <path id="Pfad_2" data-name="Pfad 2" d="M10.738,53.588H40.861v12.3H10.738ZM0,41.343v10.8l3.6-.67v41.12l41.026,0V33.008Z" transform="translate(0 1.704)" fill="#8a8997"/>
</svg>
