<svg id="orientierung" xmlns="http://www.w3.org/2000/svg" xmlns:xlink="http://www.w3.org/1999/xlink" width="94.536" height="94.535" viewBox="0 0 94.536 94.535">
  <defs>
    <clipPath id="clip-path">
      <rect id="Rechteck_50" data-name="Rechteck 50" width="94.535" height="94.535" fill="#8a8997"/>
    </clipPath>
  </defs>
  <g id="Gruppe_32" data-name="Gruppe 32" transform="translate(0 0)" clip-path="url(#clip-path)">
    <path id="Pfad_26" data-name="Pfad 26" d="M47.268,94.535A47.268,47.268,0,1,1,94.535,47.268,47.268,47.268,0,0,1,47.268,94.535m2.115-50.93a4.227,4.227,0,1,1-5.777,1.548,4.227,4.227,0,0,1,5.777-1.548ZM63.341,25.454,58.451,51.9a4.643,4.643,0,0,1-1.584,2.744L36.41,72.1c-2.581,2.21-5.832.328-5.214-3.01l4.89-26.443A4.643,4.643,0,0,1,37.67,39.9L58.126,22.444c2.582-2.21,5.833-.328,5.214,3.01M49.93,85.389A38.221,38.221,0,0,0,85.393,49.926H78.665V44.612h6.728A38.218,38.218,0,0,0,49.93,9.149v6.727H44.616V9.149A38.221,38.221,0,0,0,9.153,44.612h6.728v5.314H9.153A38.218,38.218,0,0,0,44.616,85.389V78.661H49.93Zm-2.657,4.257A42.378,42.378,0,1,0,4.9,47.268,42.375,42.375,0,0,0,47.273,89.645" transform="translate(0 0)" fill="#8a8997"/>
  </g>
</svg>
