<svg id="menschen_3_familie" xmlns="http://www.w3.org/2000/svg" xmlns:xlink="http://www.w3.org/1999/xlink" width="106.411" height="93.16" viewBox="0 0 106.411 93.16">
  <defs>
    <clipPath id="clip-path">
      <rect id="Rechteck_49" data-name="Rechteck 49" width="106.411" height="93.16" fill="#8a8997"/>
    </clipPath>
  </defs>
  <g id="Gruppe_30" data-name="Gruppe 30" transform="translate(0 0)" clip-path="url(#clip-path)">
    <path id="Pfad_23" data-name="Pfad 23" d="M78.706,46.838H73.851a6.959,6.959,0,0,1-6.933-6.452c.557-.157,1.073-.3,1.538-.415a2.37,2.37,0,0,0,1.779-2.294V35.865a11.527,11.527,0,0,0,5.994,1.721h.382A10.9,10.9,0,0,0,81.9,35.972v1.7a2.4,2.4,0,0,0,1.779,2.3c.582.15,1.239.325,1.954.524A6.968,6.968,0,0,1,78.706,46.838ZM65.019,25.447a.845.845,0,0,0-.99-.641,1.006,1.006,0,0,0-.332.167c-.009.009-.017.009-.026.016a.66.66,0,0,1-.341.167c-.582.125-2.012-1.513-2.5-3.625h0a3.117,3.117,0,0,1,.15-2.311,1.222,1.222,0,0,1,.815-.548.594.594,0,0,1,.273,0c.159,1.662.392,2.809.416,2.942a.827.827,0,0,0,.811.665h.033l1.613-.057a.829.829,0,0,0,.806-.807A18.85,18.85,0,0,1,67.1,15.064c1.363-2.785,5.7-2.776,6.984-2.7a14.872,14.872,0,0,1,3.208.7c1.929.574,3.75,1.114,5.03.109a3.926,3.926,0,0,0,.989-1.214c.192.209.392.425.591.632a6.837,6.837,0,0,1,1.588,2.07,49.9,49.9,0,0,1,.865,6.609.835.835,0,0,0,.831.774h.024l1.53-.05a.831.831,0,0,0,.79-.707c.042-.283.166-1.09.3-2.187a.768.768,0,0,1,.441-.066,1.1,1.1,0,0,1,.732.482,2.788,2.788,0,0,1,.125,2.045c-.474,2-1.771,3.35-2.236,3.242a.777.777,0,0,1-.366-.225c-.026-.034-.042-.034-.067-.05a.822.822,0,0,0-1.363.456c-1.247,6.369-5.478,10.766-10.541,10.94a10.088,10.088,0,0,1-6.559-2.244s0-.009-.008-.009A14.178,14.178,0,0,1,65.019,25.447Zm34.06,19.32c-2.427-2.436-8.064-4.431-12.362-5.678-.973-.29-1.871-.524-2.619-.715a.733.733,0,0,1-.541-.7V34.758A16.207,16.207,0,0,0,88.47,26.4c.026,0,.043.017.067.017a2.078,2.078,0,0,0,.391.042c1.8,0,3.342-2.527,3.816-4.531a4.222,4.222,0,0,0-.341-3.308A2.781,2.781,0,0,0,90.616,17.4a2.27,2.27,0,0,0-.607-.033c.341-3.79.491-9.169-1.147-11.19A4.024,4.024,0,0,0,85.819,4.5a3.551,3.551,0,0,0-1.779.449c-.79-2.012-3.649-2.959-4.123-3.1C77.464.8,68.169.923,64.038,6.891,62.092,9.7,61.81,13.824,61.951,17a2.25,2.25,0,0,0-.5.042,2.933,2.933,0,0,0-1.879,1.289,4.675,4.675,0,0,0-.358,3.574c.5,2.17,2.154,4.921,4.04,4.921a1.994,1.994,0,0,0,.391-.042,15.822,15.822,0,0,0,4.921,7.873v3.017a.7.7,0,0,1-.541.682c-.64.175-1.379.375-2.186.6h-.009q-3.055.872-5.478,1.8c-.682.258-1.33.515-1.938.781a16.63,16.63,0,0,1,7.64,13.759v.242c0,6.01-2.02,11.664-5.462,15.364a29.327,29.327,0,0,1,8.571,5.478H101.83a.836.836,0,0,0,.831-.831V63.372a.822.822,0,0,0-.024-.2C102.7,61.235,102.96,48.65,99.079,44.767Z" transform="translate(3.745 0.086)" fill="#8a8997"/>
    <path id="Pfad_24" data-name="Pfad 24" d="M51.55,75.292a6.574,6.574,0,0,1-6.5-5.711,14.627,14.627,0,0,0,6.463,1.871c.279.016.549.024.815.024a12.175,12.175,0,0,0,5.653-1.363A6.578,6.578,0,0,1,51.55,75.292Zm-12.9-18.784c7.482-.424,12.15-4.98,14.889-9.232,1.55,2.1,5.454,6.447,11.282,6.7-.179,5.221-2.07,10-5.142,12.885h0A10.455,10.455,0,0,1,51.6,69.788a12.652,12.652,0,0,1-6.85-2.336.879.879,0,0,0-.113-.092C40.9,64.576,39.321,59.966,38.652,56.508ZM59.76,69.223c0-.083.009-.175.013-.262a12.052,12.052,0,0,0,1.051-.885c3.558-3.351,5.682-8.925,5.682-14.91v0a14.952,14.952,0,1,0-29.654,2.71c0,.007.009.016.009.024.894,5.6,3.147,9.851,6.46,12.495v.32c0,.175.016.341.024.507v0a27.65,27.65,0,0,0-15.8,12.794,16.008,16.008,0,0,0-2,7.865.83.83,0,0,0,.831.831H76.718a.83.83,0,0,0,.832-.831,16.1,16.1,0,0,0-2-7.865,27.721,27.721,0,0,0-15.8-12.794Z" transform="translate(1.638 2.449)" fill="#8a8997"/>
    <path id="Pfad_25" data-name="Pfad 25" d="M31.744,32.757h0a9.792,9.792,0,0,1-6.011,2.137c-6.3,0-11.431-6.376-11.431-14.215,0-.391.009-.782.026-1.173C21,16.746,24.275,10.57,25.647,7.069c1.388,3.533,4.705,9.777,11.489,12.5.016.349.024.715.024,1.106,0,4.954-2.02,9.469-5.412,12.08Zm-.32,4.389a6.748,6.748,0,0,1-.059.868c0,.009-.009.017-.009.03a5.692,5.692,0,0,1-11.239.016,6.73,6.73,0,0,1-.074-.914v-2.2a11.092,11.092,0,0,0,5.694,1.609,11.253,11.253,0,0,0,5.691-1.592Zm10.99,33.685c-2.785-2.868-4.688-6.95-5.528-12.063l-.034-.15a16.22,16.22,0,0,1-.273-3A16.615,16.615,0,0,1,43.262,42.3c-.4-.249-.831-.5-1.28-.748A66.023,66.023,0,0,0,33.07,37.6c.009-.157.016-.316.016-.458V35.837A69.313,69.313,0,0,1,42.414,39.9V16.562a16.681,16.681,0,0,0-33.361,0V39.906c1.555-.831,3.3-1.654,5.188-2.444,1.828-.757,3.466-1.35,4.139-1.588v1.272c0,.167.009.333.021.491-.857.312-2.124.786-3.517,1.368l0,0a54.443,54.443,0,0,0-5.387,2.56,20.958,20.958,0,0,0-5.712,4.223C.906,49.125.142,57.232,0,63.458V75.629a.816.816,0,0,0,.245.585.817.817,0,0,0,.586.246h32.63A29.334,29.334,0,0,1,42.414,70.832Z" transform="translate(0 0)" fill="#8a8997"/>
  </g>
</svg>
