<svg id="menschen_2" xmlns="http://www.w3.org/2000/svg" xmlns:xlink="http://www.w3.org/1999/xlink" width="104.748" height="94.402" viewBox="0 0 104.748 94.402">
  <defs>
    <clipPath id="clip-path">
      <rect id="Rechteck_48" data-name="Rechteck 48" width="104.748" height="94.402" fill="#8a8997"/>
    </clipPath>
  </defs>
  <g id="Gruppe_29" data-name="Gruppe 29" transform="translate(0 0)" clip-path="url(#clip-path)">
    <path id="Pfad_21" data-name="Pfad 21" d="M59.161,37.889a10.851,10.851,0,0,0,14.032,0A13.4,13.4,0,0,0,76.611,39.3a12.285,12.285,0,0,1-20.862,0,13.451,13.451,0,0,0,3.412-1.407M66.181,9.73c4.978,1.788,9.539.376,10.556,1.507s1.443,3.512,1.652,6.068a29.275,29.275,0,0,1-3.807,14.268c-2.342,3.8-5.342,5.859-8.4,5.859s-6.068-2.056-8.409-5.859A29.3,29.3,0,0,1,53.964,17.3c.554-3.894,5.768-7.579,12.217-7.579Zm0-9.725C54.482,0,47.593,9.97,47.67,22.26a26.436,26.436,0,0,0,1.674,9.263c.323.843,1.444.853,2.564.617-.022,2.764-2.3,5.3-5.958,6.657a16.021,16.021,0,0,0,5.7,1.021,8.665,8.665,0,0,0,.9-.067c-6.449,2.6-10.333,4.978-12.825,7.564a2.6,2.6,0,0,1,.976,1.049,14.05,14.05,0,0,0,1.793,3,4.08,4.08,0,0,0,2.152,1.143c3.176.99,12.108,2.828,15.484,12.035,1.838,5.011,2.519,10.534,2.99,16.355,1.03.023,1.983.078,3.062.078,20.122,0,31.713-4.161,31.713-4.161a.625.625,0,0,0,.428-.631c0-9.344-.45-16.655-1.9-22.064-1.552-5.787-5.033-9.7-16.605-14.372.3.017.59.067.9.067a16.04,16.04,0,0,0,5.7-1.021c-3.663-1.352-5.941-3.893-5.963-6.657,1.116.231,2.238.227,2.564-.617a26.489,26.489,0,0,0,1.674-9.263C84.76,9.961,78.021,0,66.185,0Z" transform="translate(6.426 0)" fill="#8a8997"/>
    <path id="Pfad_22" data-name="Pfad 22" d="M23.373,48.27a.636.636,0,0,1,.44.172S28.206,52.5,33.888,52.5s10.075-4.058,10.075-4.058a.634.634,0,0,1,1,.182A15.044,15.044,0,0,0,47.153,52.2a6.753,6.753,0,0,0,3.2,1.8c3.54,1.1,10.973,2.5,13.932,10.559C66.794,71.4,67.1,79.655,67.77,88.668a.635.635,0,0,1-.436.645S54.5,93.575,33.883,93.575.437,89.313.437,89.313A.636.636,0,0,1,0,88.668c.672-9.012.976-17.263,3.485-24.107C6.441,56.5,13.879,55.1,17.419,54a6.777,6.777,0,0,0,3.2-1.8,15.183,15.183,0,0,0,2.191-3.576A.637.637,0,0,1,23.373,48.27Zm.191-29.276a1.762,1.762,0,0,0-.54,1.3l.05,3.726a1.6,1.6,0,0,1-.458,1.143,6.577,6.577,0,0,0-1.566,4.421c0,2.442,1.188,4.457,2.355,5.019a1.61,1.61,0,0,1,.821.926c2,5.977,5.8,9.322,9.539,9.331s7.547-3.349,9.549-9.336a1.609,1.609,0,0,1,.812-.926c1.162-.562,2.342-2.572,2.347-5A6.587,6.587,0,0,0,44.9,25.153a1.6,1.6,0,0,1-.467-1.166l.113-3.685a1.887,1.887,0,0,0-.539-1.343c-2.078-2.078-8.4-2.1-10.225-2.106C31.564,16.852,25.637,16.925,23.563,18.994ZM33.879,5.117c4.057,0,7.683,1,10.265,3.712,3.059.473,5.133,3.635,5.514,6.863A41.392,41.392,0,0,1,49.3,26.964a11.333,11.333,0,0,1,.35,2.622,8.644,8.644,0,0,1-3.476,7.2c-2.314,6.64-6.925,11.249-12.408,11.249s-10.106-4.61-12.417-11.259a8.611,8.611,0,0,1-3.476-7.184,10.967,10.967,0,0,1,.336-2.572,14.18,14.18,0,0,1-.223-2.256V18.609c0-6.457,6.336-13.492,14.2-13.492Z" transform="translate(0 0.828)" fill="#8a8997"/>
  </g>
</svg>
