<svg width="96" height="39" viewBox="0 0 96 39" fill="none" xmlns="http://www.w3.org/2000/svg">
    <g clip-path="url(#clip0_556_875)">
        <path
            d="M27.1797 3.49989C26.0041 4.02643 25.0163 4.90727 24.3501 6.02307C23.3977 7.59294 22.9141 9.64137 22.9141 12.1127C22.9141 14.1661 23.2294 15.9107 23.8515 17.3185C24.8101 19.4581 26.4505 20.771 28.7217 21.223C29.3637 21.3496 30.2911 21.4141 31.4816 21.4141H38.001V17.5236H32.2332C30.8346 17.5236 29.8012 17.2552 29.163 16.7298C28.2455 15.9702 27.7806 14.294 27.7806 11.7569C27.7806 9.85786 28.0773 8.55132 28.6631 7.86387C29.3737 7.0321 30.5267 6.61051 32.0911 6.61051H38.001V2.71875H31.6611C29.8436 2.71875 28.334 2.98208 27.1735 3.49989"
            fill="#02024D" />
        <path
            d="M57.2317 7.37423C56.571 5.56888 55.3918 4.26614 53.7314 3.50019C52.3514 2.86718 50.7397 2.54688 48.9209 2.54688C46.1187 2.5646 43.951 3.22167 42.475 4.50288C40.7299 6.02211 39.8398 8.57695 39.8398 12.099C39.8398 14.0677 40.1814 15.7705 40.8533 17.1631C41.5376 18.576 42.5424 19.6293 43.845 20.294C45.3645 21.0713 47.1658 21.4651 49.1977 21.4651C50.7646 21.4651 52.1719 21.2119 53.3836 20.7295C55.0328 20.0649 56.2681 18.871 57.0584 17.1771C57.6892 15.792 58.0095 14.1386 58.0095 12.2725C58.0095 10.4064 57.7502 8.76559 57.2367 7.38182M53.1442 12.0167C53.1442 14.0006 52.7952 15.473 52.1109 16.3934C51.4265 17.3138 50.4056 17.7227 48.9596 17.7227C47.4637 17.7227 46.4091 17.2897 45.7422 16.3997C45.0529 15.4755 44.7039 13.9841 44.7039 11.9686C44.7039 10.0633 44.9794 8.67697 45.5229 7.84266C46.2085 6.78806 47.3279 6.27532 48.9459 6.27532C50.5639 6.27532 51.6633 6.80958 52.2978 7.88443C52.855 8.81623 53.1393 10.2025 53.1393 12.0091"
            fill="#02024D" />
        <path d="M68.1081 10.2637H60.5977V13.7402H68.1081V10.2637Z" fill="#02024D" />
        <path
            d="M12.368 27.3273C11.3565 27.2197 10.3787 26.8971 9.49815 26.3803C8.6176 25.8636 7.85403 25.1644 7.25711 24.3281L2.03906 27.3856C3.17418 29.1454 4.70004 30.6101 6.49396 31.6621C8.28788 32.714 10.2998 33.3237 12.368 33.4422V27.3273Z"
            fill="#02024D" />
        <path
            d="M7.25445 15.6792C7.85114 14.8428 8.61466 14.1434 9.49526 13.6266C10.3759 13.1099 11.3538 12.7873 12.3653 12.68V6.56641C10.2971 6.68509 8.28523 7.29474 6.49117 8.3464C4.6971 9.39806 3.1709 10.8624 2.03516 12.6218L7.25445 15.6792Z"
            fill="#02024D" />
        <path d="M75.7944 -0.0332031H70.8281V21.4132H75.7944V-0.0332031Z" fill="#FFC138" />
        <path d="M78.332 -0.00195312V3.98856H84.3317V21.4141H89.2368V3.98856H95.9682V-0.00195312H78.332Z"
            fill="#FFC138" />
        <path
            d="M6.00335 20.0027C6.00105 18.9695 6.21343 17.9475 6.62662 17.0034L1.41481 13.9473C0.48451 15.8267 0 17.901 0 20.0046C0 22.1081 0.48451 24.1825 1.41481 26.0619L6.63161 23.0044C6.21842 22.0603 6.00603 21.0383 6.00833 20.0052"
            fill="#FFC138" />
        <path
            d="M19.1187 24.3281C18.5221 25.1648 17.7586 25.8645 16.878 26.3814C15.9974 26.8984 15.0194 27.2212 14.0078 27.3286V33.4422C16.0758 33.3237 18.0876 32.714 19.8815 31.6624C21.6753 30.6107 23.2013 29.1463 24.3367 27.3868L19.1187 24.3281Z"
            fill="#FFC138" />
        <path
            d="M18.9492 20.0031C18.9492 21.1479 18.615 22.267 17.9887 23.2189C17.3625 24.1708 16.4724 24.9127 15.431 25.3508C14.3896 25.7889 13.2437 25.9035 12.1381 25.6802C11.0326 25.4568 10.0171 24.9055 9.22004 24.096C8.423 23.2865 7.8802 22.2552 7.66029 21.1323C7.44039 20.0095 7.55325 18.8457 7.98461 17.788C8.41597 16.7304 9.14645 15.8264 10.0837 15.1903C11.0209 14.5543 12.1228 14.2148 13.25 14.2148C14.7615 14.2148 16.2111 14.8247 17.2799 15.9102C18.3488 16.9957 18.9492 18.468 18.9492 20.0031Z"
            fill="#FFC138" />
        <path d="M36.0703 34.5141V29.3847H37.2347V34.5141H36.0703Z" fill="#02024D" />
        <path
            d="M38.3577 34.5141V30.612H39.3082L39.3875 31.1076H39.4191C39.5881 30.9503 39.7729 30.8139 39.9736 30.6985C40.1795 30.5779 40.4145 30.5176 40.6786 30.5176C41.1063 30.5176 41.4152 30.6592 41.6053 30.9424C41.8007 31.2204 41.8984 31.6032 41.8984 32.091V34.5141H40.734V32.2405C40.734 31.9573 40.6944 31.7632 40.6152 31.6583C40.5413 31.5534 40.4198 31.501 40.2508 31.501C40.103 31.501 39.9762 31.5351 39.8706 31.6032C39.765 31.6662 39.6488 31.758 39.5221 31.8786V34.5141H38.3577Z"
            fill="#02024D" />
        <path
            d="M44.0471 34.6085C43.7883 34.6085 43.5216 34.5586 43.247 34.459C42.9777 34.3593 42.7427 34.2282 42.5421 34.0656L43.0649 33.3419C43.2444 33.473 43.416 33.5752 43.5797 33.6487C43.7487 33.7169 43.915 33.7509 44.0787 33.7509C44.253 33.7509 44.3797 33.7221 44.459 33.6644C44.5382 33.6015 44.5778 33.5202 44.5778 33.4205C44.5778 33.3314 44.5382 33.2579 44.459 33.2003C44.385 33.1426 44.2873 33.0901 44.1659 33.0429C44.0444 32.9905 43.915 32.938 43.7778 32.8856C43.6193 32.8226 43.4609 32.744 43.3025 32.6496C43.1494 32.5552 43.02 32.4345 42.9144 32.2877C42.8088 32.1356 42.756 31.952 42.756 31.737C42.756 31.3751 42.8932 31.0814 43.1678 30.8559C43.4477 30.6303 43.8121 30.5176 44.2609 30.5176C44.5619 30.5176 44.826 30.57 45.053 30.6749C45.2854 30.7746 45.4834 30.8873 45.6471 31.0132L45.1243 31.7055C44.987 31.6006 44.8497 31.5193 44.7124 31.4616C44.5751 31.4039 44.4378 31.3751 44.3005 31.3751C43.9995 31.3751 43.849 31.4774 43.849 31.6819C43.849 31.8078 43.923 31.9048 44.0708 31.973C44.224 32.0359 44.4009 32.1041 44.6015 32.1775C44.7705 32.2352 44.9342 32.3113 45.0926 32.4057C45.2563 32.4948 45.391 32.6155 45.4966 32.7676C45.6075 32.9144 45.6629 33.1085 45.6629 33.3497C45.6629 33.7011 45.5256 34.0001 45.251 34.2466C44.9765 34.4878 44.5751 34.6085 44.0471 34.6085Z"
            fill="#02024D" />
        <path
            d="M46.4024 35.9616V30.612H47.3529L47.4321 30.9975H47.4638C47.617 30.8611 47.7886 30.7484 47.9787 30.6592C48.1741 30.5648 48.3747 30.5176 48.5807 30.5176C49.0559 30.5176 49.4309 30.6985 49.7055 31.0604C49.98 31.4171 50.1173 31.8969 50.1173 32.5001C50.1173 32.9459 50.0381 33.3261 49.8797 33.6408C49.7213 33.9555 49.5154 34.1967 49.2619 34.3646C49.0137 34.5272 48.747 34.6085 48.4619 34.6085C48.2929 34.6085 48.1292 34.5744 47.9708 34.5062C47.8124 34.4328 47.6645 34.3305 47.5272 34.1994L47.5668 34.8209V35.9616H46.4024ZM48.1926 33.6644C48.3932 33.6644 48.5648 33.5726 48.7074 33.3891C48.85 33.2055 48.9213 32.9144 48.9213 32.5158C48.9213 31.813 48.6942 31.4616 48.2401 31.4616C48.013 31.4616 47.7886 31.5796 47.5668 31.8157V33.4127C47.6724 33.5071 47.778 33.5726 47.8836 33.6093C47.9893 33.6461 48.0922 33.6644 48.1926 33.6644Z"
            fill="#02024D" />
        <path
            d="M50.943 34.5141V30.612H52.1074V34.5141H50.943ZM51.5213 30.0377C51.3259 30.0377 51.1675 29.9826 51.046 29.8725C50.9246 29.7624 50.8638 29.6155 50.8638 29.4319C50.8638 29.2484 50.9246 29.1015 51.046 28.9914C51.1675 28.8812 51.3259 28.8262 51.5213 28.8262C51.7167 28.8262 51.8751 28.8812 51.9965 28.9914C52.118 29.1015 52.1787 29.2484 52.1787 29.4319C52.1787 29.6155 52.118 29.7624 51.9965 29.8725C51.8751 29.9826 51.7167 30.0377 51.5213 30.0377Z"
            fill="#02024D" />
        <path
            d="M53.1321 34.5141V30.612H54.0826L54.1618 31.2964H54.1935C54.3361 31.0342 54.5077 30.8401 54.7084 30.7143C54.9091 30.5831 55.1097 30.5176 55.3104 30.5176C55.4213 30.5176 55.5137 30.5255 55.5876 30.5412C55.6615 30.5517 55.7249 30.57 55.7777 30.5963L55.5876 31.5954C55.519 31.5744 55.4503 31.5587 55.3817 31.5482C55.3183 31.5377 55.2444 31.5324 55.1599 31.5324C55.012 31.5324 54.8562 31.5875 54.6925 31.6976C54.5341 31.8025 54.4021 31.9861 54.2965 32.2483V34.5141H53.1321Z"
            fill="#02024D" />
        <path
            d="M57.9692 34.6085C57.5943 34.6085 57.2563 34.5272 56.9553 34.3646C56.6543 34.202 56.4167 33.9686 56.2425 33.6644C56.0682 33.3602 55.9811 32.9931 55.9811 32.563C55.9811 32.1382 56.0682 31.7737 56.2425 31.4695C56.422 31.1653 56.6543 30.9319 56.9395 30.7693C57.2246 30.6015 57.523 30.5176 57.8346 30.5176C58.2095 30.5176 58.5184 30.6015 58.7613 30.7693C59.0095 30.9319 59.1943 31.1548 59.3158 31.438C59.4425 31.716 59.5059 32.0333 59.5059 32.3899C59.5059 32.4896 59.5006 32.5892 59.49 32.6889C59.4795 32.7833 59.4689 32.8541 59.4584 32.9013H57.1058C57.1586 33.1845 57.2775 33.3943 57.4623 33.5307C57.6471 33.6618 57.8689 33.7273 58.1276 33.7273C58.4075 33.7273 58.69 33.6408 58.9752 33.4677L59.3633 34.1679C59.1626 34.3043 58.9382 34.4118 58.69 34.4904C58.4418 34.5691 58.2016 34.6085 57.9692 34.6085ZM57.0979 32.1382H58.5158C58.5158 31.9232 58.463 31.7475 58.3573 31.6111C58.257 31.4695 58.0907 31.3987 57.8583 31.3987C57.6788 31.3987 57.5177 31.4616 57.3751 31.5875C57.2326 31.7081 57.1402 31.8917 57.0979 32.1382Z"
            fill="#02024D" />
        <path
            d="M63.4091 34.6085C62.9233 34.6085 62.5748 34.4695 62.3635 34.1915C62.1576 33.9135 62.0546 33.549 62.0546 33.098V31.5167H61.516V30.6592L62.118 30.612L62.2526 29.5735H63.219V30.612H64.1616V31.5167H63.219V33.0822C63.219 33.3025 63.2639 33.4625 63.3537 33.5621C63.4487 33.6565 63.5728 33.7037 63.7259 33.7037C63.7893 33.7037 63.8527 33.6959 63.916 33.6801C63.9847 33.6644 64.0454 33.6461 64.0982 33.6251L64.2804 34.4668C64.1801 34.4983 64.056 34.5298 63.9081 34.5613C63.7655 34.5927 63.5992 34.6085 63.4091 34.6085Z"
            fill="#02024D" />
        <path
            d="M66.4764 34.6085C66.1437 34.6085 65.8295 34.5298 65.5338 34.3724C65.2433 34.2099 65.0083 33.9765 64.8288 33.6723C64.6493 33.3628 64.5595 32.9931 64.5595 32.563C64.5595 32.1277 64.6493 31.758 64.8288 31.4538C65.0083 31.1496 65.2433 30.9188 65.5338 30.7615C65.8295 30.5989 66.1437 30.5176 66.4764 30.5176C66.809 30.5176 67.1206 30.5989 67.411 30.7615C67.7015 30.9188 67.9365 31.1496 68.116 31.4538C68.2955 31.758 68.3853 32.1277 68.3853 32.563C68.3853 32.9931 68.2955 33.3628 68.116 33.6723C67.9365 33.9765 67.7015 34.2099 67.411 34.3724C67.1206 34.5298 66.809 34.6085 66.4764 34.6085ZM66.4764 33.6723C66.714 33.6723 66.8935 33.5726 67.015 33.3733C67.1364 33.1688 67.1972 32.8987 67.1972 32.563C67.1972 32.2221 67.1364 31.952 67.015 31.7527C66.8935 31.5534 66.714 31.4538 66.4764 31.4538C66.2335 31.4538 66.0513 31.5534 65.9298 31.7527C65.8136 31.952 65.7556 32.2221 65.7556 32.563C65.7556 32.8987 65.8136 33.1688 65.9298 33.3733C66.0513 33.5726 66.2335 33.6723 66.4764 33.6723Z"
            fill="#02024D" />
        <path
            d="M73.0181 34.6085C72.5851 34.6085 72.1864 34.5088 71.8221 34.3095C71.4577 34.1102 71.1646 33.8165 70.9428 33.4284C70.7263 33.035 70.6181 32.5525 70.6181 31.9809C70.6181 31.4144 70.729 30.9319 70.9508 30.5333C71.1778 30.1295 71.4762 29.8227 71.8458 29.6129C72.2207 29.3978 72.6247 29.2903 73.0577 29.2903C73.3904 29.2903 73.6888 29.3585 73.9528 29.4949C74.2168 29.626 74.436 29.7807 74.6102 29.959L73.9924 30.6985C73.8604 30.5779 73.7204 30.4809 73.5726 30.4074C73.43 30.3288 73.2663 30.2894 73.0815 30.2894C72.8491 30.2894 72.6353 30.355 72.4399 30.4861C72.2498 30.6172 72.0966 30.806 71.9805 31.0525C71.8696 31.299 71.8141 31.5954 71.8141 31.9415C71.8141 32.466 71.9277 32.8751 72.1547 33.1688C72.3818 33.4625 72.6854 33.6093 73.0656 33.6093C73.2769 33.6093 73.4643 33.5621 73.628 33.4677C73.797 33.3733 73.9449 33.2606 74.0716 33.1294L74.6894 33.8532C74.2564 34.3567 73.6993 34.6085 73.0181 34.6085Z"
            fill="#02024D" />
        <path
            d="M75.3788 34.5141V28.9992H76.5432V30.3524L76.4877 31.0525C76.6356 30.9214 76.8072 30.8008 77.0026 30.6907C77.2033 30.5753 77.4356 30.5176 77.6996 30.5176C78.1274 30.5176 78.4363 30.6592 78.6264 30.9424C78.8218 31.2204 78.9195 31.6032 78.9195 32.091V34.5141H77.7551V32.2405C77.7551 31.9573 77.7155 31.7632 77.6363 31.6583C77.5623 31.5534 77.4409 31.501 77.2719 31.501C77.1241 31.501 76.9973 31.5351 76.8917 31.6032C76.7861 31.6662 76.6699 31.758 76.5432 31.8786V34.5141H75.3788Z"
            fill="#02024D" />
        <path
            d="M80.8941 34.6085C80.535 34.6085 80.2498 34.4957 80.0386 34.2702C79.8274 34.0394 79.7218 33.7588 79.7218 33.4284C79.7218 33.0193 79.896 32.6994 80.2445 32.4686C80.5931 32.2379 81.1555 32.0831 81.9317 32.0045C81.9211 31.8314 81.8683 31.695 81.7733 31.5954C81.6835 31.4905 81.5304 31.438 81.3139 31.438C81.1502 31.438 80.9838 31.4695 80.8149 31.5324C80.6459 31.5954 80.4663 31.6819 80.2762 31.7921L79.8564 31.0289C80.1046 30.8769 80.3686 30.7536 80.6485 30.6592C80.9337 30.5648 81.2294 30.5176 81.5357 30.5176C82.0373 30.5176 82.4228 30.6618 82.6921 30.9503C82.9614 31.2387 83.0961 31.6819 83.0961 32.2798V34.5141H82.1456L82.0664 34.1128H82.0347C81.871 34.2597 81.6941 34.3803 81.504 34.4747C81.3192 34.5639 81.1158 34.6085 80.8941 34.6085ZM81.2901 33.7116C81.4221 33.7116 81.5357 33.6828 81.6307 33.6251C81.731 33.5621 81.8314 33.4808 81.9317 33.3812V32.6968C81.5198 32.7492 81.2347 32.8331 81.0762 32.9485C80.9178 33.0586 80.8386 33.1898 80.8386 33.3419C80.8386 33.4677 80.8782 33.5621 80.9574 33.6251C81.0419 33.6828 81.1528 33.7116 81.2901 33.7116Z"
            fill="#02024D" />
        <path
            d="M84.081 34.5141V30.612H85.0315L85.1107 31.1076H85.1424C85.3114 30.9503 85.4962 30.8139 85.6969 30.6985C85.9028 30.5779 86.1378 30.5176 86.4018 30.5176C86.8296 30.5176 87.1385 30.6592 87.3286 30.9424C87.524 31.2204 87.6217 31.6032 87.6217 32.091V34.5141H86.4573V32.2405C86.4573 31.9573 86.4177 31.7632 86.3385 31.6583C86.2645 31.5534 86.1431 31.501 85.9741 31.501C85.8262 31.501 85.6995 31.5351 85.5939 31.6032C85.4883 31.6662 85.3721 31.758 85.2454 31.8786V34.5141H84.081Z"
            fill="#02024D" />
        <path
            d="M90.0159 36.174C89.7096 36.174 89.4324 36.1399 89.1842 36.0717C88.936 36.0035 88.738 35.896 88.5901 35.7492C88.4423 35.6023 88.3683 35.4135 88.3683 35.1827C88.3683 34.8681 88.5558 34.6058 88.9307 34.396V34.3646C88.8304 34.2964 88.7433 34.2099 88.6693 34.105C88.6007 34.0001 88.5664 33.8663 88.5664 33.7037C88.5664 33.5621 88.6086 33.4258 88.6931 33.2947C88.7776 33.1635 88.8832 33.056 89.0099 32.9721V32.9406C88.8726 32.8462 88.7485 32.7099 88.6376 32.5316C88.532 32.3532 88.4792 32.1513 88.4792 31.9258C88.4792 31.6111 88.5558 31.3515 88.7089 31.147C88.8621 30.9372 89.0627 30.7798 89.3109 30.6749C89.5591 30.57 89.8231 30.5176 90.103 30.5176C90.3354 30.5176 90.5387 30.5491 90.7129 30.612H92.1466V31.4538H91.5209C91.5578 31.5115 91.5869 31.5849 91.608 31.674C91.6344 31.7632 91.6476 31.8602 91.6476 31.9651C91.6476 32.2641 91.5789 32.5106 91.4417 32.7046C91.3044 32.8987 91.1195 33.0429 90.8872 33.1373C90.6548 33.2317 90.3934 33.2789 90.103 33.2789C89.9499 33.2789 89.7915 33.2527 89.6278 33.2003C89.5327 33.2789 89.4852 33.376 89.4852 33.4913C89.4852 33.591 89.5301 33.6644 89.6198 33.7116C89.7096 33.7588 89.8627 33.7824 90.0793 33.7824H90.7129C91.1987 33.7824 91.5684 33.8611 91.8219 34.0184C92.0806 34.1705 92.21 34.4223 92.21 34.7737C92.21 35.0411 92.1202 35.2798 91.9407 35.4896C91.7611 35.7046 91.5077 35.8724 91.1803 35.9931C90.8529 36.1137 90.4647 36.174 90.0159 36.174ZM90.103 32.5788C90.2562 32.5788 90.3829 32.5237 90.4832 32.4135C90.5888 32.3034 90.6416 32.1408 90.6416 31.9258C90.6416 31.7212 90.5888 31.5665 90.4832 31.4616C90.3829 31.3515 90.2562 31.2964 90.103 31.2964C89.9499 31.2964 89.8205 31.3489 89.7149 31.4538C89.6146 31.5587 89.5644 31.716 89.5644 31.9258C89.5644 32.1408 89.6146 32.3034 89.7149 32.4135C89.8205 32.5237 89.9499 32.5788 90.103 32.5788ZM90.1981 35.4502C90.4621 35.4502 90.6786 35.403 90.8476 35.3086C91.0166 35.2142 91.1011 35.1015 91.1011 34.9703C91.1011 34.8497 91.0482 34.7684 90.9426 34.7265C90.8423 34.6845 90.6944 34.6635 90.4991 34.6635H90.0951C89.9631 34.6635 89.8522 34.6583 89.7624 34.6478C89.6779 34.6425 89.604 34.6321 89.5406 34.6163C89.3981 34.7422 89.3268 34.8707 89.3268 35.0018C89.3268 35.1487 89.406 35.2588 89.5644 35.3322C89.7281 35.4109 89.9393 35.4502 90.1981 35.4502Z"
            fill="#02024D" />
        <path
            d="M94.4643 34.6085C94.0894 34.6085 93.7514 34.5272 93.4504 34.3646C93.1494 34.202 92.9118 33.9686 92.7375 33.6644C92.5633 33.3602 92.4761 32.9931 92.4761 32.563C92.4761 32.1382 92.5633 31.7737 92.7375 31.4695C92.9171 31.1653 93.1494 30.9319 93.4346 30.7693C93.7197 30.6015 94.0181 30.5176 94.3296 30.5176C94.7046 30.5176 95.0135 30.6015 95.2564 30.7693C95.5046 30.9319 95.6894 31.1548 95.8108 31.438C95.9376 31.716 96.0009 32.0333 96.0009 32.3899C96.0009 32.4896 95.9957 32.5892 95.9851 32.6889C95.9745 32.7833 95.964 32.8541 95.9534 32.9013H93.6009C93.6537 33.1845 93.7725 33.3943 93.9574 33.5307C94.1422 33.6618 94.364 33.7273 94.6227 33.7273C94.9026 33.7273 95.1851 33.6408 95.4702 33.4677L95.8584 34.1679C95.6577 34.3043 95.4333 34.4118 95.1851 34.4904C94.9369 34.5691 94.6966 34.6085 94.4643 34.6085ZM93.593 32.1382H95.0108C95.0108 31.9232 94.958 31.7475 94.8524 31.6111C94.7521 31.4695 94.5857 31.3987 94.3534 31.3987C94.1739 31.3987 94.0128 31.4616 93.8702 31.5875C93.7276 31.7081 93.6352 31.8917 93.593 32.1382Z"
            fill="#02024D" />
    </g>
    <defs>
        <clipPath id="clip0_556_875">
            <rect width="96" height="39" fill="white" />
        </clipPath>
    </defs>
</svg>
