<svg width="492" height="357" viewBox="0 0 492 357" fill="none" xmlns="http://www.w3.org/2000/svg">
  <g clip-path="url(#clip0_58_1056)">
    <path opacity="0.1"
      d="M459.318 170.608C459.591 167.485 459.734 164.311 459.734 161.106C459.734 110.906 425.654 70.2089 383.617 70.2089C370.232 70.2089 357.614 74.3603 346.694 81.6252C316.938 58.562 278.091 44.6272 235.592 44.6272C166.44 44.6272 106.957 81.5606 80.5662 134.528C79.1031 134.426 77.6262 134.371 76.1354 134.371C34.0754 134.371 0 175.063 0 225.263C0 243.713 4.61538 260.886 12.5262 275.222C12.5262 320.385 48.7338 357.009 93.3969 357.009H149.705L149.954 356.58C153.263 351.211 161.188 349.869 166.708 352.918C168.166 353.72 169.523 354.763 171.152 355.132C177.674 356.516 182.054 346.031 188.654 347.05C191.968 347.562 194.552 350.985 197.885 350.634C200.095 350.399 201.771 348.549 203.848 347.765C207.175 346.501 210.549 348.254 212.88 351.1C214.232 347.212 214.223 342.604 216.411 339.038C219.72 333.669 227.645 332.327 233.165 335.376C234.623 336.178 235.98 337.221 237.609 337.59C244.131 338.974 248.511 328.489 255.111 329.508C258.425 330.021 261.009 333.443 264.342 333.093C266.552 332.857 268.228 331.008 270.305 330.223C275.483 328.254 280.786 333.6 282.06 338.987C282.554 341.361 282.815 343.777 282.84 346.202C287.308 344.038 291.083 337.954 296.183 338.743C299.497 339.255 302.082 342.678 305.414 342.327C307.625 342.092 309.3 340.242 311.377 339.458C316.555 337.488 321.858 342.834 323.132 348.222C323.811 351.082 323.857 354.052 323.972 356.986H417.272C452.349 356.986 480.771 328.24 480.771 292.778C487.888 278.94 492 262.667 492 245.24C492 214.335 479.077 187.029 459.318 170.608Z"
      fill="#FEB81E" />
    <path
      d="M287.538 122.696C309.715 122.696 327.692 104.729 327.692 82.5663C327.692 60.4031 309.715 42.4363 287.538 42.4363C265.362 42.4363 247.385 60.4031 247.385 82.5663C247.385 104.729 265.362 122.696 287.538 122.696Z"
      fill="#FEB81E" />
    <path d="M274.611 84.0793L287.474 71.2239L300.466 84.0793H291.637V93.9088H283.44V84.1439L274.611 84.0793Z"
      fill="white" />
    <path
      d="M340.394 185.059C339.851 182.261 338.449 179.702 336.384 177.736C334.318 175.77 331.692 174.496 328.869 174.09C326.046 173.685 323.167 174.168 320.631 175.472C318.095 176.776 316.029 178.837 314.718 181.369C311.924 181.673 309.352 183.037 307.532 185.178C305.712 187.32 304.783 190.077 304.935 192.883C305.088 195.689 306.311 198.329 308.352 200.261C310.393 202.193 313.098 203.27 315.909 203.27H339.752C342.178 203.263 344.503 202.298 346.221 200.586C347.938 198.873 348.91 196.552 348.923 194.128C348.932 191.813 348.052 189.582 346.466 187.896C344.879 186.209 342.706 185.194 340.394 185.059ZM329.848 190.465V197.412H324V190.447H317.746L326.917 181.281L336.083 190.447L329.848 190.465Z"
      fill="white" />
    <path
      d="M410.548 298.991C410.004 296.193 408.603 293.634 406.538 291.668C404.472 289.702 401.846 288.428 399.023 288.023C396.2 287.617 393.321 288.1 390.785 289.404C388.249 290.708 386.183 292.77 384.872 295.301C382.077 295.605 379.505 296.969 377.686 299.111C375.866 301.252 374.937 304.01 375.089 306.815C375.242 309.621 376.464 312.261 378.506 314.194C380.547 316.126 383.252 317.202 386.063 317.202H409.906C412.332 317.195 414.657 316.23 416.375 314.518C418.092 312.805 419.064 310.484 419.077 308.06C419.086 305.745 418.206 303.515 416.62 301.828C415.033 300.141 412.86 299.126 410.548 298.991ZM400.002 304.397V311.344H394.154V304.379H387.9L397.071 295.214L406.237 304.379L400.002 304.397Z"
      fill="white" />
    <path
      d="M152.054 216.785C151.206 212.463 149.034 208.513 145.839 205.48C142.643 202.448 138.583 200.485 134.221 199.862C129.859 199.24 125.411 199.989 121.494 202.006C117.577 204.024 114.386 207.209 112.362 211.121C108.044 211.594 104.073 213.703 101.263 217.013C98.454 220.323 97.0201 224.583 97.2565 228.917C97.4929 233.252 99.3816 237.331 102.534 240.316C105.687 243.301 109.865 244.966 114.208 244.968H151.062C154.817 244.956 158.416 243.459 161.071 240.804C163.725 238.149 165.221 234.552 165.231 230.798C165.243 227.222 163.884 223.776 161.433 221.17C158.983 218.564 155.626 216.995 152.054 216.785ZM135.757 225.134V235.9H126.688V225.134H117.051L131.225 210.973L145.385 225.134H135.757Z"
      fill="white" />
    <path
      d="M310.615 253.686V242.477L315.785 247.643L317.077 246.306L309.692 238.926L302.308 246.306L303.6 247.597L308.769 242.477V253.686H310.615Z"
      fill="white" />
    <path
      d="M52.6154 268.908V257.699L57.7846 262.865L59.0769 261.527L51.6923 254.147L44.3077 261.527L45.6 262.819L50.7692 257.699V268.908H52.6154Z"
      fill="white" />
    <path
      d="M310.154 148.056V139.657L314.031 143.531L315 142.531L309.462 136.995L303.923 142.531L304.892 143.499L308.769 139.657V148.056H310.154Z"
      fill="white" />
    <path
      d="M209.077 87.1697V78.7701L212.954 82.6447L213.923 81.6438L208.385 76.1086L202.846 81.6438L203.815 82.6125L207.692 78.7701V87.1697H209.077Z"
      fill="white" />
    <path
      d="M171.231 170.197V161.797L175.108 165.672L176.077 164.671L170.538 159.136L165 164.671L165.969 165.64L169.846 161.797V170.197H171.231Z"
      fill="white" />
    <path
      d="M408.461 208.943V200.544L412.338 204.418L413.308 203.417L407.769 197.882L402.231 203.417L403.2 204.386L407.077 200.544V208.943H408.461Z"
      fill="white" />
    <path
      d="M162.923 283.207V274.807L166.8 278.682L167.769 277.681L162.231 272.146L156.692 277.681L157.662 278.65L161.538 274.807V283.207H162.923Z"
      fill="white" />
    <path
      d="M364.154 137.918C365.683 137.918 366.923 136.679 366.923 135.15C366.923 133.622 365.683 132.383 364.154 132.383C362.624 132.383 361.385 133.622 361.385 135.15C361.385 136.679 362.624 137.918 364.154 137.918Z"
      fill="white" />
    <path
      d="M103.385 130.538C104.914 130.538 106.154 129.299 106.154 127.77C106.154 126.242 104.914 125.003 103.385 125.003C101.855 125.003 100.615 126.242 100.615 127.77C100.615 129.299 101.855 130.538 103.385 130.538Z"
      fill="white" />
    <path
      d="M185.077 200.65C186.606 200.65 187.846 199.411 187.846 197.882C187.846 196.354 186.606 195.115 185.077 195.115C183.548 195.115 182.308 196.354 182.308 197.882C182.308 199.411 183.548 200.65 185.077 200.65Z"
      fill="white" />
    <path
      d="M426.923 246.315C427.688 246.315 428.308 245.695 428.308 244.931C428.308 244.167 427.688 243.547 426.923 243.547C426.158 243.547 425.538 244.167 425.538 244.931C425.538 245.695 426.158 246.315 426.923 246.315Z"
      fill="white" />
    <path
      d="M323.077 284.6C323.842 284.6 324.462 283.981 324.462 283.216C324.462 282.452 323.842 281.833 323.077 281.833C322.312 281.833 321.692 282.452 321.692 283.216C321.692 283.981 322.312 284.6 323.077 284.6Z"
      fill="white" />
    <path
      d="M145.385 316.888C146.149 316.888 146.769 316.269 146.769 315.505C146.769 314.74 146.149 314.121 145.385 314.121C144.62 314.121 144 314.74 144 315.505C144 316.269 144.62 316.888 145.385 316.888Z"
      fill="white" />
    <path
      d="M44.3077 204.801C45.0724 204.801 45.6923 204.182 45.6923 203.417C45.6923 202.653 45.0724 202.034 44.3077 202.034C43.543 202.034 42.9231 202.653 42.9231 203.417C42.9231 204.182 43.543 204.801 44.3077 204.801Z"
      fill="white" />
    <path
      d="M57.6923 175.28C58.457 175.28 59.0769 174.661 59.0769 173.896C59.0769 173.132 58.457 172.513 57.6923 172.513C56.9276 172.513 56.3077 173.132 56.3077 173.896C56.3077 174.661 56.9276 175.28 57.6923 175.28Z"
      fill="white" />
    <path
      d="M355.385 330.265C356.149 330.265 356.769 329.646 356.769 328.881C356.769 328.117 356.149 327.498 355.385 327.498C354.62 327.498 354 328.117 354 328.881C354 329.646 354.62 330.265 355.385 330.265Z"
      fill="white" />
    <path
      d="M99.2308 282.294C99.9955 282.294 100.615 281.674 100.615 280.91C100.615 280.146 99.9955 279.526 99.2308 279.526C98.466 279.526 97.8461 280.146 97.8461 280.91C97.8461 281.674 98.466 282.294 99.2308 282.294Z"
      fill="white" />
    <path
      d="M131.077 155.446C131.842 155.446 132.462 154.827 132.462 154.062C132.462 153.298 131.842 152.678 131.077 152.678C130.312 152.678 129.692 153.298 129.692 154.062C129.692 154.827 130.312 155.446 131.077 155.446Z"
      fill="white" />
    <path
      d="M178.385 104.938H171.231V97.7881H170.308V104.938H163.154V105.86H170.308V113.01H171.231V105.86H178.385V104.938Z"
      fill="white" />
    <path
      d="M352.615 237.039H348.282V232.708H347.718V237.039H343.385V237.602H347.718V241.933H348.282V237.602H352.615V237.039Z"
      fill="white" />
    <path
      d="M326.308 317.76H321.974V313.429H321.411V317.76H317.077V318.323H321.411V322.654H321.974V318.323H326.308V317.76Z"
      fill="white" />
    <path
      d="M110.769 307.613H106.435V303.281H105.872V307.613H101.538V308.175H105.872V312.507H106.435V308.175H110.769V307.613Z"
      fill="white" />
    <path
      d="M80.3077 226.43H75.9738V222.099H75.4107V226.43H71.0769V226.993H75.4107V231.324H75.9738V226.993H80.3077V226.43Z"
      fill="white" />
    <path
      d="M209.289 308.899L209.322 306.302L207.762 306.284L207.729 308.881L205.038 316.649L211.795 316.727L209.289 308.899Z"
      fill="#3F3D56" />
    <path
      d="M216.069 309.047L216.102 306.385L214.5 306.362L214.468 309.028L211.708 316.994L218.64 317.073L216.069 309.047Z"
      fill="#3F3D56" />
    <path
      d="M222.808 309.061L222.84 306.464L221.28 306.445L221.248 309.042L218.557 316.81L225.318 316.888L222.808 309.061Z"
      fill="#3F3D56" />
    <path
      d="M271.002 309.702L271.034 307.036L269.432 307.017L269.4 309.683L266.64 317.645L273.572 317.728L271.002 309.702Z"
      fill="#3F3D56" />
    <path
      d="M277.934 309.785L277.966 307.119L276.365 307.1L276.332 309.766L273.572 317.728L280.505 317.811L277.934 309.785Z"
      fill="#3F3D56" />
    <path
      d="M284.866 309.868L284.898 307.202L283.297 307.184L283.265 309.85L280.505 317.811L287.437 317.894L284.866 309.868Z"
      fill="#3F3D56" />
    <path
      d="M239.534 309.328L239.566 306.662L237.965 306.644L237.932 309.31L235.172 317.271L242.105 317.354L239.534 309.328Z"
      fill="#3F3D56" />
    <path
      d="M246.466 309.411L246.498 306.745L244.902 306.727L244.869 309.393L242.105 317.354L249.037 317.437L246.466 309.411Z"
      fill="#3F3D56" />
    <path
      d="M253.398 309.494L253.431 306.828L251.834 306.81L251.802 309.476L249.037 317.437L255.974 317.52L253.398 309.494Z"
      fill="#3F3D56" />
    <path
      d="M234.812 122.964C234.715 113.785 223.897 97.5113 218.058 97.4421C212.22 97.3729 201.545 113.388 201.231 122.563H200.954L198.752 306.981L232.62 307.382L234.822 122.968L234.812 122.964Z"
      fill="#3F3D56" />
    <path
      d="M296.677 123.702C296.58 114.523 285.762 98.2493 279.923 98.1802C274.085 98.111 263.409 114.126 263.1 123.301H262.823L260.622 307.719L294.489 308.12L296.691 123.707L296.677 123.702Z"
      fill="#3F3D56" />
    <path
      d="M266.243 37.3254C266.192 23.8703 255.462 0.0690976 249.628 -9.19767e-05C243.794 -0.0692816 233.012 23.4736 232.657 36.901H232.385L229.154 307.312L263.017 307.718L266.248 37.3023L266.243 37.3254Z"
      fill="#2F2E41" />
    <path d="M234.983 182.398L247.851 169.538L260.838 182.398H252.014V192.227H243.812V182.458L234.983 182.398Z"
      fill="#FEB81E" />
    <g opacity="0.1">
      <path opacity="0.1"
        d="M265.325 126.811C268.828 118.642 275.668 110.122 279.923 110.173C285.462 110.238 295.44 124.837 296.571 134.159L296.691 124.145C296.594 114.966 285.775 98.6922 279.937 98.623C275.737 98.5723 269.026 106.87 265.482 114.943L265.325 126.811Z"
        fill="black" />
      <path opacity="0.1"
        d="M200.958 134.551H201.235C201.545 125.376 212.225 109.361 218.058 109.43C221.871 109.477 227.802 116.428 231.489 123.803L232.385 48.9126H232.657C233.017 35.4621 243.794 11.9192 249.628 12.0114C255.138 12.076 265.025 33.3265 266.142 47.0214L266.248 37.7961C266.197 24.341 255.466 0.539801 249.632 0.470611C243.798 0.401422 233.017 23.9443 232.662 37.3948H232.389L231.494 112.286C227.802 104.905 221.875 97.9588 218.063 97.9127C212.229 97.8435 201.549 113.859 201.24 123.033H200.963L198.762 307.451H198.9L200.958 134.551Z"
        fill="black" />
    </g>
    <path
      d="M249.627 11.7094L249.622 11.7093C247.856 11.6884 246.407 13.1024 246.386 14.8677L246.297 22.3351C246.276 24.1003 247.691 25.5484 249.457 25.5693L249.462 25.5694C251.228 25.5903 252.677 24.1763 252.698 22.411L252.787 14.9437C252.808 13.1784 251.393 11.7303 249.627 11.7094Z"
      fill="#ECECF3" />
  </g>
  <defs>
    <clipPath id="clip0_58_1056">
      <rect width="492" height="357" fill="white" />
    </clipPath>
  </defs>
</svg>
