<?xml version="1.0" standalone="no"?>
<!DOCTYPE svg PUBLIC "-//W3C//DTD SVG 20010904//EN"
 "http://www.w3.org/TR/2001/REC-SVG-20010904/DTD/svg10.dtd">
<svg version="1.0" xmlns="http://www.w3.org/2000/svg"
 width="2600.000000pt" height="2600.000000pt" viewBox="0 0 2600.000000 2600.000000"
 preserveAspectRatio="xMidYMid meet">
<metadata>
Created by potrace 1.14, written by Peter Selinger 2001-2017
</metadata>
<g transform="translate(0.000000,2600.000000) scale(0.100000,-0.100000)"
fill="#000000" stroke="none">
<path d="M12108 25055 c-2 -2 -48 -6 -103 -9 -125 -8 -196 -13 -260 -20 -27
-3 -81 -8 -120 -12 -38 -3 -79 -8 -90 -10 -11 -2 -45 -6 -75 -9 -58 -6 -267
-32 -310 -39 -14 -3 -43 -7 -65 -11 -22 -3 -69 -10 -105 -16 -36 -6 -81 -13
-100 -15 -29 -4 -141 -24 -225 -40 -11 -2 -45 -8 -75 -14 -73 -13 -76 -14
-220 -45 -69 -15 -133 -28 -143 -30 -10 -2 -26 -6 -35 -9 -9 -3 -28 -7 -42
-10 -14 -3 -63 -15 -110 -26 -47 -12 -92 -23 -100 -25 -16 -3 -208 -54 -225
-59 -5 -2 -23 -6 -40 -10 -16 -5 -68 -19 -115 -33 -46 -14 -91 -26 -100 -28
-47 -10 -590 -187 -650 -212 -8 -3 -19 -7 -25 -9 -5 -1 -86 -31 -180 -67 -615
-235 -1187 -506 -1745 -829 -19 -11 -104 -61 -187 -111 -84 -51 -168 -101
-185 -111 -48 -29 -411 -268 -425 -280 -7 -6 -49 -36 -94 -66 -69 -47 -417
-301 -452 -330 -7 -6 -37 -29 -67 -52 -30 -24 -57 -45 -60 -48 -3 -3 -39 -32
-80 -65 -41 -33 -84 -67 -95 -76 -39 -32 -300 -254 -315 -269 -9 -8 -38 -35
-65 -59 -243 -213 -751 -719 -922 -917 -38 -44 -139 -158 -153 -173 -21 -23
-259 -309 -295 -355 -16 -21 -35 -44 -41 -50 -72 -76 -634 -855 -634 -880 0
-2 93 -58 207 -124 115 -66 408 -236 653 -377 245 -142 464 -268 487 -281 23
-13 90 -52 150 -87 59 -35 115 -66 123 -70 8 -4 29 -16 45 -27 17 -11 37 -23
45 -27 8 -4 80 -45 160 -91 80 -46 163 -94 185 -107 22 -12 112 -64 200 -115
88 -51 174 -101 191 -110 134 -76 204 -116 234 -135 19 -13 82 -49 140 -82 58
-33 267 -154 465 -268 198 -114 432 -250 520 -300 88 -51 243 -141 345 -200
102 -59 203 -117 225 -129 22 -12 116 -67 210 -121 l169 -98 16 24 c28 44 243
313 329 414 271 315 611 638 946 899 55 42 107 83 115 89 20 16 232 165 295
207 113 75 288 181 420 254 77 42 147 81 155 86 23 14 268 135 320 158 133 60
174 77 265 113 55 22 109 43 120 48 150 63 544 188 745 237 8 2 44 11 80 19
36 9 72 18 80 20 70 15 180 38 200 41 14 2 36 7 50 10 14 3 36 7 50 9 14 2 66
10 115 19 86 14 108 17 235 32 30 4 62 8 70 10 8 1 24 3 35 3 20 1 20 7 20
2741 0 1507 -2 2741 -5 2741 -10 3 -80 6 -82 4z"/>
<path d="M2147 18308 c-35 -73 -77 -160 -92 -193 -15 -33 -47 -102 -71 -153
-24 -51 -44 -99 -44 -107 0 -8 -4 -15 -10 -15 -5 0 -10 -4 -10 -10 0 -5 -34
-91 -76 -191 -127 -306 -241 -616 -340 -924 -25 -77 -52 -160 -60 -185 -41
-126 -171 -605 -179 -657 -2 -11 -6 -30 -9 -41 -4 -11 -9 -29 -11 -39 -2 -10
-17 -79 -34 -153 -31 -140 -86 -411 -96 -467 -3 -18 -7 -45 -10 -60 -39 -235
-39 -234 -50 -308 -3 -23 -7 -50 -9 -61 -2 -12 -7 -45 -11 -75 -3 -30 -8 -65
-10 -79 -5 -28 -13 -98 -19 -156 -3 -22 -7 -61 -11 -89 -10 -89 -15 -129 -20
-200 -3 -38 -8 -90 -10 -115 -4 -43 -12 -149 -20 -270 -15 -211 -19 -398 -19
-770 0 -477 8 -685 39 -1025 2 -27 7 -79 10 -115 3 -36 7 -81 10 -100 3 -19 7
-55 9 -80 13 -125 18 -167 22 -190 2 -14 7 -47 9 -75 3 -27 8 -61 10 -75 2
-14 7 -45 10 -69 5 -42 9 -66 21 -133 3 -18 7 -44 9 -58 2 -14 6 -38 9 -55 4
-27 27 -157 41 -240 6 -31 21 -112 31 -155 2 -14 11 -59 20 -100 17 -92 37
-178 76 -335 17 -66 32 -131 35 -145 6 -35 87 -330 134 -490 85 -287 213 -660
330 -955 35 -88 64 -162 64 -165 1 -3 9 -22 18 -44 9 -21 17 -40 17 -42 0 -2
11 -27 24 -56 13 -29 37 -84 54 -123 66 -151 99 -222 240 -517 20 -43 41 -78
46 -78 5 0 43 20 85 44 42 24 93 53 114 65 81 46 113 64 417 241 173 100 335
194 360 208 45 25 630 363 745 430 33 19 74 42 90 52 124 71 396 228 522 301
84 49 157 89 163 89 5 0 10 5 10 10 0 6 4 10 10 10 10 0 163 87 212 121 15 11
30 19 33 19 4 0 45 23 93 51 48 29 101 60 117 69 17 9 104 60 195 112 91 52
264 152 385 222 121 69 227 130 235 135 8 5 84 49 168 98 85 48 186 107 225
130 88 51 179 103 232 133 22 12 83 48 135 79 52 30 118 68 145 82 28 15 51
33 53 41 1 8 -20 67 -48 131 -27 65 -50 120 -50 123 0 3 -7 20 -15 37 -15 34
-74 192 -81 217 -2 8 -19 62 -39 120 -93 272 -210 746 -240 970 -3 25 -8 52
-10 60 -9 32 -40 277 -50 400 -4 41 -8 89 -10 106 -10 85 -18 322 -18 524 -1
308 12 519 48 820 3 19 7 58 10 85 4 28 8 57 10 65 2 8 7 33 10 55 3 23 7 50
9 60 2 11 7 40 11 65 4 25 9 54 11 65 2 11 7 34 10 50 3 17 10 50 15 75 6 25
13 56 15 70 3 14 9 41 14 60 5 19 11 49 14 65 11 59 98 364 152 530 53 163
217 588 235 611 11 14 5 18 -170 119 -181 104 -183 105 -306 175 -60 34 -117
68 -125 76 -8 7 -19 13 -25 14 -9 2 -135 74 -248 141 -26 16 -49 29 -52 29 -4
0 -71 40 -130 78 -11 6 -27 15 -35 19 -8 4 -91 51 -183 105 -93 54 -170 98
-172 98 -2 0 -40 23 -85 50 -45 28 -85 50 -90 50 -4 0 -13 7 -20 15 -7 9 -15
13 -18 11 -3 -3 -17 3 -31 13 -14 10 -204 121 -421 246 -217 125 -433 250
-478 276 -46 27 -86 49 -88 49 -2 0 -27 15 -56 33 -29 19 -78 47 -108 64 -30
16 -122 69 -205 117 -142 83 -183 107 -265 154 -19 10 -75 43 -125 72 -49 29
-105 61 -123 71 -131 75 -383 221 -541 313 -62 36 -115 66 -116 66 -1 0 -44
25 -94 55 -51 30 -94 55 -97 55 -4 0 -26 14 -51 30 -24 17 -46 30 -49 30 -5 0
-129 72 -210 121 l-32 19 -65 -132z"/>
<path d="M12817 18194 c-1 -1 -56 -5 -122 -8 -117 -7 -143 -9 -255 -21 -165
-18 -350 -47 -515 -81 -121 -26 -328 -78 -368 -93 -12 -5 -26 -9 -32 -10 -27
-3 -226 -69 -352 -117 -281 -106 -633 -274 -828 -397 -127 -79 -164 -102 -215
-136 -55 -36 -211 -145 -240 -168 -326 -255 -558 -467 -761 -698 -24 -27 -47
-52 -50 -55 -3 -3 -39 -46 -81 -97 -184 -222 -360 -475 -503 -723 -284 -494
-491 -1048 -594 -1595 -17 -88 -33 -178 -36 -200 -3 -22 -7 -53 -10 -70 -8
-55 -14 -99 -20 -165 -4 -36 -8 -81 -11 -100 -23 -201 -23 -691 1 -932 17
-170 20 -193 46 -358 100 -630 303 -1196 646 -1800 106 -187 329 -502 498
-705 139 -167 381 -415 540 -555 108 -95 119 -104 210 -176 535 -423 1151
-742 1785 -924 123 -35 257 -69 335 -86 58 -12 230 -45 265 -50 19 -3 46 -7
60 -10 14 -2 45 -6 70 -10 25 -3 56 -7 70 -10 14 -2 54 -6 90 -9 36 -3 79 -8
95 -10 198 -24 698 -24 925 0 19 2 64 6 100 9 36 3 76 8 90 10 14 3 45 7 70
10 43 6 68 10 135 21 17 3 46 8 65 11 28 4 303 63 370 78 172 41 562 173 725
246 22 10 74 32 115 49 105 45 396 196 521 272 217 131 512 338 648 454 232
199 443 401 567 545 22 25 42 47 45 50 6 4 66 76 147 175 371 452 723 1110
895 1675 67 220 110 382 131 490 47 248 68 383 81 525 4 39 8 81 10 95 22 135
22 791 1 920 -3 14 -7 57 -11 95 -4 39 -13 115 -21 170 -8 55 -17 116 -20 135
-9 64 -74 374 -90 430 -8 30 -17 62 -19 70 -38 149 -119 390 -200 595 -44 111
-215 469 -267 560 -13 22 -36 63 -52 90 -88 152 -300 468 -394 584 -150 188
-257 307 -432 481 -267 267 -497 458 -783 650 -460 307 -1019 562 -1527 695
-8 3 -33 9 -55 15 -22 6 -51 13 -65 16 -13 3 -60 14 -105 24 -75 17 -175 38
-220 45 -11 2 -49 8 -85 14 -84 14 -157 23 -272 36 -27 3 -67 7 -90 10 -118
13 -640 28 -651 19z"/>
<path d="M7466 9085 c-32 -19 -59 -35 -61 -35 -1 0 -106 -61 -233 -135 -128
-74 -249 -144 -269 -155 -21 -11 -54 -30 -73 -41 -30 -18 -217 -127 -330 -192
-19 -12 -48 -28 -65 -37 -16 -9 -73 -41 -125 -71 -52 -31 -196 -115 -320 -187
-124 -71 -241 -139 -260 -151 -19 -11 -42 -24 -50 -28 -8 -4 -94 -53 -190
-108 -238 -138 -529 -307 -1150 -665 -289 -167 -563 -325 -608 -351 -46 -27
-86 -49 -90 -49 -3 0 -13 -6 -21 -14 -9 -7 -42 -28 -74 -45 -64 -35 -614 -353
-662 -383 -16 -10 -44 -25 -62 -33 -17 -8 -34 -19 -38 -24 -3 -6 20 -47 51
-93 155 -226 196 -284 293 -418 58 -80 111 -152 118 -160 7 -8 56 -71 110
-140 95 -123 381 -470 394 -480 4 -3 23 -25 43 -48 201 -242 754 -801 1026
-1038 25 -21 52 -46 60 -54 18 -18 189 -164 275 -235 33 -28 62 -52 65 -55 3
-3 59 -48 125 -101 540 -428 994 -734 1644 -1107 247 -141 702 -368 1006 -502
66 -29 138 -60 160 -70 213 -94 582 -233 905 -341 192 -64 646 -201 711 -214
8 -2 60 -15 115 -29 204 -53 540 -128 721 -161 43 -8 89 -17 103 -19 14 -3 66
-12 115 -20 50 -8 99 -17 110 -19 11 -3 43 -8 70 -11 28 -4 66 -10 85 -12 19
-3 46 -7 60 -9 14 -3 50 -7 80 -11 30 -3 64 -8 75 -10 11 -2 45 -7 75 -10 30
-3 66 -7 80 -9 14 -2 52 -7 85 -10 33 -3 76 -8 95 -10 19 -2 69 -7 110 -10 41
-4 90 -8 108 -10 18 -2 74 -7 125 -10 50 -3 114 -8 140 -10 27 -2 54 -2 60 1
9 3 12 656 11 2739 -1 1505 -3 2737 -5 2739 -4 5 -49 12 -124 21 -27 3 -61 8
-75 10 -14 3 -47 7 -75 10 -27 3 -61 8 -75 11 -14 2 -38 7 -55 10 -28 4 -117
20 -175 31 -14 2 -53 10 -86 18 -34 8 -73 16 -85 19 -59 10 -253 60 -382 97
-561 161 -1090 392 -1585 691 -135 81 -389 249 -461 305 -9 7 -43 32 -76 57
-122 90 -347 272 -411 331 -6 5 -55 50 -109 99 -119 110 -342 334 -427 429
-35 39 -68 75 -73 81 -6 6 -35 40 -64 76 -30 36 -57 67 -60 70 -9 7 -149 185
-206 262 -28 37 -53 68 -56 68 -3 0 -31 -16 -63 -35z"/>
<path d="M18260 9008 c-360 -477 -826 -940 -1305 -1296 -60 -45 -115 -85 -120
-90 -15 -12 -234 -159 -320 -214 -124 -79 -283 -171 -435 -251 -284 -149 -466
-231 -765 -344 -160 -60 -497 -170 -577 -188 -13 -2 -84 -20 -158 -39 -116
-29 -178 -43 -320 -71 -14 -3 -38 -7 -55 -10 -16 -3 -41 -7 -55 -10 -14 -3
-40 -7 -57 -10 -18 -3 -45 -7 -60 -9 -64 -11 -318 -45 -338 -46 -14 0 -15
-5472 -1 -5482 6 -4 26 -5 46 -3 19 2 80 6 135 10 55 3 123 8 150 11 142 12
226 21 305 29 25 3 68 8 95 11 28 3 61 7 75 9 14 2 48 7 75 10 101 11 140 16
155 20 8 2 38 7 65 10 45 6 301 48 365 60 14 3 40 8 59 11 18 3 43 8 55 10 11
3 55 11 96 19 41 8 84 17 95 19 233 46 687 160 910 227 55 17 125 37 155 45
222 59 916 313 1213 443 459 201 820 379 1172 579 83 47 159 90 170 96 69 38
301 181 303 188 2 4 8 8 13 8 9 0 272 168 296 189 7 6 14 11 17 11 5 0 194
130 284 194 104 75 474 354 542 410 167 135 326 268 399 335 14 13 50 44 80
70 235 203 607 569 891 877 160 172 422 482 613 724 21 27 192 253 249 330 61
82 304 435 319 462 7 14 -23 35 -194 134 -111 64 -222 128 -247 142 -25 14
-182 105 -350 202 -168 97 -326 189 -353 203 -26 15 -116 67 -200 116 -83 49
-168 98 -187 109 -58 32 -215 123 -390 224 -91 53 -182 105 -202 117 -69 39
-102 58 -277 160 -96 55 -176 101 -178 101 -2 0 -29 16 -59 35 -30 19 -56 35
-58 35 -2 0 -33 18 -68 39 -35 21 -80 47 -99 58 -27 14 -375 215 -439 253 -8
5 -85 49 -170 98 -85 49 -216 124 -290 167 -74 43 -146 85 -160 92 -14 8 -46
26 -71 41 -25 15 -111 64 -190 110 -79 46 -151 88 -159 93 -8 5 -71 41 -140
80 -69 40 -155 89 -192 110 -37 22 -69 39 -71 39 -1 0 -41 -50 -87 -112z"/>
</g>
</svg>
