<svg data-name="Ebene 1" height="100%" id="Ebene_1" viewBox="0 0 153.6 153.6" width="100%"
     xmlns="http://www.w3.org/2000/svg">
  <defs>
    <style>
      .cls-1 {
        fill: #b3b3b3;
      }

      .cls-2 {
        fill: #ecb635;
      }
    </style>
  </defs>
  <title>logo</title>
  <path class="cls-1" d="M72,115.62A39,39,0,0,1,44.49,99.71L16.42,115.92A71.31,71.31,0,0,0,72,148Z"/>
  <path class="cls-1" d="M44.5,53.88A39,39,0,0,1,72,38V5.57A71.27,71.27,0,0,0,16.42,37.66Z"/>
  <path class="cls-2"
        d="M37.77,76.8a38.87,38.87,0,0,1,3.38-15.9L13.07,44.69a71.44,71.44,0,0,0,0,64.21L41.15,92.69A38.85,38.85,0,0,1,37.77,76.8"/>
  <path class="cls-2" d="M108.38,99.71a39,39,0,0,1-27.53,15.91V148a71.27,71.27,0,0,0,55.61-32.09Z"/>
  <circle class="cls-2" cx="76.8" cy="76.8" r="30.68"/>
</svg>
