<svg width="36" height="29" viewBox="0 0 36 29" fill="none" xmlns="http://www.w3.org/2000/svg">
  <rect width="35.0564" height="29" transform="translate(0.250244)" />
  <path
    d="M16.684 21.8293C15.4411 21.7212 14.2397 21.3979 13.1578 20.8804C12.076 20.3628 11.138 19.6627 10.4049 18.8254L3.99805 21.8859C5.39334 23.6453 7.26772 25.1096 9.47082 26.1614C11.6739 27.2133 14.1444 27.8233 16.684 27.9427V21.8293Z"
    fill="#271C04" />
  <path
    d="M10.4072 10.1727C11.1407 9.3367 12.0786 8.63773 13.16 8.1212C14.2414 7.60466 15.4421 7.2821 16.684 7.17449V1.05164C14.144 1.17061 11.6731 1.78072 9.46992 2.83295C7.2667 3.88518 5.39256 5.35019 3.99805 7.11029L10.4072 10.1727Z"
    fill="#271C04" />
  <path
    d="M8.87117 14.5C8.86968 13.4656 9.13258 12.4425 9.64264 11.498L3.23347 8.43756C2.0898 10.3181 1.49414 12.394 1.49414 14.4991C1.49414 16.6041 2.0898 18.68 3.23347 20.5605L9.64264 17.5001C9.13277 16.5562 8.86986 15.5338 8.87117 14.5"
    fill="#271C04" />
  <path
    d="M24.9876 18.8254C24.2541 19.6631 23.3154 20.3636 22.2327 20.8811C21.15 21.3987 19.9477 21.7218 18.704 21.8293V27.9427C21.2452 27.8246 23.7174 27.2149 25.9219 26.1626C28.1264 25.1104 30.0016 23.6449 31.3968 21.884L24.9876 18.8254Z"
    fill="#271C04" />
  <path
    d="M17.7796 20.2925C21.647 20.2925 24.7822 17.6991 24.7822 14.5C24.7822 11.3009 21.647 8.70758 17.7796 8.70758C13.9122 8.70758 10.777 11.3009 10.777 14.5C10.777 17.6991 13.9122 20.2925 17.7796 20.2925Z"
    fill="#271C04" />
</svg>
