<svg width="65" height="21" viewBox="0 0 65 21" fill="none" xmlns="http://www.w3.org/2000/svg">
  <path
    d="M8.37605 16.2465C7.69101 16.1747 7.02875 15.9595 6.43236 15.615C5.83596 15.2704 5.3188 14.8041 4.91451 14.2464L1.38037 16.2853C2.14918 17.4589 3.18263 18.4357 4.39764 19.1372C5.61264 19.8387 6.9753 20.2453 8.37605 20.3243V16.2465Z"
    fill="black" />
  <path
    d="M4.91292 8.47914C5.31705 7.92133 5.83418 7.45493 6.4306 7.11031C7.02702 6.7657 7.68936 6.55061 8.37445 6.47905V2.40204C6.97371 2.48118 5.61106 2.88775 4.39595 3.58907C3.18085 4.29039 2.14716 5.26692 1.37793 6.44022L4.91292 8.47914Z"
    fill="black" />
  <path
    d="M18.4094 2.35637C17.6131 2.70751 16.9441 3.29491 16.4929 4.03901C15.8478 5.08591 15.5203 6.45195 15.5203 8.09998C15.5203 9.4694 15.7339 10.6328 16.1552 11.5716C16.8044 12.9985 17.9155 13.874 19.4538 14.1754C19.8886 14.2598 20.5167 14.3029 21.323 14.3029H25.7385V11.7084H21.8321C20.8848 11.7084 20.1849 11.5294 19.7526 11.1791C19.1312 10.6725 18.8163 9.55467 18.8163 7.86274C18.8163 6.59633 19.0173 5.72503 19.4141 5.26659C19.8953 4.7119 20.6763 4.43076 21.7358 4.43076H25.7385V1.83545H21.4446C20.2136 1.83545 19.1912 2.01106 18.4052 2.35637"
    fill="black" />
  <path
    d="M38.7652 4.94072C38.3177 3.73679 37.519 2.86803 36.3945 2.35724C35.4598 1.9351 34.3682 1.7215 33.1364 1.7215C31.2385 1.73332 29.7703 2.1715 28.7706 3.0259C27.5887 4.03904 26.9858 5.74279 26.9858 8.09157C26.9858 9.40442 27.2172 10.54 27.6722 11.4687C28.1357 12.4109 28.8162 13.1133 29.6985 13.5566C30.7277 14.075 31.9477 14.3375 33.3238 14.3375C34.3851 14.3375 35.3383 14.1687 36.1589 13.847C37.2759 13.4038 38.1126 12.6076 38.6478 11.478C39.075 10.5543 39.292 9.4517 39.292 8.20723C39.292 6.96277 39.1164 5.86858 38.7686 4.94579M35.9968 8.03669C35.9968 9.35967 35.7604 10.3416 35.2969 10.9554C34.8334 11.5691 34.1419 11.8418 33.1626 11.8418C32.1494 11.8418 31.4352 11.5531 30.9835 10.9596C30.5166 10.3433 30.2802 9.34869 30.2802 8.00461C30.2802 6.73397 30.4668 5.80949 30.8349 5.25311C31.2993 4.54982 32.0574 4.20789 33.1533 4.20789C34.2492 4.20789 34.9938 4.56418 35.4235 5.28097C35.8009 5.90236 35.9934 6.82684 35.9934 8.03162"
    fill="black" />
  <path d="M46.1285 6.86734H41.0417V9.18572H46.1285V6.86734Z" fill="black" />
  <path d="M51.3353 0H47.9717V14.302H51.3353V0Z" fill="black" />
  <path d="M53.0549 0.0211182V2.68228H57.1184V14.3029H60.4407V2.68228H64.9998V0.0211182H53.0549Z" fill="black" />
  <path
    d="M4.06602 11.3615C4.06446 10.6726 4.20831 9.99102 4.48816 9.36145L0.958237 7.32336C0.328155 8.57668 0 9.96002 0 11.3628C0 12.7656 0.328155 14.1489 0.958237 15.4022L4.49154 13.3633C4.21169 12.7337 4.06784 12.0522 4.0694 11.3632"
    fill="black" />
  <path
    d="M12.9493 14.2464C12.5453 14.8044 12.0282 15.2709 11.4318 15.6157C10.8353 15.9605 10.173 16.1757 9.48779 16.2473V20.3243C10.8884 20.2453 12.251 19.8387 13.466 19.1374C14.681 18.4361 15.7145 17.4595 16.4835 16.2862L12.9493 14.2464Z"
    fill="black" />
  <path
    d="M12.8329 11.3615C12.8329 12.125 12.6065 12.8713 12.1823 13.506C11.7582 14.1408 11.1553 14.6356 10.45 14.9277C9.74467 15.2199 8.96855 15.2963 8.21977 15.1474C7.471 14.9985 6.78321 14.6308 6.24337 14.091C5.70354 13.5511 5.3359 12.8634 5.18696 12.1146C5.03802 11.3658 5.11447 10.5897 5.40662 9.88436C5.69878 9.17903 6.19353 8.57617 6.82831 8.15203C7.46309 7.72788 8.20939 7.5015 8.97283 7.5015C9.99657 7.5015 10.9784 7.90818 11.7023 8.63207C12.4262 9.35597 12.8329 10.3378 12.8329 11.3615"
    fill="black" />
</svg>
