<svg width="385" height="154" viewBox="0 0 385 154" fill="none" xmlns="http://www.w3.org/2000/svg">
  <g clip-path="url(#clip0_431_420)">
    <path
      d="M109.004 13.8187C104.289 15.8979 100.327 19.3761 97.6555 23.7821C93.8362 29.9811 91.8965 38.0697 91.8965 47.8281C91.8965 55.9368 93.1613 62.8256 95.6559 68.3847C99.5002 76.8333 106.079 82.0175 115.188 83.8022C117.762 84.3021 121.482 84.557 126.256 84.557H152.401V69.1946H129.27C123.661 69.1946 119.517 68.1348 116.957 66.0601C113.278 63.0606 111.413 56.4417 111.413 46.4234C111.413 38.9246 112.603 33.7654 114.953 31.0509C117.802 27.7664 122.426 26.1017 128.7 26.1017H152.401V10.7343H126.976C119.687 10.7343 113.633 11.7741 108.979 13.8187"
      fill="white" />
    <path
      d="M229.534 29.1212C226.885 21.9924 222.155 16.8482 215.496 13.8237C209.962 11.3242 203.498 10.0594 196.205 10.0594C184.966 10.1293 176.273 12.7239 170.354 17.7831C163.355 23.7821 159.786 33.8704 159.786 47.7781C159.786 55.5518 161.155 62.2757 163.85 67.7748C166.595 73.3539 170.624 77.5132 175.848 80.1378C181.942 83.2073 189.166 84.762 197.314 84.762C203.598 84.762 209.242 83.7622 214.102 81.8575C220.716 79.2329 225.67 74.5187 228.839 67.8298C231.369 62.3607 232.654 55.8318 232.654 48.463C232.654 41.0942 231.614 34.6153 229.554 29.1512M213.142 47.4532C213.142 55.2869 211.742 61.1009 208.998 64.7353C206.253 68.3697 202.159 69.9844 196.36 69.9844C190.361 69.9844 186.131 68.2747 183.457 64.7603C180.692 61.1109 179.292 55.2219 179.292 47.2632C179.292 39.7395 180.397 34.2654 182.577 30.9709C185.326 26.8066 189.816 24.7819 196.305 24.7819C202.794 24.7819 207.203 26.8916 209.747 31.1359C211.982 34.8153 213.122 40.2894 213.122 47.4232"
      fill="white" />
    <path d="M273.137 40.5293H243.017V54.2571H273.137V40.5293Z" fill="white" />
    <path
      d="M49.5938 107.908C45.5375 107.483 41.6161 106.209 38.0847 104.169C34.5533 102.128 31.4911 99.3672 29.0972 96.0652L8.17065 108.138C12.723 115.087 18.8423 120.871 26.0366 125.025C33.231 129.179 41.2996 131.586 49.5938 132.054V107.908Z"
      fill="white" />
    <path
      d="M29.0873 61.9158C31.4803 58.6129 34.5423 55.8512 38.0739 53.8106C41.6054 51.7701 45.5273 50.4965 49.5839 50.0728V25.9318C41.2898 26.4004 33.2212 28.8078 26.0262 32.9605C18.8313 37.1132 12.7106 42.8954 8.15576 49.8428L29.0873 61.9158Z"
      fill="white" />
    <path d="M303.967 -0.133942H284.05V84.5521H303.967V-0.133942Z" fill="white" />
    <path d="M314.15 -0.00897217V15.7484H338.211V84.557H357.883V15.7484H384.878V-0.00897217H314.15Z" fill="white" />
    <path
      d="M24.073 78.983C24.0638 74.9034 24.9155 70.8678 26.5726 67.1399L5.67103 55.0719C1.94016 62.4931 -0.00292969 70.6842 -0.00292969 78.9905C-0.00292969 87.2967 1.94016 95.4878 5.67103 102.909L26.5926 90.836C24.9355 87.1081 24.0838 83.0725 24.093 78.993"
      fill="white" />
    <path
      d="M76.6743 96.0652C74.2818 99.369 71.22 102.132 67.6885 104.173C64.1569 106.215 60.2348 107.489 56.1777 107.913V132.054C64.4713 131.586 72.5393 129.179 79.7335 125.026C86.9277 120.873 93.0475 115.091 97.6009 108.143L76.6743 96.0652Z"
      fill="white" />
    <path
      d="M75.9844 78.983C75.9844 83.5035 74.6439 87.9225 72.1325 91.6812C69.621 95.4399 66.0513 98.3694 61.8749 100.099C57.6985 101.829 53.1028 102.282 48.6692 101.4C44.2355 100.518 40.1629 98.3412 36.9664 95.1447C33.7699 91.9482 31.5931 87.8757 30.7112 83.442C29.8292 79.0083 30.2819 74.4127 32.0118 70.2363C33.7417 66.0598 36.6713 62.4902 40.43 59.9787C44.1887 57.4672 48.6077 56.1267 53.1282 56.1267C59.19 56.1267 65.0036 58.5348 69.29 62.8212C73.5764 67.1075 75.9844 72.9211 75.9844 78.983"
      fill="white" />
    <path
      d="M123.464 128V107.136H128.168V128H123.464ZM132.705 128V112.128H136.545L136.865 114.144H136.993C137.676 113.504 138.422 112.949 139.233 112.48C140.065 111.989 141.014 111.744 142.081 111.744C143.809 111.744 145.057 112.32 145.825 113.472C146.614 114.603 147.009 116.16 147.009 118.144V128H142.305V118.752C142.305 117.6 142.145 116.811 141.825 116.384C141.526 115.957 141.036 115.744 140.353 115.744C139.756 115.744 139.244 115.883 138.817 116.16C138.39 116.416 137.921 116.789 137.409 117.28V128H132.705ZM155.69 128.384C154.644 128.384 153.567 128.181 152.458 127.776C151.37 127.371 150.42 126.837 149.61 126.176L151.722 123.232C152.447 123.765 153.14 124.181 153.802 124.48C154.484 124.757 155.156 124.896 155.818 124.896C156.522 124.896 157.034 124.779 157.354 124.544C157.674 124.288 157.834 123.957 157.834 123.552C157.834 123.189 157.674 122.891 157.354 122.656C157.055 122.421 156.66 122.208 156.17 122.016C155.679 121.803 155.156 121.589 154.602 121.376C153.962 121.12 153.322 120.8 152.682 120.416C152.063 120.032 151.54 119.541 151.114 118.944C150.687 118.325 150.474 117.579 150.474 116.704C150.474 115.232 151.028 114.037 152.138 113.12C153.268 112.203 154.74 111.744 156.554 111.744C157.77 111.744 158.836 111.957 159.754 112.384C160.692 112.789 161.492 113.248 162.154 113.76L160.042 116.576C159.487 116.149 158.932 115.819 158.378 115.584C157.823 115.349 157.268 115.232 156.714 115.232C155.498 115.232 154.89 115.648 154.89 116.48C154.89 116.992 155.188 117.387 155.786 117.664C156.404 117.92 157.119 118.197 157.93 118.496C158.612 118.731 159.274 119.04 159.914 119.424C160.575 119.787 161.119 120.277 161.546 120.896C161.994 121.493 162.218 122.283 162.218 123.264C162.218 124.693 161.663 125.909 160.554 126.912C159.444 127.893 157.823 128.384 155.69 128.384ZM165.205 133.888V112.128H169.045L169.365 113.696H169.493C170.112 113.141 170.805 112.683 171.573 112.32C172.362 111.936 173.173 111.744 174.005 111.744C175.925 111.744 177.44 112.48 178.549 113.952C179.658 115.403 180.213 117.355 180.213 119.808C180.213 121.621 179.893 123.168 179.253 124.448C178.613 125.728 177.781 126.709 176.757 127.392C175.754 128.053 174.677 128.384 173.525 128.384C172.842 128.384 172.181 128.245 171.541 127.968C170.901 127.669 170.304 127.253 169.749 126.72L169.909 129.248V133.888H165.205ZM172.437 124.544C173.248 124.544 173.941 124.171 174.517 123.424C175.093 122.677 175.381 121.493 175.381 119.872C175.381 117.013 174.464 115.584 172.629 115.584C171.712 115.584 170.805 116.064 169.909 117.024V123.52C170.336 123.904 170.762 124.171 171.189 124.32C171.616 124.469 172.032 124.544 172.437 124.544ZM183.549 128V112.128H188.253V128H183.549ZM185.885 109.792C185.095 109.792 184.455 109.568 183.965 109.12C183.474 108.672 183.229 108.075 183.229 107.328C183.229 106.581 183.474 105.984 183.965 105.536C184.455 105.088 185.095 104.864 185.885 104.864C186.674 104.864 187.314 105.088 187.805 105.536C188.295 105.984 188.541 106.581 188.541 107.328C188.541 108.075 188.295 108.672 187.805 109.12C187.314 109.568 186.674 109.792 185.885 109.792ZM192.393 128V112.128H196.233L196.553 114.912H196.681C197.257 113.845 197.95 113.056 198.76 112.544C199.571 112.011 200.382 111.744 201.193 111.744C201.641 111.744 202.014 111.776 202.313 111.84C202.611 111.883 202.867 111.957 203.081 112.064L202.313 116.128C202.035 116.043 201.758 115.979 201.481 115.936C201.225 115.893 200.926 115.872 200.585 115.872C199.987 115.872 199.358 116.096 198.697 116.544C198.057 116.971 197.523 117.717 197.097 118.784V128H192.393ZM211.934 128.384C210.419 128.384 209.054 128.053 207.838 127.392C206.622 126.731 205.662 125.781 204.958 124.544C204.254 123.307 203.902 121.813 203.902 120.064C203.902 118.336 204.254 116.853 204.958 115.616C205.683 114.379 206.622 113.429 207.774 112.768C208.926 112.085 210.131 111.744 211.39 111.744C212.905 111.744 214.153 112.085 215.134 112.768C216.137 113.429 216.883 114.336 217.374 115.488C217.886 116.619 218.142 117.909 218.142 119.36C218.142 119.765 218.121 120.171 218.078 120.576C218.035 120.96 217.993 121.248 217.95 121.44H208.446C208.659 122.592 209.139 123.445 209.886 124C210.633 124.533 211.529 124.8 212.574 124.8C213.705 124.8 214.846 124.448 215.998 123.744L217.566 126.592C216.755 127.147 215.849 127.584 214.846 127.904C213.843 128.224 212.873 128.384 211.934 128.384ZM208.414 118.336H214.142C214.142 117.461 213.929 116.747 213.502 116.192C213.097 115.616 212.425 115.328 211.486 115.328C210.761 115.328 210.11 115.584 209.534 116.096C208.958 116.587 208.585 117.333 208.414 118.336ZM233.911 128.384C231.948 128.384 230.54 127.819 229.687 126.688C228.855 125.557 228.439 124.075 228.439 122.24V115.808H226.263V112.32L228.695 112.128L229.239 107.904H233.143V112.128H236.951V115.808H233.143V122.176C233.143 123.072 233.324 123.723 233.687 124.128C234.071 124.512 234.572 124.704 235.191 124.704C235.447 124.704 235.703 124.672 235.959 124.608C236.236 124.544 236.481 124.469 236.695 124.384L237.431 127.808C237.025 127.936 236.524 128.064 235.927 128.192C235.351 128.32 234.679 128.384 233.911 128.384ZM246.302 128.384C244.958 128.384 243.689 128.064 242.494 127.424C241.321 126.763 240.372 125.813 239.646 124.576C238.921 123.317 238.558 121.813 238.558 120.064C238.558 118.293 238.921 116.789 239.646 115.552C240.372 114.315 241.321 113.376 242.494 112.736C243.689 112.075 244.958 111.744 246.302 111.744C247.646 111.744 248.905 112.075 250.078 112.736C251.252 113.376 252.201 114.315 252.926 115.552C253.652 116.789 254.014 118.293 254.014 120.064C254.014 121.813 253.652 123.317 252.926 124.576C252.201 125.813 251.252 126.763 250.078 127.424C248.905 128.064 247.646 128.384 246.302 128.384ZM246.302 124.576C247.262 124.576 247.988 124.171 248.478 123.36C248.969 122.528 249.214 121.429 249.214 120.064C249.214 118.677 248.969 117.579 248.478 116.768C247.988 115.957 247.262 115.552 246.302 115.552C245.321 115.552 244.585 115.957 244.094 116.768C243.625 117.579 243.39 118.677 243.39 120.064C243.39 121.429 243.625 122.528 244.094 123.36C244.585 124.171 245.321 124.576 246.302 124.576ZM272.731 128.384C270.981 128.384 269.371 127.979 267.899 127.168C266.427 126.357 265.243 125.163 264.347 123.584C263.472 121.984 263.035 120.021 263.035 117.696C263.035 115.392 263.483 113.429 264.379 111.808C265.296 110.165 266.501 108.917 267.995 108.064C269.509 107.189 271.141 106.752 272.891 106.752C274.235 106.752 275.44 107.029 276.507 107.584C277.573 108.117 278.459 108.747 279.163 109.472L276.667 112.48C276.133 111.989 275.568 111.595 274.971 111.296C274.395 110.976 273.733 110.816 272.987 110.816C272.048 110.816 271.184 111.083 270.395 111.616C269.627 112.149 269.008 112.917 268.539 113.92C268.091 114.923 267.867 116.128 267.867 117.536C267.867 119.669 268.325 121.333 269.243 122.528C270.16 123.723 271.387 124.32 272.923 124.32C273.776 124.32 274.533 124.128 275.195 123.744C275.877 123.36 276.475 122.901 276.987 122.368L279.483 125.312C277.733 127.36 275.483 128.384 272.731 128.384ZM282.268 128V105.568H286.972V111.072L286.748 113.92C287.345 113.387 288.038 112.896 288.828 112.448C289.638 111.979 290.577 111.744 291.644 111.744C293.372 111.744 294.62 112.32 295.388 113.472C296.177 114.603 296.572 116.16 296.572 118.144V128H291.868V118.752C291.868 117.6 291.708 116.811 291.388 116.384C291.089 115.957 290.598 115.744 289.916 115.744C289.318 115.744 288.806 115.883 288.38 116.16C287.953 116.416 287.484 116.789 286.972 117.28V128H282.268ZM304.549 128.384C303.098 128.384 301.946 127.925 301.093 127.008C300.239 126.069 299.813 124.928 299.813 123.584C299.813 121.92 300.517 120.619 301.925 119.68C303.333 118.741 305.605 118.112 308.741 117.792C308.698 117.088 308.485 116.533 308.101 116.128C307.738 115.701 307.119 115.488 306.245 115.488C305.583 115.488 304.911 115.616 304.229 115.872C303.546 116.128 302.821 116.48 302.053 116.928L300.357 113.824C301.359 113.205 302.426 112.704 303.557 112.32C304.709 111.936 305.903 111.744 307.141 111.744C309.167 111.744 310.725 112.331 311.813 113.504C312.901 114.677 313.445 116.48 313.445 118.912V128H309.605L309.285 126.368H309.157C308.495 126.965 307.781 127.456 307.013 127.84C306.266 128.203 305.445 128.384 304.549 128.384ZM306.149 124.736C306.682 124.736 307.141 124.619 307.525 124.384C307.93 124.128 308.335 123.797 308.741 123.392V120.608C307.077 120.821 305.925 121.163 305.285 121.632C304.645 122.08 304.325 122.613 304.325 123.232C304.325 123.744 304.485 124.128 304.805 124.384C305.146 124.619 305.594 124.736 306.149 124.736ZM317.424 128V112.128H321.264L321.584 114.144H321.712C322.394 113.504 323.141 112.949 323.952 112.48C324.784 111.989 325.733 111.744 326.8 111.744C328.528 111.744 329.776 112.32 330.544 113.472C331.333 114.603 331.728 116.16 331.728 118.144V128H327.024V118.752C327.024 117.6 326.864 116.811 326.544 116.384C326.245 115.957 325.754 115.744 325.072 115.744C324.474 115.744 323.962 115.883 323.536 116.16C323.109 116.416 322.64 116.789 322.128 117.28V128H317.424ZM341.4 134.752C340.163 134.752 339.043 134.613 338.04 134.336C337.038 134.059 336.238 133.621 335.64 133.024C335.043 132.427 334.744 131.659 334.744 130.72C334.744 129.44 335.502 128.373 337.016 127.52V127.392C336.611 127.115 336.259 126.763 335.96 126.336C335.683 125.909 335.544 125.365 335.544 124.704C335.544 124.128 335.715 123.573 336.056 123.04C336.398 122.507 336.824 122.069 337.336 121.728V121.6C336.782 121.216 336.28 120.661 335.832 119.936C335.406 119.211 335.192 118.389 335.192 117.472C335.192 116.192 335.502 115.136 336.12 114.304C336.739 113.451 337.55 112.811 338.552 112.384C339.555 111.957 340.622 111.744 341.752 111.744C342.691 111.744 343.512 111.872 344.216 112.128H350.008V115.552H347.48C347.63 115.787 347.747 116.085 347.832 116.448C347.939 116.811 347.992 117.205 347.992 117.632C347.992 118.848 347.715 119.851 347.16 120.64C346.606 121.429 345.859 122.016 344.92 122.4C343.982 122.784 342.926 122.976 341.752 122.976C341.134 122.976 340.494 122.869 339.832 122.656C339.448 122.976 339.256 123.371 339.256 123.84C339.256 124.245 339.438 124.544 339.8 124.736C340.163 124.928 340.782 125.024 341.656 125.024H344.216C346.179 125.024 347.672 125.344 348.696 125.984C349.742 126.603 350.264 127.627 350.264 129.056C350.264 130.144 349.902 131.115 349.176 131.968C348.451 132.843 347.427 133.525 346.104 134.016C344.782 134.507 343.214 134.752 341.4 134.752ZM341.752 120.128C342.371 120.128 342.883 119.904 343.288 119.456C343.715 119.008 343.928 118.347 343.928 117.472C343.928 116.64 343.715 116.011 343.288 115.584C342.883 115.136 342.371 114.912 341.752 114.912C341.134 114.912 340.611 115.125 340.184 115.552C339.779 115.979 339.576 116.619 339.576 117.472C339.576 118.347 339.779 119.008 340.184 119.456C340.611 119.904 341.134 120.128 341.752 120.128ZM342.136 131.808C343.203 131.808 344.078 131.616 344.76 131.232C345.443 130.848 345.784 130.389 345.784 129.856C345.784 129.365 345.571 129.035 345.144 128.864C344.739 128.693 344.142 128.608 343.352 128.608H341.72C341.187 128.608 340.739 128.587 340.376 128.544C340.035 128.523 339.736 128.48 339.48 128.416C338.904 128.928 338.616 129.451 338.616 129.984C338.616 130.581 338.936 131.029 339.576 131.328C340.238 131.648 341.091 131.808 342.136 131.808ZM359.372 128.384C357.857 128.384 356.492 128.053 355.276 127.392C354.06 126.731 353.1 125.781 352.396 124.544C351.692 123.307 351.34 121.813 351.34 120.064C351.34 118.336 351.692 116.853 352.396 115.616C353.121 114.379 354.06 113.429 355.212 112.768C356.364 112.085 357.569 111.744 358.828 111.744C360.342 111.744 361.59 112.085 362.572 112.768C363.574 113.429 364.321 114.336 364.812 115.488C365.324 116.619 365.58 117.909 365.58 119.36C365.58 119.765 365.558 120.171 365.516 120.576C365.473 120.96 365.43 121.248 365.388 121.44H355.884C356.097 122.592 356.577 123.445 357.324 124C358.07 124.533 358.966 124.8 360.012 124.8C361.142 124.8 362.284 124.448 363.436 123.744L365.004 126.592C364.193 127.147 363.286 127.584 362.284 127.904C361.281 128.224 360.31 128.384 359.372 128.384ZM355.852 118.336H361.58C361.58 117.461 361.366 116.747 360.94 116.192C360.534 115.616 359.862 115.328 358.924 115.328C358.198 115.328 357.548 115.584 356.972 116.096C356.396 116.587 356.022 117.333 355.852 118.336Z"
      fill="white" />
  </g>
  <defs>
    <clipPath id="clip0_431_420">
      <rect width="385" height="154" fill="white" />
    </clipPath>
  </defs>
</svg>
