<svg width="87" height="29" viewBox="0 0 87 29" fill="none" xmlns="http://www.w3.org/2000/svg">
  <path
    d="M16.6841 21.8293C15.4412 21.7212 14.2397 21.3979 13.1579 20.8804C12.076 20.3628 11.138 19.6627 10.405 18.8254L3.99809 21.8859C5.39339 23.6453 7.26777 25.1096 9.47086 26.1614C11.674 27.2133 14.1444 27.8233 16.6841 27.9427V21.8293Z"
    fill="#271C04" />
  <path
    d="M10.4073 10.1727C11.1407 9.3367 12.0787 8.63773 13.16 8.1212C14.2414 7.60466 15.4421 7.2821 16.6841 7.17449V1.05164C14.144 1.17061 11.6732 1.78072 9.46997 2.83295C7.26675 3.88518 5.3926 5.35019 3.99809 7.11029L10.4073 10.1727Z"
    fill="#271C04" />
  <path
    d="M8.87115 14.5C8.86966 13.4656 9.13257 12.4425 9.64263 11.498L3.23346 8.43756C2.08979 10.3181 1.49413 12.394 1.49413 14.4991C1.49413 16.6041 2.08979 18.68 3.23346 20.5605L9.64263 17.5001C9.13275 16.5562 8.86985 15.5338 8.87115 14.5Z"
    fill="#271C04" />
  <path
    d="M24.9877 18.8254C24.2541 19.6631 23.3154 20.3636 22.2327 20.8811C21.1501 21.3987 19.9477 21.7218 18.704 21.8293V27.9427C21.2452 27.8246 23.7174 27.2149 25.9219 26.1626C28.1264 25.1104 30.0016 23.6449 31.3968 21.884L24.9877 18.8254Z"
    fill="#271C04" />
  <path
    d="M17.7796 20.2925C21.6471 20.2925 24.7823 17.6991 24.7823 14.5C24.7823 11.3009 21.6471 8.70758 17.7796 8.70758C13.9122 8.70758 10.777 11.3009 10.777 14.5C10.777 17.6991 13.9122 20.2925 17.7796 20.2925Z"
    fill="#271C04" />
  <path
    d="M40.5588 21.24C39.8654 21.24 39.2188 21.1267 38.6188 20.9C38.0321 20.66 37.5188 20.32 37.0788 19.88C36.6388 19.44 36.2921 18.9 36.0388 18.26C35.7854 17.6067 35.6588 16.8667 35.6588 16.04C35.6588 15.2133 35.7988 14.48 36.0788 13.84C36.3588 13.1867 36.7321 12.64 37.1988 12.2C37.6788 11.76 38.2321 11.4267 38.8588 11.2C39.4854 10.96 40.1388 10.84 40.8188 10.84C41.4321 10.84 41.9721 10.94 42.4388 11.14C42.9188 11.34 43.3454 11.5933 43.7188 11.9L42.3388 13.8C41.8721 13.4133 41.4254 13.22 40.9988 13.22C40.2788 13.22 39.7121 13.4733 39.2988 13.98C38.8854 14.4867 38.6788 15.1733 38.6788 16.04C38.6788 16.9067 38.8854 17.5933 39.2988 18.1C39.7254 18.6067 40.2588 18.86 40.8988 18.86C41.2188 18.86 41.5254 18.7933 41.8188 18.66C42.1254 18.5133 42.4121 18.34 42.6788 18.14L43.8388 20.06C43.3454 20.4867 42.8121 20.7933 42.2388 20.98C41.6654 21.1533 41.1054 21.24 40.5588 21.24ZM49.4683 21.24C48.8416 21.24 48.235 21.1267 47.6483 20.9C47.0616 20.66 46.5416 20.32 46.0883 19.88C45.6483 19.44 45.295 18.9 45.0283 18.26C44.7616 17.6067 44.6283 16.8667 44.6283 16.04C44.6283 15.2133 44.7616 14.48 45.0283 13.84C45.295 13.1867 45.6483 12.64 46.0883 12.2C46.5416 11.76 47.0616 11.4267 47.6483 11.2C48.235 10.96 48.8416 10.84 49.4683 10.84C50.095 10.84 50.695 10.96 51.2683 11.2C51.855 11.4267 52.3683 11.76 52.8083 12.2C53.2616 12.64 53.6216 13.1867 53.8883 13.84C54.155 14.48 54.2883 15.2133 54.2883 16.04C54.2883 16.8667 54.155 17.6067 53.8883 18.26C53.6216 18.9 53.2616 19.44 52.8083 19.88C52.3683 20.32 51.855 20.66 51.2683 20.9C50.695 21.1267 50.095 21.24 49.4683 21.24ZM49.4683 18.86C50.0683 18.86 50.5216 18.6067 50.8283 18.1C51.135 17.5933 51.2883 16.9067 51.2883 16.04C51.2883 15.1733 51.135 14.4867 50.8283 13.98C50.5216 13.4733 50.0683 13.22 49.4683 13.22C48.855 13.22 48.395 13.4733 48.0883 13.98C47.795 14.4867 47.6483 15.1733 47.6483 16.04C47.6483 16.9067 47.795 17.5933 48.0883 18.1C48.395 18.6067 48.855 18.86 49.4683 18.86ZM56.0621 16.98V14.9H60.9821V16.98H56.0621ZM63.5827 21V7.96H66.5227V21H63.5827ZM72.3383 21V10.44H68.7583V7.96H78.8783V10.44H75.2983V21H72.3383Z"
    fill="#271C04" />
</svg>
