<svg xmlns="http://www.w3.org/2000/svg" width="600" height="400" viewBox="0 0 600 400"><rect width="100%" height="100%" fill="#DDDDDD"/><path fill="#999999" d="M130.965 200.55h6.94q2.55 0 4.45-.63 1.9-.64 3.16-1.83 1.25-1.19 1.88-2.9.62-1.71.62-3.81 0-2-.62-3.63-.63-1.62-1.87-2.76-1.24-1.13-3.14-1.74-1.89-.6-4.48-.6h-6.94v17.9Zm-9.28-25.08h16.22q5 0 8.66 1.18 3.65 1.17 6.04 3.27 2.38 2.11 3.53 5.04 1.16 2.93 1.16 6.42 0 3.62-1.21 6.64-1.21 3.02-3.62 5.19-2.42 2.17-6.06 3.38-3.64 1.21-8.5 1.21h-6.94v17.56h-9.28v-49.89Zm41.47-1.38h8.52v51.27h-8.52v-51.27Zm35.74 42.13v-5.97q-3.69.17-6.21.64-2.51.46-4.03 1.19-1.52.72-2.18 1.69-.65.96-.65 2.1 0 2.24 1.33 3.21 1.33.97 3.46.97 2.63 0 4.54-.95 1.92-.95 3.74-2.88Zm-18-18.6-1.52-2.72q6.1-5.59 14.69-5.59 3.11 0 5.56 1.02 2.45 1.01 4.14 2.82 1.69 1.82 2.57 4.33.88 2.52.88 5.52v22.36h-3.87q-1.2 0-1.86-.36-.65-.36-1.03-1.47l-.76-2.55q-1.35 1.21-2.62 2.12-1.28.91-2.66 1.54-1.38.62-2.95.94-1.57.33-3.47.33-2.24 0-4.14-.6-1.9-.61-3.28-1.81-1.38-1.21-2.13-3-.76-1.8-.76-4.18 0-1.34.45-2.67.44-1.33 1.46-2.54t2.64-2.28q1.62-1.07 3.99-1.86 2.36-.79 5.5-1.29t7.17-.61V203q0-3.55-1.51-5.26-1.52-1.71-4.39-1.71-2.07 0-3.43.49-1.36.48-2.4 1.08-1.03.61-1.88 1.09-.84.48-1.88.48-.89 0-1.51-.46-.63-.47-1-1.09Zm61.92-3.28-2.24 3.11q-.38.48-.74.76-.36.27-1.05.27-.66 0-1.28-.39-.62-.4-1.48-.9-.87-.5-2.06-.9-1.19-.39-2.95-.39-2.24 0-3.93.81t-2.81 2.33q-1.12 1.51-1.67 3.67-.56 2.16-.56 4.88 0 2.83.61 5.04.6 2.21 1.74 3.71 1.14 1.5 2.76 2.28 1.62.77 3.66.77 2.03 0 3.29-.5 1.26-.5 2.12-1.1.87-.61 1.5-1.11.64-.5 1.44-.5 1.03 0 1.55.8l2.45 3.1q-1.42 1.66-3.07 2.78-1.66 1.12-3.44 1.79-1.77.68-3.65.95-1.88.28-3.75.28-3.27 0-6.17-1.23-2.9-1.22-5.07-3.57-2.18-2.34-3.44-5.74-1.25-3.4-1.25-7.75 0-3.9 1.12-7.23 1.12-3.32 3.29-5.76 2.17-2.43 5.38-3.81t7.39-1.38q3.96 0 6.95 1.28 2.98 1.27 5.36 3.65Zm12.39 9.25h16.08q0-1.66-.47-3.12-.47-1.47-1.4-2.57-.93-1.11-2.36-1.74-1.43-.64-3.33-.64-3.69 0-5.81 2.1-2.13 2.11-2.71 5.97Zm21.73 5.14h-21.9q.2 2.73.96 4.71t2 3.28q1.24 1.29 2.95 1.93 1.71.64 3.78.64t3.57-.49q1.5-.48 2.62-1.06 1.12-.59 1.97-1.07.84-.49 1.64-.49 1.07 0 1.59.8l2.44 3.1q-1.41 1.66-3.17 2.78-1.76 1.12-3.67 1.79-1.92.68-3.9.95-1.99.28-3.85.28-3.69 0-6.86-1.23-3.18-1.22-5.52-3.62-2.35-2.4-3.7-5.93-1.34-3.54-1.34-8.2 0-3.62 1.17-6.81 1.17-3.19 3.37-5.56 2.19-2.36 5.34-3.74 3.16-1.38 7.13-1.38 3.34 0 6.17 1.07t4.87 3.12q2.03 2.06 3.19 5.04 1.15 2.98 1.15 6.81 0 1.94-.41 2.61-.41.67-1.59.67Zm16.91-34.64v19.67q2.07-1.93 4.55-3.14 2.49-1.21 5.83-1.21 2.9 0 5.14.98 2.25.99 3.75 2.76 1.5 1.78 2.27 4.25.78 2.46.78 5.43v22.53h-8.52v-22.53q0-3.24-1.49-5.02-1.48-1.78-4.51-1.78-2.21 0-4.14 1.01-1.94 1-3.66 2.72v25.6h-8.52v-51.27h8.52Zm46.06 15.32q3.93 0 7.15 1.28 3.23 1.27 5.52 3.62 2.3 2.35 3.54 5.73 1.24 3.38 1.24 7.55 0 4.21-1.24 7.59t-3.54 5.76q-2.29 2.38-5.52 3.66-3.22 1.28-7.15 1.28-3.97 0-7.21-1.28-3.25-1.28-5.54-3.66-2.3-2.38-3.56-5.76-1.25-3.38-1.25-7.59 0-4.17 1.25-7.55 1.26-3.38 3.56-5.73 2.29-2.35 5.54-3.62 3.24-1.28 7.21-1.28Zm0 29.91q4.41 0 6.53-2.96 2.13-2.97 2.13-8.7 0-5.73-2.13-8.73-2.12-3-6.53-3-4.49 0-6.65 3.02-2.15 3.02-2.15 8.71 0 5.69 2.15 8.68 2.16 2.98 6.65 2.98Zm24.08-45.23h8.52v51.27h-8.52v-51.27Zm39.26 40.78V199q-1.45-1.76-3.16-2.48-1.71-.73-3.67-.73-1.94 0-3.49.73-1.55.72-2.65 2.19-1.11 1.46-1.69 3.72-.59 2.26-.59 5.33 0 3.11.5 5.27.5 2.15 1.43 3.52.93 1.36 2.28 1.96 1.34.61 3 .61 2.66 0 4.52-1.11 1.86-1.1 3.52-3.14Zm0-40.78h8.52v51.27h-5.21q-1.69 0-2.14-1.55l-.72-3.42q-2.14 2.45-4.92 3.97t-6.47 1.52q-2.9 0-5.31-1.21-2.42-1.21-4.16-3.5-1.74-2.3-2.69-5.68t-.95-7.73q0-3.93 1.07-7.31 1.07-3.38 3.07-5.86 2-2.49 4.8-3.89 2.79-1.39 6.28-1.39 2.96 0 5.07.93 2.1.93 3.76 2.52v-18.67Zm23.66 29.5h16.08q0-1.66-.46-3.12-.47-1.47-1.4-2.57-.93-1.11-2.36-1.74-1.44-.64-3.33-.64-3.7 0-5.82 2.1-2.12 2.11-2.71 5.97Zm21.74 5.14h-21.91q.21 2.73.97 4.71t2 3.28q1.24 1.29 2.95 1.93 1.71.64 3.78.64t3.57-.49q1.5-.48 2.62-1.06 1.12-.59 1.97-1.07.84-.49 1.63-.49 1.07 0 1.59.8l2.45 3.1q-1.41 1.66-3.17 2.78-1.76 1.12-3.68 1.79-1.91.68-3.9.95-1.98.28-3.84.28-3.69 0-6.87-1.23-3.17-1.22-5.52-3.62-2.34-2.4-3.69-5.93-1.34-3.54-1.34-8.2 0-3.62 1.17-6.81 1.17-3.19 3.36-5.56 2.19-2.36 5.35-3.74 3.16-1.38 7.12-1.38 3.35 0 6.18 1.07 2.83 1.07 4.86 3.12 2.04 2.06 3.2 5.04 1.15 2.98 1.15 6.81 0 1.94-.41 2.61-.42.67-1.59.67Zm15.9-16.63.52 4q1.66-3.17 3.93-4.98 2.28-1.81 5.39-1.81 2.45 0 3.93 1.07l-.55 6.38q-.17.62-.5.88-.33.26-.88.26-.52 0-1.54-.17-1.02-.18-1.98-.18-1.42 0-2.52.42-1.1.41-1.98 1.19-.88.77-1.56 1.88-.67 1.1-1.26 2.52v21.8h-8.52v-35.4h5.01q1.31 0 1.82.47.52.46.69 1.67Z"/></svg>