<svg width="737" height="414" viewBox="0 0 737 414" fill="none" xmlns="http://www.w3.org/2000/svg">
<path opacity="0.05" d="M30.1852 3L3 30.1852" stroke="#FEB81E" stroke-width="3.5" stroke-linecap="square"/>
<path opacity="0.09" d="M30.1851 3L57.3702 30.1852" stroke="#FEB81E" stroke-width="3.5" stroke-linecap="square"/>
<path opacity="0.12" d="M84.5558 3L57.3706 30.1852" stroke="#FEB81E" stroke-width="3.5" stroke-linecap="square"/>
<path opacity="0.16" d="M111.741 3L84.5557 30.1852" stroke="#FEB81E" stroke-width="3.5" stroke-linecap="square"/>
<path opacity="0.19" d="M111.74 3L138.926 30.1852" stroke="#FEB81E" stroke-width="3.5" stroke-linecap="square"/>
<path opacity="0.23" d="M166.111 3L138.926 30.1852" stroke="#FEB81E" stroke-width="3.5" stroke-linecap="square"/>
<path opacity="0.27" d="M166.111 3L193.296 30.1852" stroke="#FEB81E" stroke-width="3.5" stroke-linecap="square"/>
<path opacity="0.3" d="M220.482 3L193.296 30.1852" stroke="#FEB81E" stroke-width="3.5" stroke-linecap="square"/>
<path opacity="0.34" d="M247.667 3L220.481 30.1852" stroke="#FEB81E" stroke-width="3.5" stroke-linecap="square"/>
<path opacity="0.37" d="M274.852 3L247.667 30.1852" stroke="#FEB81E" stroke-width="3.5" stroke-linecap="square"/>
<path opacity="0.41" d="M274.852 3L302.037 30.1852" stroke="#FEB81E" stroke-width="3.5" stroke-linecap="square"/>
<path opacity="0.45" d="M329.222 3L302.037 30.1852" stroke="#FEB81E" stroke-width="3.5" stroke-linecap="square"/>
<path opacity="0.48" d="M329.222 3L356.407 30.1852" stroke="#FEB81E" stroke-width="3.5" stroke-linecap="square"/>
<path opacity="0.52" d="M383.592 3L356.407 30.1852" stroke="#FEB81E" stroke-width="3.5" stroke-linecap="square"/>
<path opacity="0.56" d="M410.778 3L383.593 30.1852" stroke="#FEB81E" stroke-width="3.5" stroke-linecap="square"/>
<path opacity="0.59" d="M437.963 3L410.778 30.1852" stroke="#FEB81E" stroke-width="3.5" stroke-linecap="square"/>
<path opacity="0.63" d="M465.148 3L437.963 30.1852" stroke="#FEB81E" stroke-width="3.5" stroke-linecap="square"/>
<path opacity="0.66" d="M465.148 3L492.333 30.1852" stroke="#FEB81E" stroke-width="3.5" stroke-linecap="square"/>
<path opacity="0.7" d="M492.333 3L519.519 30.1852" stroke="#FEB81E" stroke-width="3.5" stroke-linecap="square"/>
<path opacity="0.74" d="M519.519 3L546.704 30.1852" stroke="#FEB81E" stroke-width="3.5" stroke-linecap="square"/>
<path opacity="0.77" d="M546.704 3L573.889 30.1852" stroke="#FEB81E" stroke-width="3.5" stroke-linecap="square"/>
<path opacity="0.81" d="M573.889 3L601.074 30.1852" stroke="#FEB81E" stroke-width="3.5" stroke-linecap="square"/>
<path opacity="0.84" d="M628.259 3L601.074 30.1852" stroke="#FEB81E" stroke-width="3.5" stroke-linecap="square"/>
<path opacity="0.88" d="M655.444 3L628.259 30.1852" stroke="#FEB81E" stroke-width="3.5" stroke-linecap="square"/>
<path opacity="0.92" d="M682.63 3L655.444 30.1852" stroke="#FEB81E" stroke-width="3.5" stroke-linecap="square"/>
<path opacity="0.95" d="M709.815 3L682.629 30.1852" stroke="#FEB81E" stroke-width="3.5" stroke-linecap="square"/>
<path opacity="0.99" d="M709.815 3L737 30.1852" stroke="#FEB81E" stroke-width="3.5" stroke-linecap="square"/>
<path opacity="0.05" d="M30.1852 30.1851L3 57.3703" stroke="#FEB81E" stroke-width="3.5" stroke-linecap="square"/>
<path opacity="0.09" d="M57.3702 30.1851L30.1851 57.3703" stroke="#FEB81E" stroke-width="3.5" stroke-linecap="square"/>
<path opacity="0.12" d="M57.3706 30.1851L84.5558 57.3703" stroke="#FEB81E" stroke-width="3.5" stroke-linecap="square"/>
<path opacity="0.16" d="M84.5557 30.1851L111.741 57.3703" stroke="#FEB81E" stroke-width="3.5" stroke-linecap="square"/>
<path opacity="0.19" d="M111.74 30.1851L138.926 57.3703" stroke="#FEB81E" stroke-width="3.5" stroke-linecap="square"/>
<path opacity="0.23" d="M166.111 30.1851L138.926 57.3703" stroke="#FEB81E" stroke-width="3.5" stroke-linecap="square"/>
<path opacity="0.27" d="M166.111 30.1851L193.296 57.3703" stroke="#FEB81E" stroke-width="3.5" stroke-linecap="square"/>
<path opacity="0.3" d="M220.482 30.1851L193.296 57.3703" stroke="#FEB81E" stroke-width="3.5" stroke-linecap="square"/>
<path opacity="0.34" d="M247.667 30.1851L220.481 57.3703" stroke="#FEB81E" stroke-width="3.5" stroke-linecap="square"/>
<path opacity="0.37" d="M247.667 30.1851L274.852 57.3703" stroke="#FEB81E" stroke-width="3.5" stroke-linecap="square"/>
<path opacity="0.41" d="M302.037 30.1851L274.852 57.3703" stroke="#FEB81E" stroke-width="3.5" stroke-linecap="square"/>
<path opacity="0.45" d="M302.037 30.1851L329.222 57.3703" stroke="#FEB81E" stroke-width="3.5" stroke-linecap="square"/>
<path opacity="0.48" d="M356.407 30.1851L329.222 57.3703" stroke="#FEB81E" stroke-width="3.5" stroke-linecap="square"/>
<path opacity="0.52" d="M383.592 30.1851L356.407 57.3703" stroke="#FEB81E" stroke-width="3.5" stroke-linecap="square"/>
<path opacity="0.56" d="M410.778 30.1851L383.593 57.3703" stroke="#FEB81E" stroke-width="3.5" stroke-linecap="square"/>
<path opacity="0.59" d="M410.778 30.1851L437.963 57.3703" stroke="#FEB81E" stroke-width="3.5" stroke-linecap="square"/>
<path opacity="0.63" d="M437.963 30.1851L465.148 57.3703" stroke="#FEB81E" stroke-width="3.5" stroke-linecap="square"/>
<path opacity="0.66" d="M465.148 30.1851L492.333 57.3703" stroke="#FEB81E" stroke-width="3.5" stroke-linecap="square"/>
<path opacity="0.7" d="M519.519 30.1851L492.333 57.3703" stroke="#FEB81E" stroke-width="3.5" stroke-linecap="square"/>
<path opacity="0.74" d="M546.704 30.1851L519.519 57.3703" stroke="#FEB81E" stroke-width="3.5" stroke-linecap="square"/>
<path opacity="0.77" d="M573.889 30.1851L546.704 57.3703" stroke="#FEB81E" stroke-width="3.5" stroke-linecap="square"/>
<path opacity="0.81" d="M601.074 30.1851L573.889 57.3703" stroke="#FEB81E" stroke-width="3.5" stroke-linecap="square"/>
<path opacity="0.84" d="M628.259 30.1851L601.074 57.3703" stroke="#FEB81E" stroke-width="3.5" stroke-linecap="square"/>
<path opacity="0.88" d="M655.444 30.1851L628.259 57.3703" stroke="#FEB81E" stroke-width="3.5" stroke-linecap="square"/>
<path opacity="0.92" d="M682.63 30.1851L655.444 57.3703" stroke="#FEB81E" stroke-width="3.5" stroke-linecap="square"/>
<path opacity="0.95" d="M682.629 30.1851L709.815 57.3703" stroke="#FEB81E" stroke-width="3.5" stroke-linecap="square"/>
<path opacity="0.99" d="M709.815 30.1851L737 57.3703" stroke="#FEB81E" stroke-width="3.5" stroke-linecap="square"/>
<path opacity="0.05" d="M3 57.3704L30.1852 84.5555" stroke="#FEB81E" stroke-width="3.5" stroke-linecap="square"/>
<path opacity="0.09" d="M30.1851 57.3704L57.3702 84.5555" stroke="#FEB81E" stroke-width="3.5" stroke-linecap="square"/>
<path opacity="0.12" d="M84.5558 57.3704L57.3706 84.5555" stroke="#FEB81E" stroke-width="3.5" stroke-linecap="square"/>
<path opacity="0.16" d="M111.741 57.3704L84.5557 84.5555" stroke="#FEB81E" stroke-width="3.5" stroke-linecap="square"/>
<path opacity="0.19" d="M138.926 57.3704L111.74 84.5555" stroke="#FEB81E" stroke-width="3.5" stroke-linecap="square"/>
<path opacity="0.23" d="M166.111 57.3704L138.926 84.5555" stroke="#FEB81E" stroke-width="3.5" stroke-linecap="square"/>
<path opacity="0.27" d="M193.296 57.3704L166.111 84.5555" stroke="#FEB81E" stroke-width="3.5" stroke-linecap="square"/>
<path opacity="0.3" d="M220.482 57.3704L193.296 84.5555" stroke="#FEB81E" stroke-width="3.5" stroke-linecap="square"/>
<path opacity="0.34" d="M220.481 57.3704L247.667 84.5555" stroke="#FEB81E" stroke-width="3.5" stroke-linecap="square"/>
<path opacity="0.37" d="M274.852 57.3704L247.667 84.5555" stroke="#FEB81E" stroke-width="3.5" stroke-linecap="square"/>
<path opacity="0.41" d="M302.037 57.3704L274.852 84.5555" stroke="#FEB81E" stroke-width="3.5" stroke-linecap="square"/>
<path opacity="0.45" d="M302.037 57.3704L329.222 84.5555" stroke="#FEB81E" stroke-width="3.5" stroke-linecap="square"/>
<path opacity="0.48" d="M356.407 57.3704L329.222 84.5555" stroke="#FEB81E" stroke-width="3.5" stroke-linecap="square"/>
<path opacity="0.52" d="M383.592 57.3704L356.407 84.5555" stroke="#FEB81E" stroke-width="3.5" stroke-linecap="square"/>
<path opacity="0.56" d="M383.593 57.3704L410.778 84.5555" stroke="#FEB81E" stroke-width="3.5" stroke-linecap="square"/>
<path opacity="0.59" d="M437.963 57.3704L410.778 84.5555" stroke="#FEB81E" stroke-width="3.5" stroke-linecap="square"/>
<path opacity="0.63" d="M465.148 57.3704L437.963 84.5555" stroke="#FEB81E" stroke-width="3.5" stroke-linecap="square"/>
<path opacity="0.66" d="M492.333 57.3704L465.148 84.5555" stroke="#FEB81E" stroke-width="3.5" stroke-linecap="square"/>
<path opacity="0.7" d="M519.519 57.3704L492.333 84.5555" stroke="#FEB81E" stroke-width="3.5" stroke-linecap="square"/>
<path opacity="0.74" d="M546.704 57.3704L519.519 84.5555" stroke="#FEB81E" stroke-width="3.5" stroke-linecap="square"/>
<path opacity="0.77" d="M573.889 57.3704L546.704 84.5555" stroke="#FEB81E" stroke-width="3.5" stroke-linecap="square"/>
<path opacity="0.81" d="M573.889 57.3704L601.074 84.5555" stroke="#FEB81E" stroke-width="3.5" stroke-linecap="square"/>
<path opacity="0.84" d="M601.074 57.3704L628.259 84.5555" stroke="#FEB81E" stroke-width="3.5" stroke-linecap="square"/>
<path opacity="0.88" d="M628.259 57.3704L655.444 84.5555" stroke="#FEB81E" stroke-width="3.5" stroke-linecap="square"/>
<path opacity="0.92" d="M682.63 57.3704L655.444 84.5555" stroke="#FEB81E" stroke-width="3.5" stroke-linecap="square"/>
<path opacity="0.95" d="M682.629 57.3704L709.815 84.5555" stroke="#FEB81E" stroke-width="3.5" stroke-linecap="square"/>
<path opacity="0.99" d="M709.815 57.3704L737 84.5555" stroke="#FEB81E" stroke-width="3.5" stroke-linecap="square"/>
<path opacity="0.05" d="M30.1852 84.5555L3 111.741" stroke="#FEB81E" stroke-width="3.5" stroke-linecap="square"/>
<path opacity="0.09" d="M30.1851 84.5555L57.3702 111.741" stroke="#FEB81E" stroke-width="3.5" stroke-linecap="square"/>
<path opacity="0.12" d="M57.3706 84.5555L84.5558 111.741" stroke="#FEB81E" stroke-width="3.5" stroke-linecap="square"/>
<path opacity="0.16" d="M111.741 84.5555L84.5557 111.741" stroke="#FEB81E" stroke-width="3.5" stroke-linecap="square"/>
<path opacity="0.19" d="M138.926 84.5555L111.74 111.741" stroke="#FEB81E" stroke-width="3.5" stroke-linecap="square"/>
<path opacity="0.23" d="M138.926 84.5555L166.111 111.741" stroke="#FEB81E" stroke-width="3.5" stroke-linecap="square"/>
<path opacity="0.27" d="M166.111 84.5555L193.296 111.741" stroke="#FEB81E" stroke-width="3.5" stroke-linecap="square"/>
<path opacity="0.3" d="M193.296 84.5555L220.482 111.741" stroke="#FEB81E" stroke-width="3.5" stroke-linecap="square"/>
<path opacity="0.34" d="M220.481 84.5555L247.667 111.741" stroke="#FEB81E" stroke-width="3.5" stroke-linecap="square"/>
<path opacity="0.37" d="M274.852 84.5555L247.667 111.741" stroke="#FEB81E" stroke-width="3.5" stroke-linecap="square"/>
<path opacity="0.41" d="M274.852 84.5555L302.037 111.741" stroke="#FEB81E" stroke-width="3.5" stroke-linecap="square"/>
<path opacity="0.45" d="M329.222 84.5555L302.037 111.741" stroke="#FEB81E" stroke-width="3.5" stroke-linecap="square"/>
<path opacity="0.48" d="M329.222 84.5555L356.407 111.741" stroke="#FEB81E" stroke-width="3.5" stroke-linecap="square"/>
<path opacity="0.52" d="M356.407 84.5555L383.592 111.741" stroke="#FEB81E" stroke-width="3.5" stroke-linecap="square"/>
<path opacity="0.56" d="M410.778 84.5555L383.593 111.741" stroke="#FEB81E" stroke-width="3.5" stroke-linecap="square"/>
<path opacity="0.59" d="M410.778 84.5555L437.963 111.741" stroke="#FEB81E" stroke-width="3.5" stroke-linecap="square"/>
<path opacity="0.63" d="M465.148 84.5555L437.963 111.741" stroke="#FEB81E" stroke-width="3.5" stroke-linecap="square"/>
<path opacity="0.66" d="M492.333 84.5555L465.148 111.741" stroke="#FEB81E" stroke-width="3.5" stroke-linecap="square"/>
<path opacity="0.7" d="M519.519 84.5555L492.333 111.741" stroke="#FEB81E" stroke-width="3.5" stroke-linecap="square"/>
<path opacity="0.74" d="M519.519 84.5555L546.704 111.741" stroke="#FEB81E" stroke-width="3.5" stroke-linecap="square"/>
<path opacity="0.77" d="M546.704 84.5555L573.889 111.741" stroke="#FEB81E" stroke-width="3.5" stroke-linecap="square"/>
<path opacity="0.81" d="M573.889 84.5555L601.074 111.741" stroke="#FEB81E" stroke-width="3.5" stroke-linecap="square"/>
<path opacity="0.84" d="M628.259 84.5555L601.074 111.741" stroke="#FEB81E" stroke-width="3.5" stroke-linecap="square"/>
<path opacity="0.88" d="M628.259 84.5555L655.444 111.741" stroke="#FEB81E" stroke-width="3.5" stroke-linecap="square"/>
<path opacity="0.92" d="M682.63 84.5555L655.444 111.741" stroke="#FEB81E" stroke-width="3.5" stroke-linecap="square"/>
<path opacity="0.95" d="M709.815 84.5555L682.629 111.741" stroke="#FEB81E" stroke-width="3.5" stroke-linecap="square"/>
<path opacity="0.99" d="M709.815 84.5555L737 111.741" stroke="#FEB81E" stroke-width="3.5" stroke-linecap="square"/>
<path opacity="0.05" d="M30.1852 111.741L3 138.926" stroke="#FEB81E" stroke-width="3.5" stroke-linecap="square"/>
<path opacity="0.09" d="M30.1851 111.741L57.3702 138.926" stroke="#FEB81E" stroke-width="3.5" stroke-linecap="square"/>
<path opacity="0.12" d="M57.3706 111.741L84.5558 138.926" stroke="#FEB81E" stroke-width="3.5" stroke-linecap="square"/>
<path opacity="0.16" d="M111.741 111.741L84.5557 138.926" stroke="#FEB81E" stroke-width="3.5" stroke-linecap="square"/>
<path opacity="0.19" d="M111.74 111.741L138.926 138.926" stroke="#FEB81E" stroke-width="3.5" stroke-linecap="square"/>
<path opacity="0.23" d="M138.926 111.741L166.111 138.926" stroke="#FEB81E" stroke-width="3.5" stroke-linecap="square"/>
<path opacity="0.27" d="M166.111 111.741L193.296 138.926" stroke="#FEB81E" stroke-width="3.5" stroke-linecap="square"/>
<path opacity="0.3" d="M193.296 111.741L220.482 138.926" stroke="#FEB81E" stroke-width="3.5" stroke-linecap="square"/>
<path opacity="0.34" d="M247.667 111.741L220.481 138.926" stroke="#FEB81E" stroke-width="3.5" stroke-linecap="square"/>
<path opacity="0.37" d="M274.852 111.741L247.667 138.926" stroke="#FEB81E" stroke-width="3.5" stroke-linecap="square"/>
<path opacity="0.41" d="M302.037 111.741L274.852 138.926" stroke="#FEB81E" stroke-width="3.5" stroke-linecap="square"/>
<path opacity="0.45" d="M302.037 111.741L329.222 138.926" stroke="#FEB81E" stroke-width="3.5" stroke-linecap="square"/>
<path opacity="0.48" d="M356.407 111.741L329.222 138.926" stroke="#FEB81E" stroke-width="3.5" stroke-linecap="square"/>
<path opacity="0.52" d="M356.407 111.741L383.592 138.926" stroke="#FEB81E" stroke-width="3.5" stroke-linecap="square"/>
<path opacity="0.56" d="M410.778 111.741L383.593 138.926" stroke="#FEB81E" stroke-width="3.5" stroke-linecap="square"/>
<path opacity="0.59" d="M410.778 111.741L437.963 138.926" stroke="#FEB81E" stroke-width="3.5" stroke-linecap="square"/>
<path opacity="0.63" d="M437.963 111.741L465.148 138.926" stroke="#FEB81E" stroke-width="3.5" stroke-linecap="square"/>
<path opacity="0.66" d="M465.148 111.741L492.333 138.926" stroke="#FEB81E" stroke-width="3.5" stroke-linecap="square"/>
<path opacity="0.7" d="M492.333 111.741L519.519 138.926" stroke="#FEB81E" stroke-width="3.5" stroke-linecap="square"/>
<path opacity="0.74" d="M519.519 111.741L546.704 138.926" stroke="#FEB81E" stroke-width="3.5" stroke-linecap="square"/>
<path opacity="0.77" d="M546.704 111.741L573.889 138.926" stroke="#FEB81E" stroke-width="3.5" stroke-linecap="square"/>
<path opacity="0.81" d="M573.889 111.741L601.074 138.926" stroke="#FEB81E" stroke-width="3.5" stroke-linecap="square"/>
<path opacity="0.84" d="M601.074 111.741L628.259 138.926" stroke="#FEB81E" stroke-width="3.5" stroke-linecap="square"/>
<path opacity="0.88" d="M628.259 111.741L655.444 138.926" stroke="#FEB81E" stroke-width="3.5" stroke-linecap="square"/>
<path opacity="0.92" d="M655.444 111.741L682.63 138.926" stroke="#FEB81E" stroke-width="3.5" stroke-linecap="square"/>
<path opacity="0.95" d="M682.629 111.741L709.815 138.926" stroke="#FEB81E" stroke-width="3.5" stroke-linecap="square"/>
<path opacity="0.99" d="M737 111.741L709.815 138.926" stroke="#FEB81E" stroke-width="3.5" stroke-linecap="square"/>
<path opacity="0.05" d="M30.1852 138.926L3 166.111" stroke="#FEB81E" stroke-width="3.5" stroke-linecap="square"/>
<path opacity="0.09" d="M57.3702 138.926L30.1851 166.111" stroke="#FEB81E" stroke-width="3.5" stroke-linecap="square"/>
<path opacity="0.12" d="M57.3706 138.926L84.5558 166.111" stroke="#FEB81E" stroke-width="3.5" stroke-linecap="square"/>
<path opacity="0.16" d="M84.5557 138.926L111.741 166.111" stroke="#FEB81E" stroke-width="3.5" stroke-linecap="square"/>
<path opacity="0.19" d="M111.74 138.926L138.926 166.111" stroke="#FEB81E" stroke-width="3.5" stroke-linecap="square"/>
<path opacity="0.23" d="M138.926 138.926L166.111 166.111" stroke="#FEB81E" stroke-width="3.5" stroke-linecap="square"/>
<path opacity="0.27" d="M166.111 138.926L193.296 166.111" stroke="#FEB81E" stroke-width="3.5" stroke-linecap="square"/>
<path opacity="0.3" d="M193.296 138.926L220.482 166.111" stroke="#FEB81E" stroke-width="3.5" stroke-linecap="square"/>
<path opacity="0.34" d="M220.481 138.926L247.667 166.111" stroke="#FEB81E" stroke-width="3.5" stroke-linecap="square"/>
<path opacity="0.37" d="M274.852 138.926L247.667 166.111" stroke="#FEB81E" stroke-width="3.5" stroke-linecap="square"/>
<path opacity="0.41" d="M302.037 138.926L274.852 166.111" stroke="#FEB81E" stroke-width="3.5" stroke-linecap="square"/>
<path opacity="0.45" d="M302.037 138.926L329.222 166.111" stroke="#FEB81E" stroke-width="3.5" stroke-linecap="square"/>
<path opacity="0.48" d="M356.407 138.926L329.222 166.111" stroke="#FEB81E" stroke-width="3.5" stroke-linecap="square"/>
<path opacity="0.52" d="M356.407 138.926L383.592 166.111" stroke="#FEB81E" stroke-width="3.5" stroke-linecap="square"/>
<path opacity="0.56" d="M383.593 138.926L410.778 166.111" stroke="#FEB81E" stroke-width="3.5" stroke-linecap="square"/>
<path opacity="0.59" d="M437.963 138.926L410.778 166.111" stroke="#FEB81E" stroke-width="3.5" stroke-linecap="square"/>
<path opacity="0.63" d="M437.963 138.926L465.148 166.111" stroke="#FEB81E" stroke-width="3.5" stroke-linecap="square"/>
<path opacity="0.66" d="M465.148 138.926L492.333 166.111" stroke="#FEB81E" stroke-width="3.5" stroke-linecap="square"/>
<path opacity="0.7" d="M519.519 138.926L492.333 166.111" stroke="#FEB81E" stroke-width="3.5" stroke-linecap="square"/>
<path opacity="0.74" d="M546.704 138.926L519.519 166.111" stroke="#FEB81E" stroke-width="3.5" stroke-linecap="square"/>
<path opacity="0.77" d="M573.889 138.926L546.704 166.111" stroke="#FEB81E" stroke-width="3.5" stroke-linecap="square"/>
<path opacity="0.81" d="M601.074 138.926L573.889 166.111" stroke="#FEB81E" stroke-width="3.5" stroke-linecap="square"/>
<path opacity="0.84" d="M628.259 138.926L601.074 166.111" stroke="#FEB81E" stroke-width="3.5" stroke-linecap="square"/>
<path opacity="0.88" d="M655.444 138.926L628.259 166.111" stroke="#FEB81E" stroke-width="3.5" stroke-linecap="square"/>
<path opacity="0.92" d="M655.444 138.926L682.63 166.111" stroke="#FEB81E" stroke-width="3.5" stroke-linecap="square"/>
<path opacity="0.95" d="M682.629 138.926L709.815 166.111" stroke="#FEB81E" stroke-width="3.5" stroke-linecap="square"/>
<path opacity="0.99" d="M709.815 138.926L737 166.111" stroke="#FEB81E" stroke-width="3.5" stroke-linecap="square"/>
<path opacity="0.05" d="M3 166.111L30.1852 193.296" stroke="#FEB81E" stroke-width="3.5" stroke-linecap="square"/>
<path opacity="0.09" d="M30.1851 166.111L57.3702 193.296" stroke="#FEB81E" stroke-width="3.5" stroke-linecap="square"/>
<path opacity="0.12" d="M84.5558 166.111L57.3706 193.296" stroke="#FEB81E" stroke-width="3.5" stroke-linecap="square"/>
<path opacity="0.16" d="M111.741 166.111L84.5557 193.296" stroke="#FEB81E" stroke-width="3.5" stroke-linecap="square"/>
<path opacity="0.19" d="M138.926 166.111L111.74 193.296" stroke="#FEB81E" stroke-width="3.5" stroke-linecap="square"/>
<path opacity="0.23" d="M138.926 166.111L166.111 193.296" stroke="#FEB81E" stroke-width="3.5" stroke-linecap="square"/>
<path opacity="0.27" d="M193.296 166.111L166.111 193.296" stroke="#FEB81E" stroke-width="3.5" stroke-linecap="square"/>
<path opacity="0.3" d="M220.482 166.111L193.296 193.296" stroke="#FEB81E" stroke-width="3.5" stroke-linecap="square"/>
<path opacity="0.34" d="M247.667 166.111L220.481 193.296" stroke="#FEB81E" stroke-width="3.5" stroke-linecap="square"/>
<path opacity="0.37" d="M274.852 166.111L247.667 193.296" stroke="#FEB81E" stroke-width="3.5" stroke-linecap="square"/>
<path opacity="0.41" d="M274.852 166.111L302.037 193.296" stroke="#FEB81E" stroke-width="3.5" stroke-linecap="square"/>
<path opacity="0.45" d="M302.037 166.111L329.222 193.296" stroke="#FEB81E" stroke-width="3.5" stroke-linecap="square"/>
<path opacity="0.48" d="M329.222 166.111L356.407 193.296" stroke="#FEB81E" stroke-width="3.5" stroke-linecap="square"/>
<path opacity="0.52" d="M356.407 166.111L383.592 193.296" stroke="#FEB81E" stroke-width="3.5" stroke-linecap="square"/>
<path opacity="0.56" d="M410.778 166.111L383.593 193.296" stroke="#FEB81E" stroke-width="3.5" stroke-linecap="square"/>
<path opacity="0.59" d="M410.778 166.111L437.963 193.296" stroke="#FEB81E" stroke-width="3.5" stroke-linecap="square"/>
<path opacity="0.63" d="M465.148 166.111L437.963 193.296" stroke="#FEB81E" stroke-width="3.5" stroke-linecap="square"/>
<path opacity="0.66" d="M492.333 166.111L465.148 193.296" stroke="#FEB81E" stroke-width="3.5" stroke-linecap="square"/>
<path opacity="0.7" d="M519.519 166.111L492.333 193.296" stroke="#FEB81E" stroke-width="3.5" stroke-linecap="square"/>
<path opacity="0.74" d="M519.519 166.111L546.704 193.296" stroke="#FEB81E" stroke-width="3.5" stroke-linecap="square"/>
<path opacity="0.77" d="M546.704 166.111L573.889 193.296" stroke="#FEB81E" stroke-width="3.5" stroke-linecap="square"/>
<path opacity="0.81" d="M573.889 166.111L601.074 193.296" stroke="#FEB81E" stroke-width="3.5" stroke-linecap="square"/>
<path opacity="0.84" d="M628.259 166.111L601.074 193.296" stroke="#FEB81E" stroke-width="3.5" stroke-linecap="square"/>
<path opacity="0.88" d="M628.259 166.111L655.444 193.296" stroke="#FEB81E" stroke-width="3.5" stroke-linecap="square"/>
<path opacity="0.92" d="M655.444 166.111L682.63 193.296" stroke="#FEB81E" stroke-width="3.5" stroke-linecap="square"/>
<path opacity="0.95" d="M709.815 166.111L682.629 193.296" stroke="#FEB81E" stroke-width="3.5" stroke-linecap="square"/>
<path opacity="0.99" d="M737 166.111L709.815 193.296" stroke="#FEB81E" stroke-width="3.5" stroke-linecap="square"/>
<path opacity="0.05" d="M3 193.296L30.1852 220.481" stroke="#FEB81E" stroke-width="3.5" stroke-linecap="square"/>
<path opacity="0.09" d="M30.1851 193.296L57.3702 220.481" stroke="#FEB81E" stroke-width="3.5" stroke-linecap="square"/>
<path opacity="0.12" d="M84.5558 193.296L57.3706 220.481" stroke="#FEB81E" stroke-width="3.5" stroke-linecap="square"/>
<path opacity="0.16" d="M84.5557 193.296L111.741 220.481" stroke="#FEB81E" stroke-width="3.5" stroke-linecap="square"/>
<path opacity="0.19" d="M138.926 193.296L111.74 220.481" stroke="#FEB81E" stroke-width="3.5" stroke-linecap="square"/>
<path opacity="0.23" d="M166.111 193.296L138.926 220.481" stroke="#FEB81E" stroke-width="3.5" stroke-linecap="square"/>
<path opacity="0.27" d="M166.111 193.296L193.296 220.481" stroke="#FEB81E" stroke-width="3.5" stroke-linecap="square"/>
<path opacity="0.3" d="M193.296 193.296L220.482 220.481" stroke="#FEB81E" stroke-width="3.5" stroke-linecap="square"/>
<path opacity="0.34" d="M247.667 193.296L220.481 220.481" stroke="#FEB81E" stroke-width="3.5" stroke-linecap="square"/>
<path opacity="0.37" d="M247.667 193.296L274.852 220.481" stroke="#FEB81E" stroke-width="3.5" stroke-linecap="square"/>
<path opacity="0.41" d="M302.037 193.296L274.852 220.481" stroke="#FEB81E" stroke-width="3.5" stroke-linecap="square"/>
<path opacity="0.45" d="M302.037 193.296L329.222 220.481" stroke="#FEB81E" stroke-width="3.5" stroke-linecap="square"/>
<path opacity="0.48" d="M356.407 193.296L329.222 220.481" stroke="#FEB81E" stroke-width="3.5" stroke-linecap="square"/>
<path opacity="0.52" d="M356.407 193.296L383.592 220.481" stroke="#FEB81E" stroke-width="3.5" stroke-linecap="square"/>
<path opacity="0.56" d="M383.593 193.296L410.778 220.481" stroke="#FEB81E" stroke-width="3.5" stroke-linecap="square"/>
<path opacity="0.59" d="M410.778 193.296L437.963 220.481" stroke="#FEB81E" stroke-width="3.5" stroke-linecap="square"/>
<path opacity="0.63" d="M437.963 193.296L465.148 220.481" stroke="#FEB81E" stroke-width="3.5" stroke-linecap="square"/>
<path opacity="0.66" d="M465.148 193.296L492.333 220.481" stroke="#FEB81E" stroke-width="3.5" stroke-linecap="square"/>
<path opacity="0.7" d="M492.333 193.296L519.519 220.481" stroke="#FEB81E" stroke-width="3.5" stroke-linecap="square"/>
<path opacity="0.74" d="M546.704 193.296L519.519 220.481" stroke="#FEB81E" stroke-width="3.5" stroke-linecap="square"/>
<path opacity="0.77" d="M546.704 193.296L573.889 220.481" stroke="#FEB81E" stroke-width="3.5" stroke-linecap="square"/>
<path opacity="0.81" d="M601.074 193.296L573.889 220.481" stroke="#FEB81E" stroke-width="3.5" stroke-linecap="square"/>
<path opacity="0.84" d="M601.074 193.296L628.259 220.481" stroke="#FEB81E" stroke-width="3.5" stroke-linecap="square"/>
<path opacity="0.88" d="M628.259 193.296L655.444 220.481" stroke="#FEB81E" stroke-width="3.5" stroke-linecap="square"/>
<path opacity="0.92" d="M655.444 193.296L682.63 220.481" stroke="#FEB81E" stroke-width="3.5" stroke-linecap="square"/>
<path opacity="0.95" d="M709.815 193.296L682.629 220.481" stroke="#FEB81E" stroke-width="3.5" stroke-linecap="square"/>
<path opacity="0.99" d="M737 193.296L709.815 220.481" stroke="#FEB81E" stroke-width="3.5" stroke-linecap="square"/>
<path opacity="0.05" d="M3 220.482L30.1852 247.667" stroke="#FEB81E" stroke-width="3.5" stroke-linecap="square"/>
<path opacity="0.09" d="M30.1851 220.482L57.3702 247.667" stroke="#FEB81E" stroke-width="3.5" stroke-linecap="square"/>
<path opacity="0.12" d="M84.5558 220.482L57.3706 247.667" stroke="#FEB81E" stroke-width="3.5" stroke-linecap="square"/>
<path opacity="0.16" d="M84.5557 220.482L111.741 247.667" stroke="#FEB81E" stroke-width="3.5" stroke-linecap="square"/>
<path opacity="0.19" d="M111.74 220.482L138.926 247.667" stroke="#FEB81E" stroke-width="3.5" stroke-linecap="square"/>
<path opacity="0.23" d="M166.111 220.482L138.926 247.667" stroke="#FEB81E" stroke-width="3.5" stroke-linecap="square"/>
<path opacity="0.27" d="M193.296 220.482L166.111 247.667" stroke="#FEB81E" stroke-width="3.5" stroke-linecap="square"/>
<path opacity="0.3" d="M193.296 220.482L220.482 247.667" stroke="#FEB81E" stroke-width="3.5" stroke-linecap="square"/>
<path opacity="0.34" d="M220.481 220.482L247.667 247.667" stroke="#FEB81E" stroke-width="3.5" stroke-linecap="square"/>
<path opacity="0.37" d="M274.852 220.482L247.667 247.667" stroke="#FEB81E" stroke-width="3.5" stroke-linecap="square"/>
<path opacity="0.41" d="M302.037 220.482L274.852 247.667" stroke="#FEB81E" stroke-width="3.5" stroke-linecap="square"/>
<path opacity="0.45" d="M302.037 220.482L329.222 247.667" stroke="#FEB81E" stroke-width="3.5" stroke-linecap="square"/>
<path opacity="0.48" d="M356.407 220.482L329.222 247.667" stroke="#FEB81E" stroke-width="3.5" stroke-linecap="square"/>
<path opacity="0.52" d="M356.407 220.482L383.592 247.667" stroke="#FEB81E" stroke-width="3.5" stroke-linecap="square"/>
<path opacity="0.56" d="M410.778 220.482L383.593 247.667" stroke="#FEB81E" stroke-width="3.5" stroke-linecap="square"/>
<path opacity="0.59" d="M410.778 220.482L437.963 247.667" stroke="#FEB81E" stroke-width="3.5" stroke-linecap="square"/>
<path opacity="0.63" d="M437.963 220.482L465.148 247.667" stroke="#FEB81E" stroke-width="3.5" stroke-linecap="square"/>
<path opacity="0.66" d="M492.333 220.482L465.148 247.667" stroke="#FEB81E" stroke-width="3.5" stroke-linecap="square"/>
<path opacity="0.7" d="M492.333 220.482L519.519 247.667" stroke="#FEB81E" stroke-width="3.5" stroke-linecap="square"/>
<path opacity="0.74" d="M546.704 220.482L519.519 247.667" stroke="#FEB81E" stroke-width="3.5" stroke-linecap="square"/>
<path opacity="0.77" d="M546.704 220.482L573.889 247.667" stroke="#FEB81E" stroke-width="3.5" stroke-linecap="square"/>
<path opacity="0.81" d="M573.889 220.482L601.074 247.667" stroke="#FEB81E" stroke-width="3.5" stroke-linecap="square"/>
<path opacity="0.84" d="M601.074 220.482L628.259 247.667" stroke="#FEB81E" stroke-width="3.5" stroke-linecap="square"/>
<path opacity="0.88" d="M628.259 220.482L655.444 247.667" stroke="#FEB81E" stroke-width="3.5" stroke-linecap="square"/>
<path opacity="0.92" d="M682.63 220.482L655.444 247.667" stroke="#FEB81E" stroke-width="3.5" stroke-linecap="square"/>
<path opacity="0.95" d="M682.629 220.482L709.815 247.667" stroke="#FEB81E" stroke-width="3.5" stroke-linecap="square"/>
<path opacity="0.99" d="M709.815 220.482L737 247.667" stroke="#FEB81E" stroke-width="3.5" stroke-linecap="square"/>
<path opacity="0.05" d="M30.1852 247.667L3 274.852" stroke="#FEB81E" stroke-width="3.5" stroke-linecap="square"/>
<path opacity="0.09" d="M30.1851 247.667L57.3702 274.852" stroke="#FEB81E" stroke-width="3.5" stroke-linecap="square"/>
<path opacity="0.12" d="M57.3706 247.667L84.5558 274.852" stroke="#FEB81E" stroke-width="3.5" stroke-linecap="square"/>
<path opacity="0.16" d="M111.741 247.667L84.5557 274.852" stroke="#FEB81E" stroke-width="3.5" stroke-linecap="square"/>
<path opacity="0.19" d="M138.926 247.667L111.74 274.852" stroke="#FEB81E" stroke-width="3.5" stroke-linecap="square"/>
<path opacity="0.23" d="M138.926 247.667L166.111 274.852" stroke="#FEB81E" stroke-width="3.5" stroke-linecap="square"/>
<path opacity="0.27" d="M166.111 247.667L193.296 274.852" stroke="#FEB81E" stroke-width="3.5" stroke-linecap="square"/>
<path opacity="0.3" d="M193.296 247.667L220.482 274.852" stroke="#FEB81E" stroke-width="3.5" stroke-linecap="square"/>
<path opacity="0.34" d="M220.481 247.667L247.667 274.852" stroke="#FEB81E" stroke-width="3.5" stroke-linecap="square"/>
<path opacity="0.37" d="M247.667 247.667L274.852 274.852" stroke="#FEB81E" stroke-width="3.5" stroke-linecap="square"/>
<path opacity="0.41" d="M274.852 247.667L302.037 274.852" stroke="#FEB81E" stroke-width="3.5" stroke-linecap="square"/>
<path opacity="0.45" d="M329.222 247.667L302.037 274.852" stroke="#FEB81E" stroke-width="3.5" stroke-linecap="square"/>
<path opacity="0.48" d="M329.222 247.667L356.407 274.852" stroke="#FEB81E" stroke-width="3.5" stroke-linecap="square"/>
<path opacity="0.52" d="M356.407 247.667L383.592 274.852" stroke="#FEB81E" stroke-width="3.5" stroke-linecap="square"/>
<path opacity="0.56" d="M383.593 247.667L410.778 274.852" stroke="#FEB81E" stroke-width="3.5" stroke-linecap="square"/>
<path opacity="0.59" d="M410.778 247.667L437.963 274.852" stroke="#FEB81E" stroke-width="3.5" stroke-linecap="square"/>
<path opacity="0.63" d="M465.148 247.667L437.963 274.852" stroke="#FEB81E" stroke-width="3.5" stroke-linecap="square"/>
<path opacity="0.66" d="M465.148 247.667L492.333 274.852" stroke="#FEB81E" stroke-width="3.5" stroke-linecap="square"/>
<path opacity="0.7" d="M519.519 247.667L492.333 274.852" stroke="#FEB81E" stroke-width="3.5" stroke-linecap="square"/>
<path opacity="0.74" d="M546.704 247.667L519.519 274.852" stroke="#FEB81E" stroke-width="3.5" stroke-linecap="square"/>
<path opacity="0.77" d="M546.704 247.667L573.889 274.852" stroke="#FEB81E" stroke-width="3.5" stroke-linecap="square"/>
<path opacity="0.81" d="M601.074 247.667L573.889 274.852" stroke="#FEB81E" stroke-width="3.5" stroke-linecap="square"/>
<path opacity="0.84" d="M601.074 247.667L628.259 274.852" stroke="#FEB81E" stroke-width="3.5" stroke-linecap="square"/>
<path opacity="0.88" d="M628.259 247.667L655.444 274.852" stroke="#FEB81E" stroke-width="3.5" stroke-linecap="square"/>
<path opacity="0.92" d="M655.444 247.667L682.63 274.852" stroke="#FEB81E" stroke-width="3.5" stroke-linecap="square"/>
<path opacity="0.95" d="M682.629 247.667L709.815 274.852" stroke="#FEB81E" stroke-width="3.5" stroke-linecap="square"/>
<path opacity="0.99" d="M737 247.667L709.815 274.852" stroke="#FEB81E" stroke-width="3.5" stroke-linecap="square"/>
<path opacity="0.05" d="M30.1852 274.852L3 302.037" stroke="#FEB81E" stroke-width="3.5" stroke-linecap="square"/>
<path opacity="0.09" d="M57.3702 274.852L30.1851 302.037" stroke="#FEB81E" stroke-width="3.5" stroke-linecap="square"/>
<path opacity="0.12" d="M57.3706 274.852L84.5558 302.037" stroke="#FEB81E" stroke-width="3.5" stroke-linecap="square"/>
<path opacity="0.16" d="M84.5557 274.852L111.741 302.037" stroke="#FEB81E" stroke-width="3.5" stroke-linecap="square"/>
<path opacity="0.19" d="M138.926 274.852L111.74 302.037" stroke="#FEB81E" stroke-width="3.5" stroke-linecap="square"/>
<path opacity="0.23" d="M138.926 274.852L166.111 302.037" stroke="#FEB81E" stroke-width="3.5" stroke-linecap="square"/>
<path opacity="0.27" d="M166.111 274.852L193.296 302.037" stroke="#FEB81E" stroke-width="3.5" stroke-linecap="square"/>
<path opacity="0.3" d="M193.296 274.852L220.482 302.037" stroke="#FEB81E" stroke-width="3.5" stroke-linecap="square"/>
<path opacity="0.34" d="M247.667 274.852L220.481 302.037" stroke="#FEB81E" stroke-width="3.5" stroke-linecap="square"/>
<path opacity="0.37" d="M247.667 274.852L274.852 302.037" stroke="#FEB81E" stroke-width="3.5" stroke-linecap="square"/>
<path opacity="0.41" d="M274.852 274.852L302.037 302.037" stroke="#FEB81E" stroke-width="3.5" stroke-linecap="square"/>
<path opacity="0.45" d="M329.222 274.852L302.037 302.037" stroke="#FEB81E" stroke-width="3.5" stroke-linecap="square"/>
<path opacity="0.48" d="M329.222 274.852L356.407 302.037" stroke="#FEB81E" stroke-width="3.5" stroke-linecap="square"/>
<path opacity="0.52" d="M356.407 274.852L383.592 302.037" stroke="#FEB81E" stroke-width="3.5" stroke-linecap="square"/>
<path opacity="0.56" d="M410.778 274.852L383.593 302.037" stroke="#FEB81E" stroke-width="3.5" stroke-linecap="square"/>
<path opacity="0.59" d="M410.778 274.852L437.963 302.037" stroke="#FEB81E" stroke-width="3.5" stroke-linecap="square"/>
<path opacity="0.63" d="M437.963 274.852L465.148 302.037" stroke="#FEB81E" stroke-width="3.5" stroke-linecap="square"/>
<path opacity="0.66" d="M465.148 274.852L492.333 302.037" stroke="#FEB81E" stroke-width="3.5" stroke-linecap="square"/>
<path opacity="0.7" d="M492.333 274.852L519.519 302.037" stroke="#FEB81E" stroke-width="3.5" stroke-linecap="square"/>
<path opacity="0.74" d="M519.519 274.852L546.704 302.037" stroke="#FEB81E" stroke-width="3.5" stroke-linecap="square"/>
<path opacity="0.77" d="M546.704 274.852L573.889 302.037" stroke="#FEB81E" stroke-width="3.5" stroke-linecap="square"/>
<path opacity="0.81" d="M601.074 274.852L573.889 302.037" stroke="#FEB81E" stroke-width="3.5" stroke-linecap="square"/>
<path opacity="0.84" d="M628.259 274.852L601.074 302.037" stroke="#FEB81E" stroke-width="3.5" stroke-linecap="square"/>
<path opacity="0.88" d="M628.259 274.852L655.444 302.037" stroke="#FEB81E" stroke-width="3.5" stroke-linecap="square"/>
<path opacity="0.92" d="M655.444 274.852L682.63 302.037" stroke="#FEB81E" stroke-width="3.5" stroke-linecap="square"/>
<path opacity="0.95" d="M709.815 274.852L682.629 302.037" stroke="#FEB81E" stroke-width="3.5" stroke-linecap="square"/>
<path opacity="0.99" d="M709.815 274.852L737 302.037" stroke="#FEB81E" stroke-width="3.5" stroke-linecap="square"/>
<path opacity="0.05" d="M30.1852 302.037L3 329.222" stroke="#FEB81E" stroke-width="3.5" stroke-linecap="square"/>
<path opacity="0.09" d="M30.1851 302.037L57.3702 329.222" stroke="#FEB81E" stroke-width="3.5" stroke-linecap="square"/>
<path opacity="0.12" d="M84.5558 302.037L57.3706 329.222" stroke="#FEB81E" stroke-width="3.5" stroke-linecap="square"/>
<path opacity="0.16" d="M111.741 302.037L84.5557 329.222" stroke="#FEB81E" stroke-width="3.5" stroke-linecap="square"/>
<path opacity="0.19" d="M111.74 302.037L138.926 329.222" stroke="#FEB81E" stroke-width="3.5" stroke-linecap="square"/>
<path opacity="0.23" d="M166.111 302.037L138.926 329.222" stroke="#FEB81E" stroke-width="3.5" stroke-linecap="square"/>
<path opacity="0.27" d="M166.111 302.037L193.296 329.222" stroke="#FEB81E" stroke-width="3.5" stroke-linecap="square"/>
<path opacity="0.3" d="M193.296 302.037L220.482 329.222" stroke="#FEB81E" stroke-width="3.5" stroke-linecap="square"/>
<path opacity="0.34" d="M247.667 302.037L220.481 329.222" stroke="#FEB81E" stroke-width="3.5" stroke-linecap="square"/>
<path opacity="0.37" d="M247.667 302.037L274.852 329.222" stroke="#FEB81E" stroke-width="3.5" stroke-linecap="square"/>
<path opacity="0.41" d="M274.852 302.037L302.037 329.222" stroke="#FEB81E" stroke-width="3.5" stroke-linecap="square"/>
<path opacity="0.45" d="M329.222 302.037L302.037 329.222" stroke="#FEB81E" stroke-width="3.5" stroke-linecap="square"/>
<path opacity="0.48" d="M356.407 302.037L329.222 329.222" stroke="#FEB81E" stroke-width="3.5" stroke-linecap="square"/>
<path opacity="0.52" d="M356.407 302.037L383.592 329.222" stroke="#FEB81E" stroke-width="3.5" stroke-linecap="square"/>
<path opacity="0.56" d="M383.593 302.037L410.778 329.222" stroke="#FEB81E" stroke-width="3.5" stroke-linecap="square"/>
<path opacity="0.59" d="M410.778 302.037L437.963 329.222" stroke="#FEB81E" stroke-width="3.5" stroke-linecap="square"/>
<path opacity="0.63" d="M437.963 302.037L465.148 329.222" stroke="#FEB81E" stroke-width="3.5" stroke-linecap="square"/>
<path opacity="0.66" d="M492.333 302.037L465.148 329.222" stroke="#FEB81E" stroke-width="3.5" stroke-linecap="square"/>
<path opacity="0.7" d="M519.519 302.037L492.333 329.222" stroke="#FEB81E" stroke-width="3.5" stroke-linecap="square"/>
<path opacity="0.74" d="M519.519 302.037L546.704 329.222" stroke="#FEB81E" stroke-width="3.5" stroke-linecap="square"/>
<path opacity="0.77" d="M546.704 302.037L573.889 329.222" stroke="#FEB81E" stroke-width="3.5" stroke-linecap="square"/>
<path opacity="0.81" d="M573.889 302.037L601.074 329.222" stroke="#FEB81E" stroke-width="3.5" stroke-linecap="square"/>
<path opacity="0.84" d="M601.074 302.037L628.259 329.222" stroke="#FEB81E" stroke-width="3.5" stroke-linecap="square"/>
<path opacity="0.88" d="M655.444 302.037L628.259 329.222" stroke="#FEB81E" stroke-width="3.5" stroke-linecap="square"/>
<path opacity="0.92" d="M682.63 302.037L655.444 329.222" stroke="#FEB81E" stroke-width="3.5" stroke-linecap="square"/>
<path opacity="0.95" d="M709.815 302.037L682.629 329.222" stroke="#FEB81E" stroke-width="3.5" stroke-linecap="square"/>
<path opacity="0.99" d="M709.815 302.037L737 329.222" stroke="#FEB81E" stroke-width="3.5" stroke-linecap="square"/>
<path opacity="0.05" d="M30.1852 329.222L3 356.407" stroke="#FEB81E" stroke-width="3.5" stroke-linecap="square"/>
<path opacity="0.09" d="M57.3702 329.222L30.1851 356.407" stroke="#FEB81E" stroke-width="3.5" stroke-linecap="square"/>
<path opacity="0.12" d="M84.5558 329.222L57.3706 356.407" stroke="#FEB81E" stroke-width="3.5" stroke-linecap="square"/>
<path opacity="0.16" d="M84.5557 329.222L111.741 356.407" stroke="#FEB81E" stroke-width="3.5" stroke-linecap="square"/>
<path opacity="0.19" d="M138.926 329.222L111.74 356.407" stroke="#FEB81E" stroke-width="3.5" stroke-linecap="square"/>
<path opacity="0.23" d="M138.926 329.222L166.111 356.407" stroke="#FEB81E" stroke-width="3.5" stroke-linecap="square"/>
<path opacity="0.27" d="M166.111 329.222L193.296 356.407" stroke="#FEB81E" stroke-width="3.5" stroke-linecap="square"/>
<path opacity="0.3" d="M220.482 329.222L193.296 356.407" stroke="#FEB81E" stroke-width="3.5" stroke-linecap="square"/>
<path opacity="0.34" d="M220.481 329.222L247.667 356.407" stroke="#FEB81E" stroke-width="3.5" stroke-linecap="square"/>
<path opacity="0.37" d="M274.852 329.222L247.667 356.407" stroke="#FEB81E" stroke-width="3.5" stroke-linecap="square"/>
<path opacity="0.41" d="M302.037 329.222L274.852 356.407" stroke="#FEB81E" stroke-width="3.5" stroke-linecap="square"/>
<path opacity="0.45" d="M302.037 329.222L329.222 356.407" stroke="#FEB81E" stroke-width="3.5" stroke-linecap="square"/>
<path opacity="0.48" d="M329.222 329.222L356.407 356.407" stroke="#FEB81E" stroke-width="3.5" stroke-linecap="square"/>
<path opacity="0.52" d="M356.407 329.222L383.592 356.407" stroke="#FEB81E" stroke-width="3.5" stroke-linecap="square"/>
<path opacity="0.56" d="M410.778 329.222L383.593 356.407" stroke="#FEB81E" stroke-width="3.5" stroke-linecap="square"/>
<path opacity="0.59" d="M410.778 329.222L437.963 356.407" stroke="#FEB81E" stroke-width="3.5" stroke-linecap="square"/>
<path opacity="0.63" d="M465.148 329.222L437.963 356.407" stroke="#FEB81E" stroke-width="3.5" stroke-linecap="square"/>
<path opacity="0.66" d="M492.333 329.222L465.148 356.407" stroke="#FEB81E" stroke-width="3.5" stroke-linecap="square"/>
<path opacity="0.7" d="M492.333 329.222L519.519 356.407" stroke="#FEB81E" stroke-width="3.5" stroke-linecap="square"/>
<path opacity="0.74" d="M546.704 329.222L519.519 356.407" stroke="#FEB81E" stroke-width="3.5" stroke-linecap="square"/>
<path opacity="0.77" d="M573.889 329.222L546.704 356.407" stroke="#FEB81E" stroke-width="3.5" stroke-linecap="square"/>
<path opacity="0.81" d="M573.889 329.222L601.074 356.407" stroke="#FEB81E" stroke-width="3.5" stroke-linecap="square"/>
<path opacity="0.84" d="M628.259 329.222L601.074 356.407" stroke="#FEB81E" stroke-width="3.5" stroke-linecap="square"/>
<path opacity="0.88" d="M655.444 329.222L628.259 356.407" stroke="#FEB81E" stroke-width="3.5" stroke-linecap="square"/>
<path opacity="0.92" d="M682.63 329.222L655.444 356.407" stroke="#FEB81E" stroke-width="3.5" stroke-linecap="square"/>
<path opacity="0.95" d="M709.815 329.222L682.629 356.407" stroke="#FEB81E" stroke-width="3.5" stroke-linecap="square"/>
<path opacity="0.99" d="M737 329.222L709.815 356.407" stroke="#FEB81E" stroke-width="3.5" stroke-linecap="square"/>
<path opacity="0.05" d="M30.1852 356.407L3 383.593" stroke="#FEB81E" stroke-width="3.5" stroke-linecap="square"/>
<path opacity="0.09" d="M30.1851 356.407L57.3702 383.593" stroke="#FEB81E" stroke-width="3.5" stroke-linecap="square"/>
<path opacity="0.12" d="M57.3706 356.407L84.5558 383.593" stroke="#FEB81E" stroke-width="3.5" stroke-linecap="square"/>
<path opacity="0.16" d="M84.5557 356.407L111.741 383.593" stroke="#FEB81E" stroke-width="3.5" stroke-linecap="square"/>
<path opacity="0.19" d="M111.74 356.407L138.926 383.593" stroke="#FEB81E" stroke-width="3.5" stroke-linecap="square"/>
<path opacity="0.23" d="M138.926 356.407L166.111 383.593" stroke="#FEB81E" stroke-width="3.5" stroke-linecap="square"/>
<path opacity="0.27" d="M193.296 356.407L166.111 383.593" stroke="#FEB81E" stroke-width="3.5" stroke-linecap="square"/>
<path opacity="0.3" d="M193.296 356.407L220.482 383.593" stroke="#FEB81E" stroke-width="3.5" stroke-linecap="square"/>
<path opacity="0.34" d="M220.481 356.407L247.667 383.593" stroke="#FEB81E" stroke-width="3.5" stroke-linecap="square"/>
<path opacity="0.37" d="M247.667 356.407L274.852 383.593" stroke="#FEB81E" stroke-width="3.5" stroke-linecap="square"/>
<path opacity="0.41" d="M274.852 356.407L302.037 383.593" stroke="#FEB81E" stroke-width="3.5" stroke-linecap="square"/>
<path opacity="0.45" d="M302.037 356.407L329.222 383.593" stroke="#FEB81E" stroke-width="3.5" stroke-linecap="square"/>
<path opacity="0.48" d="M329.222 356.407L356.407 383.593" stroke="#FEB81E" stroke-width="3.5" stroke-linecap="square"/>
<path opacity="0.52" d="M383.592 356.407L356.407 383.593" stroke="#FEB81E" stroke-width="3.5" stroke-linecap="square"/>
<path opacity="0.56" d="M410.778 356.407L383.593 383.593" stroke="#FEB81E" stroke-width="3.5" stroke-linecap="square"/>
<path opacity="0.59" d="M437.963 356.407L410.778 383.593" stroke="#FEB81E" stroke-width="3.5" stroke-linecap="square"/>
<path opacity="0.63" d="M465.148 356.407L437.963 383.593" stroke="#FEB81E" stroke-width="3.5" stroke-linecap="square"/>
<path opacity="0.66" d="M492.333 356.407L465.148 383.593" stroke="#FEB81E" stroke-width="3.5" stroke-linecap="square"/>
<path opacity="0.7" d="M519.519 356.407L492.333 383.593" stroke="#FEB81E" stroke-width="3.5" stroke-linecap="square"/>
<path opacity="0.74" d="M546.704 356.407L519.519 383.593" stroke="#FEB81E" stroke-width="3.5" stroke-linecap="square"/>
<path opacity="0.77" d="M546.704 356.407L573.889 383.593" stroke="#FEB81E" stroke-width="3.5" stroke-linecap="square"/>
<path opacity="0.81" d="M601.074 356.407L573.889 383.593" stroke="#FEB81E" stroke-width="3.5" stroke-linecap="square"/>
<path opacity="0.84" d="M628.259 356.407L601.074 383.593" stroke="#FEB81E" stroke-width="3.5" stroke-linecap="square"/>
<path opacity="0.88" d="M628.259 356.407L655.444 383.593" stroke="#FEB81E" stroke-width="3.5" stroke-linecap="square"/>
<path opacity="0.92" d="M682.63 356.407L655.444 383.593" stroke="#FEB81E" stroke-width="3.5" stroke-linecap="square"/>
<path opacity="0.95" d="M682.629 356.407L709.815 383.593" stroke="#FEB81E" stroke-width="3.5" stroke-linecap="square"/>
<path opacity="0.99" d="M709.815 356.407L737 383.593" stroke="#FEB81E" stroke-width="3.5" stroke-linecap="square"/>
<path opacity="0.05" d="M30.1852 383.593L3 410.778" stroke="#FEB81E" stroke-width="3.5" stroke-linecap="square"/>
<path opacity="0.09" d="M30.1851 383.593L57.3702 410.778" stroke="#FEB81E" stroke-width="3.5" stroke-linecap="square"/>
<path opacity="0.12" d="M57.3706 383.593L84.5558 410.778" stroke="#FEB81E" stroke-width="3.5" stroke-linecap="square"/>
<path opacity="0.16" d="M111.741 383.593L84.5557 410.778" stroke="#FEB81E" stroke-width="3.5" stroke-linecap="square"/>
<path opacity="0.19" d="M138.926 383.593L111.74 410.778" stroke="#FEB81E" stroke-width="3.5" stroke-linecap="square"/>
<path opacity="0.23" d="M138.926 383.593L166.111 410.778" stroke="#FEB81E" stroke-width="3.5" stroke-linecap="square"/>
<path opacity="0.27" d="M193.296 383.593L166.111 410.778" stroke="#FEB81E" stroke-width="3.5" stroke-linecap="square"/>
<path opacity="0.3" d="M220.482 383.593L193.296 410.778" stroke="#FEB81E" stroke-width="3.5" stroke-linecap="square"/>
<path opacity="0.34" d="M247.667 383.593L220.481 410.778" stroke="#FEB81E" stroke-width="3.5" stroke-linecap="square"/>
<path opacity="0.37" d="M247.667 383.593L274.852 410.778" stroke="#FEB81E" stroke-width="3.5" stroke-linecap="square"/>
<path opacity="0.41" d="M274.852 383.593L302.037 410.778" stroke="#FEB81E" stroke-width="3.5" stroke-linecap="square"/>
<path opacity="0.45" d="M302.037 383.593L329.222 410.778" stroke="#FEB81E" stroke-width="3.5" stroke-linecap="square"/>
<path opacity="0.48" d="M356.407 383.593L329.222 410.778" stroke="#FEB81E" stroke-width="3.5" stroke-linecap="square"/>
<path opacity="0.52" d="M356.407 383.593L383.592 410.778" stroke="#FEB81E" stroke-width="3.5" stroke-linecap="square"/>
<path opacity="0.56" d="M410.778 383.593L383.593 410.778" stroke="#FEB81E" stroke-width="3.5" stroke-linecap="square"/>
<path opacity="0.59" d="M437.963 383.593L410.778 410.778" stroke="#FEB81E" stroke-width="3.5" stroke-linecap="square"/>
<path opacity="0.63" d="M437.963 383.593L465.148 410.778" stroke="#FEB81E" stroke-width="3.5" stroke-linecap="square"/>
<path opacity="0.66" d="M465.148 383.593L492.333 410.778" stroke="#FEB81E" stroke-width="3.5" stroke-linecap="square"/>
<path opacity="0.7" d="M492.333 383.593L519.519 410.778" stroke="#FEB81E" stroke-width="3.5" stroke-linecap="square"/>
<path opacity="0.74" d="M546.704 383.593L519.519 410.778" stroke="#FEB81E" stroke-width="3.5" stroke-linecap="square"/>
<path opacity="0.77" d="M546.704 383.593L573.889 410.778" stroke="#FEB81E" stroke-width="3.5" stroke-linecap="square"/>
<path opacity="0.81" d="M573.889 383.593L601.074 410.778" stroke="#FEB81E" stroke-width="3.5" stroke-linecap="square"/>
<path opacity="0.84" d="M628.259 383.593L601.074 410.778" stroke="#FEB81E" stroke-width="3.5" stroke-linecap="square"/>
<path opacity="0.88" d="M655.444 383.593L628.259 410.778" stroke="#FEB81E" stroke-width="3.5" stroke-linecap="square"/>
<path opacity="0.92" d="M682.63 383.593L655.444 410.778" stroke="#FEB81E" stroke-width="3.5" stroke-linecap="square"/>
<path opacity="0.95" d="M709.815 383.593L682.629 410.778" stroke="#FEB81E" stroke-width="3.5" stroke-linecap="square"/>
<path opacity="0.99" d="M737 383.593L709.815 410.778" stroke="#FEB81E" stroke-width="3.5" stroke-linecap="square"/>
</svg>
