<?xml version="1.0" encoding="UTF-8"?>
<svg xmlns="http://www.w3.org/2000/svg" data-name="Ebene 1" viewBox="0 0 1600 1067" width="2400" height="1600.5">
    <defs>
        <clipPath id="a">
            <path fill="none" d="M0 0h1600v1067H0z" />
        </clipPath>
        <clipPath id="b">
            <path fill="none" d="M548.29 434.67h503.41v197.66H548.29z" />
        </clipPath>
    </defs>
    <g clip-path="url(#a)">
        <g clip-path="url(#b)">
            <path
                d="M676.77 456.85l8 31 9.32-31h12.49l9.32 31 8-31h15l-16 52.45h-13.27l-9.32-31.82L691 509.3h-13.27l-16-52.45zm68.51 31.91v-31.91h14.89v30.95c0 7.52 2.69 10.12 8 10.12s8-2.6 8-10.12v-30.95H791v31.91c0 15-9.61 21.79-22.87 21.79s-22.87-6.75-22.87-21.79m2.4-46a8.27 8.27 0 1 1 8.27 8.1 7.89 7.89 0 0 1-8.27-8.1m24.41 0a8.27 8.27 0 1 1 8.26 8.1 7.89 7.89 0 0 1-8.26-8.1M817 456.85v5.69a13 13 0 0 1 11.82-7 24.51 24.51 0 0 1 5.86.78v14a24.94 24.94 0 0 0-7.21-1.26c-5 0-8 2.32-9.41 5.59v34.65h-14.9v-52.45zm29.11 0v-14.08H861v14.08h10.66V469H861v22.27c0 5.2 2.11 6.65 5 6.65a15.49 15.49 0 0 0 6.73-1.93v12.44a30.94 30.94 0 0 1-11.14 2.12c-10.09 0-15.48-4.82-15.48-15.23V469h-6.34v-12.15zm39.3 0v-14.08h14.9v14.08h10.66V469h-10.7v22.27c0 5.2 2.11 6.65 5 6.65A15.49 15.49 0 0 0 912 496v12.44a30.94 30.94 0 0 1-11.14 2.12c-10.09 0-15.48-4.82-15.48-15.23V469H879v-12.15zm32.87 26.8c0-15.33 8.26-28.06 24-28.06 14.22 0 23 10.13 23 26.61a47.74 47.74 0 0 1-.29 5.21h-31.86c.19 6.56 3.56 10.51 10.28 10.51a15.45 15.45 0 0 0 11.15-5.4l8.65 9.74a26.54 26.54 0 0 1-19.8 8.29c-16.33 0-25.17-10.32-25.17-26.9m32.57-6.94c-.19-5.5-2.88-9-8.65-9-5.09 0-8.55 3-9 9zm86 2.12c0-7.52-2.69-10.61-8-10.61a9.3 9.3 0 0 0-8.26 5c.1 1.35.19 2.7.19 4.14v31.94h-14.89v-30.47c0-7.52-2.69-10.61-8-10.61a8.91 8.91 0 0 0-8.08 5.11v36h-14.84v-52.48h13.84v4.91c3.17-3.95 8-6.17 13.74-6.17 7.59 0 12.49 2.32 15.28 7a20.32 20.32 0 0 1 15.47-7c13.26 0 18.44 6.75 18.44 21.79v31.92h-14.89zm-468 132.1v4.43H555v-69.23h14.9v20.73c2.4-2.79 6.44-5.2 12.49-5.2 11.05 0 20.76 9.06 20.76 27.47s-9.71 27.48-20.76 27.48c-5.77 0-10.95-2.5-13.55-5.68m19.22-21.8c0-9.54-4.13-14.84-9.51-14.84a10.37 10.37 0 0 0-8.65 4.34v21a10.37 10.37 0 0 0 8.65 4.34c5.38 0 9.51-5.3 9.51-14.85m22.87.58c0-15.33 8.26-28.05 24-28.05 14.22 0 23 10.12 23 26.61a47.68 47.68 0 0 1-.28 5.2h-31.82C626 600 629.39 604 636.11 604a15.46 15.46 0 0 0 11.15-5.4l8.65 9.74a26.54 26.54 0 0 1-19.8 8.29c-16.33 0-25.17-10.31-25.17-26.9m32.57-6.94c-.19-5.49-2.88-9-8.65-9-5.09 0-8.55 3-9 9zm38-19.86v5.69a13 13 0 0 1 11.82-6.94 24.46 24.46 0 0 1 5.86.77v14a24.87 24.87 0 0 0-7.2-1.26c-5 0-8 2.32-9.42 5.6v34.61h-14.94v-52.49zm24.22 62.48l5.09-10.9a29.33 29.33 0 0 0 16.91 5.21c6.44 0 9-3.09 9-9.06v-3.48c-2.41 2.8-6.25 4.63-12.3 4.63-11 0-20.57-7.81-20.57-25.07s9.52-25.06 20.57-25.06c5.76 0 10.76 2.5 13.35 5.68v-4.43h13.84v45.51c0 15.52-8.26 23.91-23.93 23.91a40.88 40.88 0 0 1-22-6.94m31-30.57v-16.21a9.71 9.71 0 0 0-8.27-4.34c-5.38 0-9.51 4.14-9.51 12.43s4.13 12.44 9.51 12.44a9.71 9.71 0 0 0 8.27-4.34M764 548.45a8.65 8.65 0 1 1 8.65 8.48 8.24 8.24 0 0 1-8.65-8.48m16.15 66.91h-14.9v-52.45h14.9zm9.22-5.5l5.19-11.66c5.38 3.66 11.34 6.17 17.39 6.17 3.36 0 5.48-1.45 5.48-3.86 0-2.12-1.16-3.18-4.33-4.14l-8.93-2.61c-7.4-2.12-13-7.42-13-15.13 0-9.36 6.44-17 20.47-17a35.61 35.61 0 0 1 19.8 6.46l-5.87 11c-5.38-3.47-10.57-5.21-14.5-5.21-3.56 0-4.81 1.64-4.81 3.28 0 1.35.48 2.7 3.17 3.47l8.94 2.6c8.84 2.61 14.12 8.2 14.12 16.1 0 10.23-7.49 17.26-20.18 17.26-9.41 0-17.77-3-23-6.75M865 561.66c9.61 0 15.57 3.85 21 11.57l-10.09 8.19c-3-4.63-5.58-7.13-10.38-7.13-7.4 0-10.47 6.84-10.47 14.84S858.08 604 865.48 604c4.8 0 7.4-2.5 10.38-7.13L886 605c-5.38 7.72-11.34 11.57-21 11.57-15.28 0-25.08-11.37-25.08-27.48s9.8-27.47 25.08-27.47m44.39-15.53v20.93c3.17-3.48 7.21-5.4 13-5.4 13.26 0 18.55 6.75 18.55 21.79v31.91H926v-30.43c0-7.52-3-10.6-8.27-10.6a9.34 9.34 0 0 0-8.36 5.11v36H894.5v-69.27zm41.22 43.58c0-15.33 8.26-28.05 24-28.05 14.22 0 23 10.12 23 26.61a47.7 47.7 0 0 1-.29 5.2H965.5c.2 6.56 3.56 10.51 10.29 10.51a15.44 15.44 0 0 0 11.14-5.4l8.65 9.74a26.54 26.54 0 0 1-19.79 8.29c-16.34 0-25.18-10.31-25.18-26.9m32.58-6.94c-.2-5.49-2.89-9-8.65-9-5.1 0-8.56 3-9 9z" />
        </g>
        <path fill="#fff" d="M548.29 435.29h85.04v85.04h-85.04z" />
        <g clip-path="url(#b)">
            <path fill="#f84914"
                d="M548.29 520.33h85v-85h-85zm41.63-17.24l3.8 4.3a3.93 3.93 0 0 1-3.07 2 2.84 2.84 0 0 1-3-2.43c-.25-1.59 1.15-2.92 2.28-3.88m-.94-5.91a2 2 0 0 1 1.61-2.17 1.78 1.78 0 0 1 2 1.51c.35 1.84-1.88 3.12-1.88 3.12s-1.67-1.06-1.73-2.46m32.57 12.12h-9.7l-4.4-19.29-4.18 19.29h-3.52l-2.39-2.62a19.26 19.26 0 0 0 1.64-4.61h-2.74a9.6 9.6 0 0 1-1 2.46l-2.76-3.13s3.42-2 2.73-5.34a4.57 4.57 0 1 0-8.9 2.11 5.83 5.83 0 0 0 1.74 2.77s-4.53 2.62-3.86 6.83a4.09 4.09 0 0 0 .6 1.53h-6.47L574 490l-4.19 19.29h-9.74l-7.15-28.67h8.85l4.06 19.66 4.39-19.66h7.67l4.47 19.62 4.08-19.62h8.79l4.06 19.66 4.38-19.66h7.68l4.46 19.62 4.06-19.62h8.81z" />
        </g>
    </g>
</svg>