<svg width="417" height="395" viewBox="0 0 417 395" fill="none" xmlns="http://www.w3.org/2000/svg">
<g clip-path="url(#clip0_710_857)">
<path d="M150.691 75.3097C150.701 87.4494 147.77 99.4109 142.15 110.173C136.529 120.934 128.386 130.176 118.416 137.109C115.608 139.074 112.667 140.842 109.615 142.4C108.602 142.92 107.582 143.413 106.543 143.881C105.607 144.309 104.666 144.712 103.711 145.095C91.8678 149.887 79.0029 151.603 66.3172 150.081C64.1218 149.821 61.9545 149.464 59.8152 149.009C59.7245 148.99 59.6268 148.97 59.5361 148.951C55.0561 148.004 50.6743 146.641 46.4477 144.88C33.8473 139.652 22.9033 131.103 14.7834 120.145C6.66346 109.187 1.67234 96.2308 0.342506 82.6594C-0.987326 69.0879 1.39404 55.4102 7.23253 43.0856C13.071 30.761 22.1476 20.2519 33.4937 12.6796C44.8399 5.10738 58.03 0.756051 71.6566 0.0899314C85.2832 -0.576188 98.8352 2.46789 110.866 8.89737C122.898 15.3269 132.957 24.9005 139.971 36.5968C146.985 48.2932 150.69 61.6733 150.691 75.3097Z" fill="#F1F1F1"/>
<path d="M89.2197 61.254C89.1547 61.1761 89.0833 61.1047 89.012 61.0333C84.9863 56.9705 79.5196 54.659 73.799 54.6006C68.0784 54.5423 62.5658 56.7418 58.4579 60.7217C58.4126 60.7606 58.3736 60.7996 58.3346 60.8385C58.2826 60.884 58.2372 60.9294 58.1915 60.9749C56.1686 62.9918 54.5638 65.3881 53.4693 68.0262C52.3748 70.6643 51.812 73.4925 51.8132 76.3484V89.9821C51.8144 90.7566 52.1227 91.499 52.6706 92.0466C53.2185 92.5943 53.9613 92.9024 54.7361 92.9036H92.409C93.1839 92.9024 93.9266 92.5943 94.4745 92.0466C95.0224 91.499 95.3308 90.7566 95.3319 89.9821V76.3484C95.3373 70.7137 93.1447 65.2988 89.2197 61.254Z" fill="#2F2E41"/>
<path d="M74.4456 92.7686C83.2563 92.7686 90.3988 85.6295 90.3988 76.823C90.3988 68.0165 83.2563 60.8774 74.4456 60.8774C65.6349 60.8774 58.4924 68.0165 58.4924 76.823C58.4924 85.6295 65.6349 92.7686 74.4456 92.7686Z" fill="#FFB7B7"/>
<path d="M91.214 75.4655L89.3304 62.3123C89.2722 61.9085 89.0662 61.5406 88.7522 61.28C88.6463 61.1951 88.5307 61.1232 88.4078 61.0657C78.7622 56.5537 68.9805 56.5537 59.3349 61.0528C59.2061 61.1122 59.0859 61.1887 58.9774 61.28C58.9387 61.3125 58.8997 61.3514 58.8607 61.3904C58.6029 61.6566 58.4426 62.002 58.4059 62.3707L57.1459 75.5434C57.1246 75.7686 57.1506 75.9958 57.2222 76.2105C57.2938 76.4251 57.4094 76.6225 57.5616 76.7899C57.807 77.0598 58.1367 77.2384 58.4969 77.2963C58.5845 77.3149 58.6738 77.3236 58.7633 77.3223H61.959C62.2679 77.3212 62.5703 77.2329 62.8312 77.0675C63.0921 76.9021 63.3008 76.6663 63.4334 76.3874L64.8169 73.4269C64.9054 73.235 65.0542 73.0773 65.2406 72.9777C65.4271 72.8781 65.641 72.8421 65.8498 72.8751C66.0586 72.9082 66.2509 73.0086 66.3974 73.1609C66.5439 73.3132 66.6366 73.5092 66.6614 73.7191L66.9342 75.9005C66.9848 76.2923 67.1761 76.6525 67.4724 76.914C67.7688 77.1755 68.15 77.3206 68.5453 77.3223H89.6095C89.8852 77.3236 90.1564 77.2519 90.3954 77.1146C90.5618 77.024 90.7112 76.9054 90.8372 76.764C90.9895 76.5872 91.1019 76.3797 91.1669 76.1557C91.2319 75.9316 91.248 75.6963 91.214 75.4655Z" fill="#2F2E41"/>
<path d="M113.896 121.982L118.416 137.109C115.608 139.074 112.667 140.842 109.615 142.4C108.602 142.92 107.582 143.413 106.543 143.881L101.86 123.813L100.041 116.029L111.733 114.73L113.896 121.982Z" fill="#FFB7B7"/>
<path d="M60.0948 119.47L59.7051 139.907L59.5363 148.951C55.0564 148.004 50.6746 146.641 46.448 144.88L48.0005 125.521L48.3903 120.638L60.0948 119.47Z" fill="#FFB7B7"/>
<path d="M113.896 121.982L102.152 123.742L102.295 125.67L103.711 145.095C91.8679 149.888 79.0031 151.603 66.3174 150.081C64.122 149.821 61.9547 149.464 59.8154 149.009C60.7767 144.971 61.6082 141.336 60.5819 140.621C60.2727 140.405 59.9796 140.166 59.705 139.907C54.9179 135.343 56.6847 125.04 56.6847 125.04L48.0004 125.521L44.9932 125.689C44.9932 125.689 46.2922 104.914 52.138 104.914H59.2829L93.7081 101.668C93.7081 101.668 103.451 98.422 106.049 102.967C107.413 105.349 109.842 110.4 111.85 114.672C113.668 118.554 115.143 121.794 115.143 121.794L113.896 121.982Z" fill="#2F2E41"/>
<path d="M416.996 76.1392C416.874 88.031 413.933 99.7244 408.413 110.26C402.894 120.795 394.954 129.872 385.244 136.746C385.076 136.862 384.9 136.986 384.725 137.109C384.543 137.239 384.355 137.369 384.166 137.492C383.075 138.245 381.962 138.966 380.828 139.654C379.23 140.628 377.595 141.543 375.924 142.4C375.872 142.426 375.813 142.452 375.761 142.478C374.8 142.972 373.83 143.439 372.852 143.881C372.819 143.894 372.793 143.907 372.761 143.919C372.533 144.023 372.293 144.134 372.059 144.231C370.247 145.036 368.396 145.77 366.512 146.419C364.908 146.984 363.279 147.49 361.628 147.938C358.249 148.87 354.809 149.56 351.332 150.003C348.368 150.384 345.384 150.588 342.395 150.613C342.148 150.62 341.901 150.619 341.654 150.619C340.024 150.619 338.4 150.568 336.796 150.464C335.393 150.373 334.003 150.249 332.626 150.081C330.502 149.827 328.404 149.49 326.338 149.048C326.248 149.035 326.157 149.016 326.066 148.996C325.994 148.983 325.916 148.964 325.845 148.951C323.766 148.516 321.72 147.984 319.713 147.373C317.823 146.802 315.968 146.157 314.147 145.439C313.679 145.257 313.218 145.075 312.757 144.88C311.607 144.4 310.47 143.9 309.353 143.361C309.028 143.212 308.71 143.056 308.392 142.9C307.314 142.374 306.249 141.823 305.209 141.238C303.955 140.544 302.724 139.814 301.513 139.05C299.987 138.09 298.493 137.077 297.044 136.006C284.175 126.555 274.643 113.262 269.823 98.045C265.003 82.828 265.144 66.4737 270.227 51.3423C275.31 36.2109 285.07 23.0847 298.101 13.858C311.132 4.63129 326.758 -0.218859 342.726 0.00745253C384.041 0.581073 417.441 34.842 416.996 76.1392Z" fill="#F1F1F1"/>
<path d="M325.845 148.951C323.766 148.516 321.72 147.984 319.713 147.373L326.605 104.661L333.743 104.44L346.688 104.031L353.326 103.824C353.326 103.824 358.036 124.508 361.627 147.938C358.249 148.87 354.809 149.56 351.332 150.003C348.368 150.384 345.383 150.588 342.395 150.613C342.148 150.62 341.901 150.62 341.654 150.62C340.024 150.62 338.4 150.568 336.796 150.464C335.393 150.373 334.003 150.249 332.626 150.081C330.502 149.827 328.404 149.49 326.338 149.048C326.247 149.035 326.156 149.016 326.065 148.996C325.994 148.983 325.916 148.964 325.845 148.951Z" fill="#CBCBCB"/>
<path d="M326.338 149.048C326.248 149.035 326.157 149.016 326.066 148.996C325.994 148.983 325.916 148.964 325.845 148.951C323.766 148.516 321.72 147.984 319.713 147.373C317.823 146.802 315.967 146.157 314.147 145.439C313.679 145.257 313.218 145.075 312.757 144.88C311.607 144.4 310.47 143.9 309.353 143.361C309.028 143.212 308.71 143.056 308.392 142.9L307.82 110.92L325.358 103.408C325.358 103.408 325.416 103.876 333.743 104.44C335.328 109.608 326.338 149.048 326.338 149.048Z" fill="#2F2E41"/>
<path d="M378.756 109.407L375.45 126.774L375.761 142.478C374.8 142.972 373.83 143.439 372.852 143.881C372.819 143.894 372.793 143.907 372.761 143.92C372.533 144.023 372.293 144.134 372.059 144.231C370.247 145.036 368.396 145.77 366.512 146.419C364.907 146.984 363.279 147.49 361.627 147.938C358.249 148.87 354.809 149.56 351.332 150.003C348.368 150.384 345.384 150.588 342.395 150.613L342.05 122.781C341.323 113.809 343.733 107.875 346.688 104.031C362.439 101.928 362.089 101.74 362.089 101.74L378.788 109.251L378.756 109.407Z" fill="#2F2E41"/>
<path d="M315.335 113.426L314.146 145.439C313.679 145.257 313.218 145.075 312.756 144.88C311.607 144.4 310.47 143.9 309.353 143.361C309.028 143.212 308.71 143.056 308.392 142.9C307.313 142.374 306.248 141.823 305.209 141.238C303.955 140.544 302.723 139.814 301.513 139.05L307.82 110.92L315.335 113.426Z" fill="#2F2E41"/>
<path d="M385.244 136.746C385.076 136.862 384.9 136.986 384.725 137.109C384.543 137.239 384.355 137.369 384.166 137.492C383.075 138.245 381.962 138.966 380.828 139.654C379.23 140.628 377.595 141.543 375.923 142.4C375.872 142.426 375.813 142.452 375.761 142.478C374.771 142.987 373.771 143.467 372.762 143.921L372.76 143.92L371.572 111.796L378.756 109.407L379.087 109.297L385.244 136.746Z" fill="#2F2E41"/>
<path d="M359.582 79.6789C362.468 69.8375 356.847 59.5264 347.026 56.6486C337.205 53.7707 326.904 59.4157 324.017 69.2571C321.131 79.0985 326.752 89.4095 336.573 92.2874C346.393 95.1653 356.695 89.5203 359.582 79.6789Z" fill="#9F616A"/>
<path d="M323.137 79.1238V71.8972C323.137 71.8972 317.307 65.0334 323.72 63.3044C323.72 63.3044 325.47 46.0145 340.629 54.0831C340.629 54.0831 361.62 50.6251 359.287 62.7281C359.287 62.7281 364.535 59.5684 362.786 67.637L359.403 80.6342C359.403 80.6342 361.037 72.0486 355.789 70.8959L352.874 69.1669C352.874 69.1669 344.711 77.2356 332.466 67.4379C332.466 67.4379 327.219 66.1861 327.802 71.3731C328.385 76.5601 323.137 79.1238 323.137 79.1238Z" fill="#2F2E41"/>
<path d="M283.846 302.538C283.855 314.677 280.924 326.639 275.304 337.4C269.684 348.162 261.541 357.404 251.571 364.337C251.389 364.467 251.2 364.597 251.012 364.72C249.921 365.473 248.808 366.194 247.673 366.882C246.076 367.856 244.441 368.771 242.769 369.628C241.756 370.147 240.736 370.641 239.697 371.108C239.437 371.225 239.171 371.349 238.905 371.459C237.093 372.264 235.241 372.998 233.358 373.647C228.438 375.371 223.35 376.572 218.178 377.23C214.969 377.643 211.736 377.849 208.5 377.847C206.87 377.847 205.246 377.795 203.642 377.691C202.238 377.601 200.849 377.477 199.472 377.308C197.257 377.042 195.068 376.685 192.911 376.224C192.84 376.211 192.762 376.192 192.691 376.179C188.211 375.232 183.829 373.869 179.602 372.108C178.453 371.628 177.316 371.128 176.199 370.589C174.789 369.927 173.408 369.219 172.055 368.466C160.425 362.044 150.701 352.662 143.869 341.272C137.036 329.881 133.339 316.888 133.151 303.609C132.963 290.33 136.291 277.237 142.798 265.658C149.305 254.079 158.76 244.426 170.203 237.677C181.647 230.928 194.672 227.324 207.959 227.23C221.245 227.135 234.32 230.554 245.859 237.139C257.397 243.725 266.988 253.243 273.659 264.728C280.331 276.213 283.845 289.257 283.846 302.538Z" fill="#F1F1F1"/>
<path d="M206.43 321.098C215.722 321.098 223.255 313.569 223.255 304.281C223.255 294.993 215.722 287.464 206.43 287.464C197.138 287.464 189.605 294.993 189.605 304.281C189.605 313.569 197.138 321.098 206.43 321.098Z" fill="#FFB8B8"/>
<path d="M199.471 377.308C197.256 377.042 195.067 376.685 192.911 376.224L194.957 330.207L195.25 329.902L199.439 325.481H212.761L217.678 330.24L218.094 330.649L228.609 340.718L233.358 373.647C228.438 375.371 223.35 376.572 218.178 377.23C214.968 377.643 211.736 377.849 208.5 377.847C206.87 377.847 205.246 377.795 203.641 377.691C202.238 377.6 200.849 377.477 199.471 377.308Z" fill="#CBCBCB"/>
<path d="M176.199 370.589C174.789 369.927 173.408 369.219 172.055 368.466C171.918 356.001 171.827 347.723 171.827 347.723L173.412 346.756C173.431 346.746 173.451 346.737 173.471 346.73L191.456 335.81L195.23 329.681L195.25 329.902L196.36 342.822C199.705 354.234 202.14 365.894 203.642 377.691C202.238 377.6 200.849 377.477 199.472 377.308C197.257 377.042 195.068 376.685 192.911 376.224C192.84 376.211 192.762 376.192 192.691 376.179C188.211 375.232 183.829 373.869 179.602 372.108C178.453 371.628 177.316 371.128 176.199 370.589Z" fill="#2F2E41"/>
<path d="M233.358 373.647C228.438 375.371 223.35 376.572 218.178 377.23C217.461 373.04 217.198 368.785 217.392 364.538C218.795 342.12 215.56 329.681 216.964 329.681L217.678 330.24L226.505 337.212L238.125 341.471H238.132L246.128 344.399L247.537 344.919V345.587C247.543 347.899 247.556 355.988 247.673 366.882C246.076 367.856 244.441 368.771 242.769 369.628C241.756 370.147 240.736 370.641 239.697 371.108C239.437 371.225 239.171 371.348 238.905 371.459C237.092 372.264 235.241 372.998 233.358 373.647Z" fill="#2F2E41"/>
<path d="M190.513 309.542C190.513 309.542 191.943 307.033 191.61 298.651C191.278 290.268 204.049 295.009 214.72 294.21C225.391 293.41 223.132 308.204 223.132 308.204C223.132 308.204 223.902 307.325 225.55 300.185C227.198 293.045 223.456 285.929 223.456 285.929C222.354 278.426 216.414 280.831 216.414 280.831C219.274 281.944 218.725 284.324 218.725 284.324C216.303 280.081 210.363 282.485 210.363 282.485C202.441 277.516 194.412 284.06 194.412 284.06C184.841 286.231 190.454 293.838 190.454 293.838C180.829 298.7 190.513 309.542 190.513 309.542Z" fill="#2F2E41"/>
<path d="M163.89 363.233C164.137 357.527 164.248 353.845 164.118 353.333C163.449 350.658 172.581 347.074 173.412 346.756C173.431 346.746 173.451 346.737 173.471 346.73L175.329 347.723L176.199 370.589C174.789 369.927 173.408 369.219 172.055 368.466C169.223 366.9 166.496 365.152 163.89 363.233Z" fill="#2F2E41"/>
<path d="M247.674 366.882C246.076 367.856 244.441 368.771 242.769 369.628C241.756 370.147 240.736 370.641 239.697 371.108C239.437 371.225 239.171 371.349 238.905 371.459L235.982 342.614L237.69 341.367C237.69 341.367 237.846 341.406 238.125 341.471H238.132C239.502 341.809 243.711 342.926 246.128 344.399C246.667 344.705 247.145 345.108 247.537 345.587C247.776 345.874 247.895 346.241 247.868 346.613C247.791 347.366 249.09 354.508 251.012 364.72C249.921 365.473 248.808 366.194 247.674 366.882Z" fill="#2F2E41"/>
<path d="M102.637 317.88H74.6963V192.681H75.9954V316.582H102.637V317.88Z" fill="#F1F1F1"/>
<path d="M342.309 317.881H314.369V316.582H341.01V191.521H342.309V317.881Z" fill="#F1F1F1"/>
<path d="M341.654 165.135C351.138 165.135 358.825 157.45 358.825 147.972C358.825 138.493 351.138 130.808 341.654 130.808C332.171 130.808 324.483 138.493 324.483 147.972C324.483 157.45 332.171 165.135 341.654 165.135Z" fill="#FEB81E"/>
<path fill-rule="evenodd" clip-rule="evenodd" d="M340.355 140.232C340.355 139.513 340.935 138.933 341.654 138.933C342.373 138.933 342.953 139.513 342.953 140.232V141.245C345.673 141.833 347.717 144.257 347.717 147.157V152.351L349.449 154.082V154.948H333.86V154.082L335.592 152.351V147.157C335.592 144.257 337.636 141.833 340.355 141.245V140.232ZM341.654 142.829C344.045 142.829 345.984 144.768 345.984 147.157V153.216H337.324V147.157C337.324 144.768 339.264 142.829 341.654 142.829ZM339.931 155.822C339.931 156.774 340.702 157.545 341.654 157.545C342.607 157.545 343.378 156.774 343.378 155.822H339.931ZM342.52 144.56V148.023H340.788V144.56H342.52ZM342.52 151.485V149.754H340.788V151.485H342.52Z" fill="white"/>
<path d="M75.3458 166.474C84.8292 166.474 92.5171 158.79 92.5171 149.311C92.5171 139.832 84.8292 132.148 75.3458 132.148C65.8624 132.148 58.1746 139.832 58.1746 149.311C58.1746 158.79 65.8624 166.474 75.3458 166.474Z" fill="#FEB81E"/>
<path fill-rule="evenodd" clip-rule="evenodd" d="M74.0468 141.53C74.0468 140.812 74.6271 140.232 75.3459 140.232C76.0647 140.232 76.645 140.812 76.645 141.53V142.543C79.3644 143.132 81.4082 145.556 81.4082 148.455V153.649L83.1403 155.38V156.246H67.5515V155.38L69.2836 153.649V148.455C69.2836 145.556 71.3275 143.132 74.0468 142.543V141.53ZM75.3459 144.127C77.7362 144.127 79.6761 146.066 79.6761 148.455V154.515H71.0157V148.455C71.0157 146.066 72.9556 144.127 75.3459 144.127ZM73.6225 157.12C73.6225 158.073 74.3933 158.843 75.3459 158.843C76.2986 158.843 77.0693 158.073 77.0693 157.12H73.6225ZM76.212 145.859V149.321H74.4799V145.859H76.212ZM76.212 152.784V151.052H74.4799V152.784H76.212Z" fill="white"/>
<path d="M208.5 395C217.984 395 225.671 387.316 225.671 377.837C225.671 368.358 217.984 360.674 208.5 360.674C199.017 360.674 191.329 368.358 191.329 377.837C191.329 387.316 199.017 395 208.5 395Z" fill="#FEB81E"/>
<path fill-rule="evenodd" clip-rule="evenodd" d="M207.201 370.057C207.201 369.338 207.781 368.758 208.5 368.758C209.219 368.758 209.799 369.338 209.799 370.057V371.069C212.518 371.658 214.562 374.082 214.562 376.982V382.175L216.294 383.907V384.772H200.706V383.907L202.438 382.175V376.982C202.438 374.082 204.482 371.658 207.201 371.069V370.057ZM208.5 372.653C210.89 372.653 212.83 374.592 212.83 376.982V383.041H204.17V376.982C204.17 374.592 206.11 372.653 208.5 372.653ZM206.777 385.646C206.777 386.599 207.547 387.369 208.5 387.369C209.453 387.369 210.223 386.599 210.223 385.646H206.777ZM209.366 374.385V377.847H207.634V374.385H209.366ZM209.366 381.31V379.578H207.634V381.31H209.366Z" fill="white"/>
</g>
<defs>
<clipPath id="clip0_710_857">
<rect width="417" height="395" fill="white"/>
</clipPath>
</defs>
</svg>
