<svg width="429" height="452" viewBox="0 0 429 452" fill="none" xmlns="http://www.w3.org/2000/svg">
<path d="M314.982 435.211L288.288 418.194L323.058 428.136C344.901 407.296 360.901 378.422 360.901 378.422C360.901 378.422 302.399 342.745 266.363 352.265C230.326 361.786 223.411 386.506 230.401 412.899C237.392 439.292 255.642 457.363 291.678 447.843C299.699 445.724 307.578 441.105 314.982 435.211Z" fill="#F2F2F2"/>
<path d="M285.634 412.706L283.857 413.175C263.182 418.524 246.151 419.303 233 415.476C232.808 415.423 232.621 415.36 232.429 415.307L232.692 414.42L232.957 413.57C247.211 417.905 265.235 416.009 283.27 411.347C283.853 411.203 284.444 411.056 285.031 410.892C292.648 408.851 300.237 406.348 307.531 403.622C308.097 403.416 308.67 403.199 309.243 402.982C318.853 399.334 327.901 395.346 335.701 391.651C336.254 391.392 336.804 391.125 337.345 390.859C350.521 384.55 359.858 379.198 361.92 377.996C362.174 377.853 362.312 377.77 362.345 377.752L362.803 378.524L362.814 378.53L363.275 379.31C363.242 379.329 362.78 379.61 361.913 380.102C358.68 381.962 349.874 386.901 338.039 392.593C337.504 392.847 336.954 393.114 336.402 393.373C330.076 396.379 322.959 399.565 315.407 402.594C313.511 403.358 311.634 404.089 309.777 404.786C309.207 405.012 308.634 405.229 308.068 405.435C300.183 408.383 292.705 410.806 285.634 412.706Z" fill="white"/>
<path d="M338.039 392.593C337.804 392.026 337.567 391.449 337.345 390.859C336.739 389.259 336.216 387.628 335.778 385.974C333.901 378.926 333.632 371.547 334.989 364.381C334.425 364.136 333.862 363.89 333.287 363.638C331.788 371.194 332.039 378.993 334.019 386.438C334.488 388.204 335.049 389.944 335.701 391.651C335.921 392.232 336.158 392.808 336.402 393.373C338.386 398.046 341.069 402.391 344.359 406.259C344.743 405.754 345.12 405.259 345.491 404.776C342.42 401.104 339.909 396.998 338.039 392.593Z" fill="white"/>
<path d="M309.778 404.786C309.582 404.19 309.404 403.588 309.243 402.982C309.186 402.8 309.134 402.607 309.086 402.422C307.062 394.783 306.918 386.768 308.666 379.061C310.414 371.354 314.002 364.184 319.125 358.161C318.513 357.947 317.901 357.732 317.283 357.529C312.135 363.756 308.547 371.119 306.816 379.006C305.084 386.894 305.259 395.08 307.327 402.887C307.392 403.133 307.457 403.379 307.531 403.623C307.703 404.235 307.881 404.836 308.068 405.435C311.032 414.685 316.602 422.887 324.11 429.059C324.554 428.641 324.999 428.222 325.441 427.796C318.089 421.811 312.646 413.815 309.778 404.786Z" fill="white"/>
<path d="M285.634 412.706C285.418 412.105 285.22 411.5 285.031 410.892C284.83 410.24 284.638 409.586 284.464 408.928C281.756 398.659 282.452 387.791 286.447 377.951C290.442 368.11 297.521 359.827 306.625 354.341C305.808 354.134 304.999 353.924 304.187 353.735C295.204 359.58 288.293 368.103 284.436 378.095C280.58 388.086 279.974 399.037 282.705 409.392C282.879 410.051 283.063 410.707 283.27 411.348C283.453 411.967 283.651 412.572 283.857 413.175C288.119 425.336 296.849 435.424 308.278 441.398C308.88 441.042 309.466 440.661 310.061 440.279C298.638 434.61 289.876 424.72 285.634 412.706Z" fill="white"/>
<path d="M250.315 448.715L118.313 395.65C110.402 392.459 104.082 386.265 100.739 378.427C97.3953 370.589 97.3016 361.746 100.478 353.839L234.971 20.137C238.165 12.2369 244.367 5.92482 252.215 2.58561C260.063 -0.753601 268.918 -0.847263 276.835 2.32517L408.837 55.3907C416.748 58.581 423.068 64.7748 426.411 72.6132C429.755 80.4515 429.848 89.2944 426.672 97.2017L292.179 430.903C288.985 438.803 282.783 445.115 274.935 448.455C267.086 451.794 258.232 451.888 250.315 448.715Z" fill="#3F3D56"/>
<path d="M403.63 64.0515L388.937 58.1448C387.625 57.6189 386.158 57.6343 384.858 58.1876C383.557 58.7409 382.529 59.7869 382 61.0961C380.919 63.7728 378.818 65.9115 376.159 67.0428C373.5 68.174 370.5 68.2055 367.818 67.1302L295.956 38.2414C293.276 37.1611 291.134 35.0628 290.002 32.4073C288.869 29.7517 288.838 26.7558 289.914 24.0771C290.441 22.7669 290.425 21.3016 289.871 20.0027C289.317 18.7039 288.27 17.6776 286.959 17.1491L274.003 11.9408C267.998 9.53568 261.283 9.60719 255.331 12.1397C249.378 14.6722 244.675 19.459 242.251 25.4502L108.715 356.78C106.306 362.777 106.378 369.483 108.914 375.428C111.449 381.373 116.242 386.071 122.241 388.491L251.868 440.602C257.873 443.007 264.588 442.935 270.541 440.403C276.493 437.87 281.197 433.084 283.62 427.092L417.157 95.763C419.565 89.7656 419.494 83.0592 416.958 77.1144C414.422 71.1697 409.629 66.472 403.63 64.0515Z" fill="white"/>
<path d="M353.366 51.5745L312.825 35.2768C312.441 35.1224 312.134 34.822 311.972 34.4417C311.809 34.0614 311.805 33.6322 311.96 33.2487C312.114 32.8652 312.415 32.5587 312.796 32.3967C313.177 32.2347 313.606 32.2303 313.99 32.3847L354.531 48.6824C354.722 48.7588 354.895 48.8719 355.041 49.0152C355.188 49.1585 355.304 49.3292 355.385 49.5175C355.465 49.7058 355.507 49.9081 355.509 50.1128C355.511 50.3175 355.473 50.5206 355.396 50.7105C355.32 50.9004 355.207 51.0734 355.063 51.2196C354.92 51.3658 354.749 51.4823 354.56 51.5625C354.372 51.6428 354.169 51.6851 353.964 51.6872C353.759 51.6892 353.556 51.6509 353.366 51.5745Z" fill="white"/>
<path d="M360.319 53.9365C361.009 53.9365 361.568 53.3781 361.568 52.6894C361.568 52.0007 361.009 51.4424 360.319 51.4424C359.63 51.4424 359.071 52.0007 359.071 52.6894C359.071 53.3781 359.63 53.9365 360.319 53.9365Z" fill="white"/>
<path d="M386.81 199.446C386.119 199.167 385.568 198.627 385.276 197.942C384.984 197.258 384.975 196.486 385.253 195.795L405.768 144.895C406.046 144.205 406.588 143.654 407.273 143.363C407.958 143.072 408.731 143.064 409.422 143.342C410.112 143.62 410.665 144.16 410.957 144.844C411.249 145.528 411.257 146.3 410.98 146.99L390.465 197.891C390.186 198.581 389.645 199.132 388.96 199.423C388.274 199.715 387.501 199.723 386.81 199.446Z" fill="#3F3D56"/>
<path d="M209.104 84.3185C208.413 84.0399 207.861 83.4991 207.569 82.8148C207.277 82.1304 207.269 81.3583 207.546 80.6679L212.209 69.0995C212.346 68.7571 212.55 68.4451 212.808 68.1813C213.066 67.9175 213.374 67.7072 213.713 67.5623C214.053 67.4175 214.418 67.3409 214.787 67.3371C215.157 67.3332 215.523 67.4021 215.866 67.5399C216.208 67.6776 216.521 67.8815 216.784 68.1398C217.048 68.3981 217.258 68.7058 217.402 69.0453C217.547 69.3848 217.623 69.7494 217.626 70.1182C217.629 70.4871 217.56 70.853 217.421 71.1949L212.759 82.7633C212.48 83.4531 211.938 84.0042 211.253 84.2957C210.568 84.5873 209.795 84.5955 209.104 84.3185Z" fill="#3F3D56"/>
<path d="M200.478 105.72C199.787 105.441 199.235 104.901 198.944 104.216C198.652 103.532 198.643 102.76 198.921 102.069L203.583 90.5009C203.721 90.1584 203.924 89.8463 204.182 89.5825C204.44 89.3186 204.748 89.1082 205.088 88.9633C205.428 88.8184 205.793 88.7418 206.162 88.7379C206.531 88.7341 206.898 88.803 207.241 88.9407C207.583 89.0785 207.895 89.2824 208.159 89.5408C208.423 89.7991 208.633 90.1069 208.777 90.4464C208.922 90.786 208.998 91.1506 209.001 91.5195C209.004 91.8885 208.934 92.2544 208.796 92.5963L204.133 104.165C203.854 104.854 203.313 105.406 202.628 105.697C201.942 105.989 201.169 105.997 200.478 105.72Z" fill="#3F3D56"/>
<path d="M324.339 154.85L268.262 132.307C267.113 131.842 266.195 130.941 265.709 129.802C265.223 128.663 265.209 127.378 265.669 126.228L279.127 92.8356C279.593 91.6881 280.494 90.7715 281.635 90.2861C282.775 89.8007 284.062 89.786 285.213 90.2452L341.289 112.788C342.438 113.253 343.356 114.154 343.842 115.293C344.328 116.431 344.343 117.716 343.883 118.866L330.425 152.259C329.959 153.407 329.057 154.323 327.917 154.809C326.776 155.294 325.49 155.309 324.339 154.85ZM284.268 92.5944C283.74 92.3842 283.15 92.3911 282.628 92.6136C282.105 92.8362 281.692 93.2563 281.478 93.7821L268.021 127.173C267.81 127.7 267.817 128.289 268.04 128.811C268.263 129.333 268.683 129.746 269.21 129.959L325.282 152.5C325.81 152.711 326.4 152.704 326.923 152.481C327.446 152.259 327.86 151.838 328.073 151.312L341.531 117.922C341.741 117.395 341.734 116.806 341.511 116.284C341.288 115.762 340.868 115.349 340.341 115.136L284.268 92.5944Z" fill="#3F3D56"/>
<path d="M324.671 133.601L324.668 133.6L281.381 116.198C280.777 115.954 280.264 115.53 279.91 114.984C279.556 114.438 279.38 113.796 279.404 113.146L280.221 92.898C280.241 92.3935 280.383 91.9012 280.633 91.4625C280.884 91.0238 281.236 90.6516 281.66 90.3771C282.085 90.1025 282.569 89.9338 283.072 89.8849C283.575 89.8361 284.083 89.9086 284.552 90.0963L341.839 113.013C342.613 113.323 343.234 113.926 343.564 114.691C343.895 115.456 343.909 116.321 343.604 117.096L343.791 117.284L341.995 119.071L341.995 119.07L328.078 132.909C327.64 133.346 327.084 133.644 326.479 133.767C325.873 133.89 325.244 133.832 324.671 133.601Z" fill="#3F3D56"/>
<path d="M292.166 135.074L272.914 127.334C272.44 127.143 272.061 126.772 271.861 126.303C271.66 125.833 271.655 125.303 271.846 124.829C272.037 124.356 272.408 123.977 272.878 123.777C273.349 123.577 273.879 123.571 274.354 123.762L293.606 131.501C294.08 131.692 294.459 132.063 294.659 132.533C294.859 133.003 294.864 133.532 294.673 134.006C294.482 134.48 294.111 134.858 293.641 135.058C293.171 135.259 292.64 135.264 292.166 135.074V135.074Z" fill="#3F3D56"/>
<path d="M304.085 128.668C306.688 128.668 308.798 126.56 308.798 123.961C308.798 121.361 306.688 119.254 304.085 119.254C301.482 119.254 299.372 121.361 299.372 123.961C299.372 126.56 301.482 128.668 304.085 128.668Z" fill="white"/>
<path d="M240.72 362.322L184.644 339.779C183.495 339.314 182.577 338.414 182.091 337.274C181.605 336.135 181.591 334.85 182.05 333.7L195.509 300.308C195.975 299.16 196.876 298.244 198.017 297.758C199.157 297.273 200.444 297.258 201.595 297.717L257.671 320.26C258.82 320.725 259.738 321.626 260.224 322.765C260.71 323.904 260.725 325.188 260.265 326.338L246.806 359.731C246.341 360.879 245.439 361.795 244.299 362.281C243.158 362.766 241.872 362.781 240.72 362.322ZM200.65 300.067C200.122 299.856 199.532 299.863 199.01 300.086C198.487 300.308 198.074 300.728 197.86 301.254L184.403 334.645C184.192 335.172 184.199 335.761 184.422 336.283C184.645 336.805 185.065 337.218 185.592 337.431L241.664 359.972C242.192 360.183 242.782 360.176 243.305 359.953C243.828 359.731 244.242 359.311 244.455 358.784L257.913 325.394C258.123 324.867 258.116 324.278 257.893 323.756C257.67 323.234 257.25 322.822 256.723 322.608L200.65 300.067Z" fill="#3F3D56"/>
<path d="M241.053 341.073L241.05 341.072L197.763 323.67C197.159 323.426 196.646 323.002 196.292 322.456C195.938 321.91 195.761 321.268 195.786 320.618L196.603 300.37C196.623 299.866 196.765 299.373 197.015 298.935C197.266 298.496 197.618 298.124 198.042 297.849C198.467 297.575 198.951 297.406 199.454 297.357C199.957 297.308 200.465 297.381 200.934 297.568L258.221 320.485C258.995 320.795 259.615 321.399 259.946 322.163C260.277 322.928 260.291 323.793 259.986 324.568L260.173 324.756L258.377 326.543L258.377 326.542L244.46 340.381C244.022 340.818 243.466 341.116 242.86 341.239C242.255 341.362 241.626 341.304 241.053 341.073Z" fill="#3F3D56"/>
<path d="M208.548 342.546L189.296 334.807C188.822 334.616 188.443 334.245 188.243 333.775C188.042 333.305 188.037 332.775 188.228 332.302C188.419 331.828 188.79 331.45 189.26 331.249C189.731 331.049 190.261 331.044 190.735 331.234L209.988 338.973C210.222 339.068 210.436 339.208 210.617 339.385C210.798 339.562 210.942 339.772 211.041 340.005C211.141 340.238 211.193 340.488 211.196 340.74C211.198 340.993 211.151 341.244 211.056 341.479C210.962 341.713 210.822 341.927 210.645 342.108C210.467 342.288 210.256 342.432 210.023 342.531C209.79 342.63 209.54 342.683 209.287 342.685C209.034 342.688 208.783 342.64 208.548 342.546Z" fill="#3F3D56"/>
<path d="M220.467 336.14C223.07 336.14 225.18 334.033 225.18 331.433C225.18 328.834 223.07 326.727 220.467 326.727C217.864 326.727 215.754 328.834 215.754 331.433C215.754 334.033 217.864 336.14 220.467 336.14Z" fill="white"/>
<path d="M262.936 277.753C291.405 277.753 314.483 254.704 314.483 226.271C314.483 197.839 291.405 174.79 262.936 174.79C234.467 174.79 211.388 197.839 211.388 226.271C211.388 254.704 234.467 277.753 262.936 277.753Z" fill="#FEB81E"/>
<path d="M282.499 258.574L226.422 236.031C225.273 235.566 224.355 234.665 223.869 233.526C223.383 232.387 223.369 231.102 223.829 229.952L237.287 196.559C237.753 195.412 238.654 194.495 239.795 194.01C240.935 193.524 242.222 193.51 243.373 193.969L299.449 216.512C300.598 216.977 301.516 217.877 302.002 219.016C302.488 220.155 302.503 221.44 302.043 222.59L288.585 255.983C288.119 257.13 287.217 258.047 286.077 258.532C284.936 259.018 283.65 259.032 282.499 258.574ZM242.428 196.318C241.9 196.108 241.31 196.115 240.788 196.337C240.265 196.56 239.852 196.98 239.638 197.506L226.181 230.896C225.97 231.423 225.977 232.012 226.2 232.534C226.423 233.056 226.844 233.469 227.37 233.682L283.442 256.224C283.97 256.434 284.56 256.427 285.083 256.205C285.606 255.982 286.02 255.562 286.234 255.036L299.691 221.646C299.901 221.119 299.894 220.53 299.671 220.008C299.449 219.486 299.028 219.073 298.501 218.86L242.428 196.318Z" fill="#3F3D56"/>
<path d="M282.831 237.325L282.828 237.324L239.541 219.922C238.937 219.678 238.424 219.254 238.07 218.708C237.716 218.162 237.54 217.52 237.564 216.87L238.381 196.622C238.401 196.117 238.543 195.625 238.793 195.186C239.044 194.748 239.396 194.375 239.82 194.101C240.245 193.826 240.729 193.658 241.232 193.609C241.735 193.56 242.243 193.632 242.713 193.82L299.999 216.737C300.774 217.047 301.394 217.65 301.724 218.415C302.055 219.18 302.069 220.045 301.764 220.82L301.951 221.008L300.155 222.795L300.155 222.794L286.238 236.633C285.8 237.069 285.244 237.368 284.639 237.491C284.033 237.614 283.404 237.556 282.831 237.325Z" fill="#3F3D56"/>
<path d="M250.326 238.798L231.074 231.058C230.6 230.867 230.221 230.496 230.021 230.026C229.821 229.557 229.815 229.027 230.006 228.553C230.197 228.08 230.568 227.701 231.039 227.501C231.509 227.301 232.039 227.295 232.514 227.486L251.766 235.225C252.24 235.416 252.619 235.787 252.819 236.257C253.019 236.726 253.024 237.256 252.833 237.73C252.643 238.203 252.271 238.582 251.801 238.782C251.331 238.982 250.8 238.988 250.326 238.798Z" fill="#3F3D56"/>
<path d="M123.639 263.955C123.644 262.97 123.432 261.996 123.02 261.102C122.607 260.207 122.003 259.414 121.25 258.778C120.497 258.142 119.614 257.678 118.662 257.42C117.711 257.162 116.714 257.115 115.742 257.283L104.136 236.336L98.3578 247.357L110.265 265.559C110.656 267.171 111.625 268.583 112.989 269.528C114.353 270.474 116.017 270.887 117.665 270.689C119.314 270.492 120.832 269.697 121.933 268.456C123.034 267.215 123.641 265.613 123.639 263.955H123.639Z" fill="#9E616A"/>
<path d="M116.14 179.348L104.204 178.512C104.204 178.512 102.734 178.312 98.6908 184.715C94.6476 191.119 80.7883 223.59 80.7883 223.59L105.069 258.788L112.956 250.947L98.8566 222.625L112.37 203.67L116.14 179.348Z" fill="#CACACA"/>
<path d="M247.72 217.4C246.921 217.704 246.063 217.83 245.21 217.768C244.356 217.706 243.526 217.458 242.778 217.041C242.031 216.625 241.384 216.049 240.883 215.356C240.383 214.662 240.04 213.867 239.881 213.027L219.292 210L226.497 201.946L244.944 206.055C246.374 205.881 247.819 206.236 249.005 207.055C250.191 207.873 251.035 209.097 251.377 210.496C251.72 211.894 251.536 213.369 250.862 214.642C250.188 215.914 249.071 216.895 247.72 217.4Z" fill="#9E616A"/>
<path d="M168.58 442.635H177.378L181.563 408.743L168.579 408.744L168.58 442.635Z" fill="#9E616A"/>
<path d="M166.336 439.767L168.812 439.767L178.48 435.84L183.662 439.767H183.663C186.591 439.767 189.4 440.929 191.47 442.997C193.541 445.065 194.704 447.869 194.705 450.794V451.152L166.336 451.153L166.336 439.767Z" fill="#2F2E41"/>
<path d="M115.509 442.635H124.307L128.492 408.743L115.507 408.744L115.509 442.635Z" fill="#9E616A"/>
<path d="M113.265 439.767L115.741 439.767L125.409 435.84L130.591 439.767H130.592C133.52 439.767 136.328 440.929 138.399 442.997C140.47 445.065 141.633 447.869 141.633 450.794V451.152L113.265 451.153L113.265 439.767Z" fill="#2F2E41"/>
<path d="M118.902 275.742L113.087 310.749L115.043 423.279H129.355L151.343 304.247L167.16 421.323L181.55 420.701L188.731 302.525L182.278 272.361L118.902 275.742Z" fill="#2F2E41"/>
<path d="M171.488 171.635L156.17 169.381L152.913 160.935L131.332 160.906L126.483 171.933L104.431 178.583L122.701 241.265C122.701 241.265 112.632 264.559 115.109 264.659C117.585 264.759 118.805 268.295 117.078 270.153C115.351 272.012 111.885 270.83 113.618 273.652C114.61 275.18 115.275 276.897 115.571 278.694C115.571 278.694 188.641 294.274 184.593 274.184C184.09 271.686 177.985 237.086 177.985 237.086C177.985 237.086 183.301 231.21 181.029 228.875C178.757 226.54 179.957 201.88 179.957 201.88L171.488 171.635Z" fill="#CACACA"/>
<path d="M168.98 174.374L171.488 171.635L205.548 191.581L234.369 203.061L234.927 213.103L197.498 208.64L171.007 195.703L168.98 174.374Z" fill="#CACACA"/>
<path d="M159.51 136.715C159.51 139.08 159.044 141.421 158.138 143.606C157.231 145.791 155.903 147.776 154.229 149.448C152.555 151.12 150.567 152.447 148.38 153.352C146.192 154.257 143.848 154.722 141.48 154.722C140.06 154.72 138.645 154.555 137.263 154.23C133.97 153.44 130.966 151.741 128.595 149.326C126.223 146.911 124.581 143.878 123.855 140.574C123.129 137.27 123.35 133.829 124.491 130.644C125.632 127.46 127.647 124.66 130.307 122.566C132.967 120.472 136.163 119.169 139.53 118.804C142.897 118.44 146.299 119.03 149.346 120.506C152.393 121.982 154.962 124.285 156.76 127.152C158.557 130.019 159.51 133.333 159.51 136.715V136.715Z" fill="#9E616A"/>
<path d="M146.309 151.317L133.36 153.812C132.153 154.137 130.889 154.19 129.659 153.965C127.733 153.458 126.442 151.683 125.457 149.954C120.885 141.857 119.445 132.366 121.41 123.279C121.852 121.273 122.798 118.975 124.813 118.567C125.398 118.448 126.061 118.495 126.524 118.118C127.206 117.564 126.982 116.388 126.312 115.819C125.583 115.318 124.724 115.039 123.839 115.017C124.411 114.346 125.118 113.803 125.915 113.425C126.711 113.047 127.579 112.841 128.461 112.821L124.997 110.899C126.666 109.743 128.907 109.849 130.875 110.348C132.843 110.848 134.738 111.694 136.76 111.883C139.298 112.121 141.803 111.306 144.333 110.991C148.108 110.582 151.922 111.263 155.321 112.953C158.721 114.643 161.564 117.271 163.513 120.525C164.201 121.611 164.636 122.836 164.787 124.111C164.857 124.749 164.777 125.394 164.553 125.995C164.329 126.597 163.968 127.138 163.499 127.575C162.081 128.766 159.847 128.591 158.473 129.833C157.414 130.791 157.151 132.336 157.091 133.761C157.031 135.187 157.099 136.676 156.487 137.965C155.876 139.254 154.28 140.223 153.004 139.582C152.948 137.817 150.91 136.567 149.18 136.932C147.449 137.296 146.171 138.868 145.673 140.563C145.176 142.258 145.323 144.069 145.54 145.821C145.757 147.574 146.039 149.348 145.796 151.098" fill="#2F2E41"/>
<path d="M260.233 232.914C262.836 232.914 264.946 230.807 264.946 228.207C264.946 225.608 262.836 223.5 260.233 223.5C257.63 223.5 255.52 225.608 255.52 228.207C255.52 230.807 257.63 232.914 260.233 232.914Z" fill="#FEB81E"/>
<path d="M362.272 452H0.665183C0.489103 452 0.320404 451.929 0.196077 451.805C0.07175 451.68 0.00193787 451.512 0.00193787 451.336C0.00193787 451.16 0.07175 450.991 0.196077 450.867C0.320404 450.742 0.489103 450.672 0.665183 450.671H362.272C362.449 450.671 362.618 450.741 362.742 450.866C362.867 450.991 362.937 451.16 362.937 451.336C362.937 451.512 362.867 451.681 362.742 451.805C362.618 451.93 362.449 452 362.272 452Z" fill="#CACACA"/>
</svg>
