<svg width="391" height="391" viewBox="0 0 391 391" fill="none" xmlns="http://www.w3.org/2000/svg">
  <g clip-path="url(#clip0_209_369)">
    <path
      d="M391 195.314C391.026 217.556 387.241 239.638 379.809 260.603C379.776 260.701 379.744 260.789 379.706 260.886V260.891C374.141 276.489 366.603 291.312 357.277 305.001C355.661 307.386 353.988 309.732 352.258 312.039C350.354 314.591 348.389 317.091 346.365 319.541C344.498 321.8 342.582 324.016 340.616 326.189C338.28 328.778 335.875 331.3 333.399 333.756C327.574 339.552 321.389 344.975 314.88 349.993C313.738 350.879 312.583 351.75 311.416 352.605C308.7 354.609 305.929 356.542 303.104 358.404C296.89 362.508 290.445 366.25 283.8 369.613C282.653 370.197 281.497 370.773 280.336 371.329C275.845 373.496 271.264 375.489 266.59 377.309C265.258 377.834 263.92 378.339 262.569 378.827C262.342 378.915 262.114 378.998 261.882 379.077C245.858 384.855 229.142 388.502 212.166 389.924C210.987 390.03 209.806 390.12 208.623 390.193C207.369 390.281 206.114 390.352 204.857 390.406C203.863 390.457 202.874 390.494 201.876 390.522C201.671 390.531 201.463 390.541 201.258 390.541C199.916 390.582 198.569 390.609 197.218 390.62C196.647 390.624 196.076 390.629 195.5 390.629C195.231 390.629 194.961 390.629 194.692 390.624C190.796 390.61 186.929 390.483 183.092 390.244C183.013 390.239 182.934 390.23 182.855 390.23C181.481 390.137 180.111 390.04 178.745 389.919C173.884 389.511 169.074 388.923 164.317 388.156C163.222 387.984 162.129 387.799 161.039 387.599C156.307 386.764 151.637 385.758 147.029 384.579C145.659 384.231 144.297 383.868 142.943 383.489C124.112 378.248 106.181 370.199 89.7535 359.615C86.9302 357.801 84.1594 355.915 81.4413 353.955C81.107 353.723 80.7772 353.482 80.4475 353.241C73.8449 348.432 67.5497 343.215 61.5987 337.62C58.78 334.976 56.0433 332.248 53.3887 329.437C19.038 293.221 -0.0747319 245.207 -1.0613e-05 195.314C-1.0613e-05 87.4461 87.5292 -3.8147e-06 195.5 -3.8147e-06C303.471 -3.8147e-06 391 87.4461 391 195.314Z"
      fill="#F2F2F2" />
    <path
      d="M219.35 49.7925C223.265 43.3247 227.903 36.4189 235.167 34.307C243.579 31.8612 252.221 36.7198 259.551 41.5142C281.472 55.8528 302.582 71.3918 322.785 88.0599L322.762 88.311C307.034 87.2273 291.305 86.1437 275.576 85.0601C264.212 84.2771 252.458 83.3862 242.415 78.0154C238.605 75.9774 234.89 73.2551 230.572 73.0654C225.206 72.8297 220.528 76.5731 216.852 80.4841C195.106 103.619 188.813 138.998 164.416 159.324C179.8 121.42 198.169 84.7944 219.35 49.7925Z"
      fill="white" />
    <path
      d="M85.6788 246.018C88.0836 242.985 89.0662 242.274 91.4384 239.212C110.753 214.255 128.907 188.456 145.901 161.813C157.444 143.718 168.414 125.276 178.812 106.486C183.763 97.5529 188.577 88.5499 193.256 79.4768C196.887 72.4417 200.436 65.3646 203.905 58.2454C204.897 56.212 205.861 54.1693 206.82 52.1219C209.08 47.3072 211.298 42.4691 213.679 37.7199C216.393 32.3069 219.696 26.6321 224.68 22.9953C226.947 21.2723 229.659 20.2298 232.498 19.9896C236.555 19.7279 240.298 21.4013 243.816 23.229C269.56 36.6401 293.66 53.4541 315.459 72.5867C337.314 91.7622 356.849 113.426 373.665 137.136C374.18 137.87 375.396 137.169 374.877 136.43C372.832 133.542 370.747 130.684 368.621 127.857C350.98 104.402 330.634 83.1029 308.006 64.4017C296.803 55.1409 285.072 46.5364 272.872 38.6314C266.663 34.6114 260.337 30.7799 253.895 27.1369C250.647 25.2998 247.386 23.4861 244.069 21.7846C240.817 20.1159 237.364 18.6154 233.649 18.5593C221.007 18.3629 214.461 32.6668 209.964 42.2915C208.551 45.3205 207.121 48.3402 205.674 51.3506C200.204 62.7796 194.524 74.1043 188.633 85.3246C184.998 92.2521 181.283 99.1392 177.488 105.986C165.679 127.306 153.127 148.194 139.832 168.651C122.221 195.749 104.75 219.687 84.6869 245.027C84.1347 245.729 85.1218 246.729 85.6788 246.018Z"
      fill="white" />
    <path
      d="M155.65 132.274L136.814 125.391L127.462 121.974C124.417 120.861 121.378 119.594 118.23 118.797C115.446 118.092 112.617 117.977 109.873 118.903C107.451 119.799 105.234 121.171 103.355 122.94C101.434 124.707 99.647 126.613 98.0083 128.644C95.9722 131.088 93.9661 133.559 91.9511 136.021C83.6347 146.182 75.3727 156.387 67.165 166.636C58.9576 176.885 50.805 187.178 42.7073 197.514C34.5898 207.875 26.5281 218.28 18.5223 228.728C17.5415 230.008 16.5616 231.289 15.5826 232.57C15.0417 233.278 13.822 232.58 14.3706 231.862C22.4355 221.309 30.5566 210.799 38.734 200.332C46.9314 189.84 55.1855 179.393 63.4962 168.99C71.8068 158.588 80.1735 148.23 88.5964 137.918C90.6948 135.349 92.7967 132.783 94.902 130.219C96.6779 128.057 98.4338 125.871 100.382 123.859C103.957 120.164 108.424 116.899 113.771 116.811C116.915 116.759 119.958 117.755 122.879 118.811C126.028 119.949 129.169 121.109 132.314 122.258L151.281 129.189L156.023 130.921C156.865 131.229 156.501 132.585 155.65 132.274V132.274Z"
      fill="white" />
    <path
      d="M104.064 132.342C105.918 130.088 107.923 127.727 110.696 126.811L113.285 126.913C93.575 161.708 66.955 192.112 35.0591 216.259C58.0607 188.287 81.0622 160.314 104.064 132.342Z"
      fill="white" />
    <path
      d="M229.976 96.3175C229.977 99.873 229.105 103.374 227.436 106.514C225.766 109.655 223.351 112.337 220.401 114.327C217.452 116.317 214.059 117.552 210.52 117.926C206.981 118.3 203.404 117.8 200.103 116.47C196.803 115.141 193.879 113.022 191.59 110.3C189.3 107.578 187.714 104.336 186.971 100.859C186.229 97.3815 186.352 93.7754 187.33 90.3568C188.308 86.9382 190.111 83.8117 192.58 81.2517C192.615 81.2171 192.65 81.1823 192.685 81.1476C192.859 80.9651 193.033 80.7826 193.215 80.6088C193.216 80.6088 193.218 80.6086 193.219 80.6082C193.22 80.6077 193.221 80.6071 193.221 80.6063C193.222 80.6055 193.223 80.6045 193.223 80.6034C193.224 80.6024 193.224 80.6012 193.224 80.6001C193.45 80.3916 193.676 80.1831 193.911 79.9833C197.053 77.2315 200.922 75.4427 205.055 74.831C209.188 74.2192 213.409 74.8105 217.215 76.534C221.02 78.2574 224.248 81.0401 226.511 84.5487C228.774 88.0574 229.977 92.1434 229.976 96.3175V96.3175Z"
      fill="#2F2E41" />
    <path
      d="M215.769 114.222C222.889 107.109 222.889 95.5769 215.769 88.4639C208.65 81.3509 197.106 81.3509 189.986 88.4639C182.867 95.5769 182.867 107.109 189.986 114.222C197.106 121.335 208.65 121.335 215.769 114.222Z"
      fill="#9E616A" />
    <path
      d="M215.904 83.8275C213.08 81.187 209.567 79.3963 205.77 78.661C201.972 77.9257 198.044 78.2756 194.437 79.6707C194.33 79.7124 194.223 79.7588 194.116 79.8098C194.112 79.8098 194.112 79.8145 194.107 79.8145C193.759 79.9583 193.406 80.1067 193.067 80.2691L192.858 80.3712V80.399C192.821 80.4269 192.779 80.4593 192.737 80.4872C192.652 80.5667 192.548 80.6241 192.435 80.6542C188.929 80.7006 186.073 81.8882 183.956 84.1847C181.128 87.2466 179.8 92.1968 180.208 98.1258L180.218 98.3067L180.375 98.4088C181.871 99.3413 183.287 100.162 184.652 100.882C185.46 101.313 186.245 101.707 187.025 102.069C187.118 102.111 187.211 102.157 187.304 102.199C195.198 105.841 202.419 106.5 209.357 104.194L209.487 104.152L212.436 99.216C212.739 100.902 213.551 102.456 214.763 103.669C215.975 104.882 217.528 105.696 219.215 106.003L220.441 106.221L222.238 106.537L222.313 106.198C224.096 98.1722 221.519 89.1859 215.904 83.8275Z"
      fill="#2F2E41" />
    <path
      d="M260.692 122.056C254.488 118.857 262.467 107.246 260.863 100.457C259.26 93.6683 247.714 91.4848 246.978 84.5485C246.243 77.6122 244.512 70.4582 239.931 65.1949C237.003 61.8316 232.69 59.3487 228.248 59.77C226.746 59.9125 225.291 60.377 223.984 61.1316C222.678 61.8863 221.549 62.9135 220.675 64.1433C219.802 65.3731 219.203 66.7765 218.922 68.258C218.64 69.7395 218.681 71.2644 219.042 72.7286C217.778 70.9385 214.505 71.3265 213.695 73.3626C212.975 75.1727 214.566 77.3653 216.438 77.5255C218.888 80.548 221.693 83.7558 225.531 84.3656C226.768 84.562 228.157 84.4181 229.06 83.5518C229.963 82.6855 230.034 80.9535 228.962 80.3061C233.786 82.2203 236.614 87.4303 237.329 92.5659C238.045 97.7014 237.055 102.897 236.402 108.041C235.75 113.185 235.469 118.596 237.488 123.373C239.873 129.017 245.364 133.062 251.357 134.359C257.351 135.656 263.733 134.388 269.158 131.532C274.583 128.675 279.106 124.315 282.802 119.426C276.436 123.942 267.629 125.633 260.692 122.056Z"
      fill="#2F2E41" />
    <path d="M190.203 198.563L177.61 284.473L246.35 279.297L225.776 194.782L190.203 198.563Z" fill="#FFB8B8" />
    <path
      d="M262.114 378.2C262.053 378.496 261.975 378.789 261.882 379.077C253.949 381.942 245.836 384.284 237.595 386.087C235.858 380.381 232.529 369.576 229.613 360.738C227.23 353.524 225.127 347.623 224.393 346.885C222.355 344.858 224.393 342.153 224.393 342.153L215.686 315.11L211.73 302.826L210.374 328.634L208.405 366.017L208.349 367.066C208.349 367.066 205.637 375.18 206.993 376.535C208.349 377.889 205.637 383.303 205.637 383.303L204.857 390.406C203.863 390.457 202.874 390.494 201.876 390.522L201.537 390.629L201.258 390.541C199.916 390.582 198.569 390.609 197.218 390.62C196.647 390.624 196.076 390.629 195.5 390.629C195.231 390.629 194.961 390.629 194.692 390.624C190.796 390.61 186.929 390.484 183.092 390.244L180.71 370.875L178.249 350.861C178.249 350.861 180.956 345.456 178.249 342.751C176.619 341.123 177.436 338.757 178.351 337.133C177.784 334.623 177.009 330.763 175.964 325.048C175.927 324.858 175.894 324.663 175.857 324.468C175.527 322.654 175.232 320.875 174.97 319.133C174.506 316.066 174.144 313.12 173.865 310.299C172.92 301.163 172.79 291.961 173.475 282.802C173.735 279.546 174.06 277.161 174.274 275.783C174.292 275.653 174.492 274.925 174.817 273.774C175.328 271.932 176.168 269.01 177.111 265.739C177.612 264.004 178.142 262.171 178.667 260.348C179.581 257.189 180.492 254.057 181.225 251.524V251.51C181.871 249.288 182.386 247.534 182.656 246.616C182.786 246.166 182.855 245.92 182.855 245.92C182.855 245.92 182.999 245.887 183.273 245.827C184.123 245.632 186.222 245.164 189.129 244.537C192.161 243.897 196.066 243.085 200.357 242.259C204.03 241.554 207.987 240.835 211.92 240.19C213.332 239.963 214.744 239.74 216.137 239.532C224.741 238.251 232.64 237.523 236.383 238.353C236.642 238.408 236.898 238.478 237.149 238.562C237.403 238.646 237.648 238.756 237.878 238.891C237.995 238.961 239.118 243.34 240.553 249.047C240.567 249.102 240.581 249.163 240.595 249.218C241.027 250.944 241.487 252.781 241.956 254.66C242.434 256.576 242.917 258.53 243.391 260.432C244.798 266.082 246.098 271.311 246.767 273.872C247.022 274.864 247.189 275.454 247.226 275.519C248.796 278.131 250.077 284.533 251.118 292.563C252.046 299.731 252.785 308.198 253.356 316.423C253.639 320.492 253.881 324.505 254.085 328.272C254.777 340.947 255.056 350.842 255.056 350.842C255.056 350.842 256.091 359.091 258.148 362.983C258.401 363.486 258.725 363.95 259.109 364.361C260.479 365.73 260.637 366.917 260.456 367.762C260.377 368.16 260.212 368.537 259.973 368.866C259.919 368.946 259.858 369.022 259.792 369.093C259.615 369.933 259.646 370.803 259.883 371.627C260.119 372.452 260.553 373.207 261.148 373.825C262.462 375.148 262.355 377.04 262.114 378.2Z"
      fill="#2F2E41" />
    <path
      d="M239.597 171.009C239.518 170.425 239.434 169.835 239.346 169.242C239.295 168.861 239.234 168.481 239.179 168.105C238.589 164.31 241.045 161.062 237.865 158.437C237.121 157.832 236.514 157.076 236.086 156.219L235.357 154.753L234.015 152.034L231.08 146.124L230.574 145.108C230.431 144.819 230.266 144.542 230.082 144.278C229.533 143.482 228.819 142.814 227.987 142.32L220.697 137.977C219.57 137.31 218.663 136.328 218.087 135.152L217.906 134.781C217.102 133.134 215.663 129.195 213.959 127.483L213.954 127.479C213.583 127.054 213.079 126.768 212.524 126.667L205.266 125.948C204.105 125.83 202.933 126.015 201.866 126.486C200.799 126.957 199.872 127.697 199.178 128.634L198.978 129.538L197.813 134.841L197.748 134.855C197.404 134.934 197.06 135.013 196.721 135.11C189.194 137.165 186.055 163.456 186.055 163.456C186.055 163.456 180.784 172.146 182.855 177.523L186.552 186.194C186.58 186.259 186.602 186.328 186.617 186.398C186.951 187.342 187.068 188.348 186.96 189.344L186.965 189.682L186.974 190.429L187.002 192.345L187.09 198.701L187.202 206.657L187.299 213.436L187.332 215.24L181.244 241.707C181.144 242.577 181.217 243.458 181.459 244.299C181.7 245.141 182.105 245.926 182.651 246.611L182.656 246.616C182.789 246.787 182.932 246.951 183.083 247.108L183.087 247.112C183.231 247.261 183.38 247.395 183.533 247.53C184.266 248.171 185.131 248.643 186.066 248.915C187.002 249.187 187.985 249.251 188.948 249.102L189.76 248.977H189.765L201.56 247.21H201.569L202.935 247.006H202.944L216.146 245.025H216.155L218.417 244.681C218.598 244.658 218.774 244.635 218.955 244.621L231.043 243.79C231.32 243.772 231.596 243.736 231.869 243.684H231.874C232.937 243.474 233.934 243.011 234.78 242.335C235.626 241.66 236.297 240.79 236.736 239.801C236.919 239.404 237.057 238.989 237.149 238.562C237.254 238.1 237.312 237.629 237.321 237.156L237.456 225.781L237.916 189.019C237.925 187.792 238.276 186.592 238.928 185.553C240.604 182.881 240.414 177.156 239.597 171.009Z"
      fill="#FEB81E" />
    <path
      d="M219.33 269.192C219.16 268.255 219.198 267.291 219.441 266.37C219.684 265.448 220.126 264.592 220.736 263.859C221.347 263.127 222.11 262.538 222.973 262.132C223.836 261.727 224.778 261.515 225.732 261.513L233.273 239.611L240.626 249.145L232.337 268.482C232.235 270.083 231.549 271.591 230.409 272.72C229.268 273.849 227.753 274.521 226.15 274.609C224.546 274.697 222.966 274.193 221.71 273.195C220.453 272.197 219.606 270.773 219.33 269.192H219.33Z"
      fill="#9E616A" />
    <path
      d="M248.104 223.113L246.409 227.381L244.041 253.783C243.305 253.968 242.602 254.264 241.956 254.66C240.551 255.528 239.482 256.844 238.922 258.396C238.361 259.947 238.342 261.642 238.868 263.206L239.564 265.294L234.386 263.702L225.874 261.09L215.839 258.01L217.539 252.503C217.932 251.238 218.012 249.896 217.771 248.593C217.53 247.29 216.975 246.066 216.155 245.024C215.952 244.766 215.734 244.519 215.5 244.287L216.137 239.532L216.513 236.706L211.92 240.19L202.939 247.005H202.935L201.746 247.91C201.746 247.91 201.681 247.669 201.56 247.21C201.332 246.324 200.905 244.626 200.357 242.259C197.644 230.469 195.645 218.526 194.372 206.495C194.093 203.786 193.851 201.011 193.656 198.195C193.457 195.296 193.308 192.355 193.229 189.395C192.561 165.303 196.266 140.046 211.753 127.131C212.502 127.136 213.246 127.255 213.959 127.483C220.228 129.409 227.105 138.817 231.86 145.549C232.984 147.14 233.987 148.578 234.837 149.733L236.894 152.531C239.703 156.353 241.647 160.739 242.592 165.386C242.792 166.37 242.948 167.366 243.061 168.374L245.308 189.028V194.349L248.104 223.113Z"
      fill="#FEB81E" />
    <path
      d="M11.3259 260.138C15.36 264.914 19.7233 269.401 24.384 273.569L366.894 274.033C371.555 269.865 375.918 265.378 379.952 260.602L11.3259 260.138Z"
      fill="#CCCCCC" />
    <path
      d="M197.218 390.62C196.647 390.624 196.076 390.629 195.5 390.629C195.231 390.629 194.961 390.629 194.692 390.624C190.796 390.61 186.929 390.483 183.092 390.244L183.185 391L182.855 390.23L175.495 373.111L180.71 370.875L190.276 366.769L193.178 376.739L195.955 386.286L196.782 389.116L197.218 390.62Z"
      fill="#FFB6B6" />
    <path d="M163.119 370.745L161.039 387.599C156.307 386.764 151.637 385.758 147.029 384.579V370.749L163.119 370.745Z"
      fill="#FFB6B6" />
    <path d="M89.7535 339.68V359.615C86.9302 357.801 84.1594 355.915 81.4413 353.955V339.68H89.7535Z" fill="#CACACA" />
    <path
      d="M121.958 336.358V346.319C121.957 348.154 121.228 349.913 119.929 351.211C118.631 352.509 116.87 353.239 115.034 353.241H80.4475C73.8449 348.431 67.5497 343.214 61.5987 337.62C58.78 334.976 56.0433 332.248 53.3887 329.437H115.034C116.87 329.439 118.631 330.169 119.929 331.467C121.227 332.765 121.956 334.524 121.958 336.358Z"
      fill="#3F3D56" />
    <path
      d="M203.014 390.16L201.876 390.522L201.537 390.629L201.258 390.541C199.916 390.582 198.57 390.609 197.218 390.62C196.647 390.624 196.076 390.629 195.5 390.629C195.231 390.629 194.961 390.629 194.692 390.624C190.796 390.61 186.929 390.483 183.092 390.244L183.185 391L182.855 390.23C181.481 390.137 180.111 390.04 178.745 389.919L167.94 371.84L145.701 334.637L143.124 330.327C143.124 330.327 134.333 332.925 121.893 335.417C112.517 337.3 101.07 339.114 89.7535 339.708C86.9627 339.856 84.1811 339.931 81.4413 339.907C74.3597 339.861 67.5566 339.198 61.5988 337.62C58.78 334.976 56.0433 332.248 53.3887 329.437C48.8634 324.656 44.5826 319.65 40.5628 314.438C40.5086 312.525 40.6065 310.61 40.8553 308.713C40.8971 308.397 40.9389 308.077 40.99 307.752L42.2577 286.245L51.6752 285.001L66.0056 283.108L81.5295 281.058L83.2384 294.428C83.2384 294.428 95.326 293.816 110.641 294.02C135.239 294.354 168.153 296.804 172.611 307.316C173.029 308.305 173.447 309.302 173.865 310.299C182.521 331.014 190.471 353.083 195.872 368.764C196.902 371.752 197.836 374.503 198.667 376.971C201.411 385.122 203.014 390.16 203.014 390.16Z"
      fill="#2F2E41" />
    <path
      d="M176.684 319.17C176.456 321.137 176.216 323.096 175.964 325.048C173.735 342.311 170.665 358.799 167.94 371.84C166.607 378.205 165.353 383.744 164.318 388.156C163.222 387.984 162.129 387.799 161.039 387.599C156.307 386.764 151.637 385.758 147.029 384.579C145.659 384.231 144.297 383.868 142.943 383.489L145.701 334.637L146.611 318.478L174.97 319.133L176.684 319.17Z"
      fill="#2F2E41" />
    <path
      d="M222.282 243.609C223.465 242.949 224.778 242.556 226.129 242.458C227.48 242.36 228.836 242.559 230.102 243.042C231.367 243.524 232.512 244.277 233.454 245.249C234.397 246.221 235.114 247.387 235.557 248.666L268.482 248.705L259.046 262.964L229.226 260.741C227.027 261.341 224.683 261.115 222.639 260.104C220.595 259.093 218.994 257.368 218.138 255.256C217.282 253.145 217.231 250.793 217.995 248.646C218.759 246.499 220.284 244.707 222.282 243.609L222.282 243.609Z"
      fill="#FFB6B6" />
    <path
      d="M240.233 262.892L299.532 268.778L299.688 268.578C299.987 268.196 329.671 230.236 334.658 221.199C337.726 215.77 338.844 209.456 337.825 203.305L337.791 203.155L337.673 203.055C335.254 201.03 332.218 199.889 329.063 199.82C325.909 199.751 322.825 200.758 320.32 202.675C308.276 211.994 298.564 223.982 291.952 237.694L288.2 245.498L244.684 247.363L240.233 262.892Z"
      fill="#FEB81E" />
    <path
      d="M217.363 369.863L208.623 390.193C207.369 390.281 206.114 390.352 204.857 390.406C203.863 390.457 202.874 390.494 201.876 390.522L201.537 390.629L201.258 390.541C199.916 390.582 198.57 390.609 197.218 390.62C196.647 390.624 196.076 390.629 195.5 390.629C195.231 390.629 194.961 390.629 194.692 390.624L195.272 388.639L195.955 386.286L198.667 376.971L202.582 363.521L208.405 366.017L217.363 369.863Z"
      fill="#FFB6B6" />
    <path
      d="M280.336 371.329C275.845 373.496 271.264 375.489 266.591 377.309L262.021 369.631L276.751 363.169L280.336 371.329Z"
      fill="#FFB6B6" />
    <path d="M311.416 336.433V352.605C308.7 354.609 305.929 356.542 303.104 358.404V336.433H311.416Z" fill="#CACACA" />
    <path
      d="M340.616 326.189C338.28 328.778 335.875 331.3 333.399 333.756C327.574 339.552 321.389 344.975 314.88 349.993H277.824C276.84 349.993 275.867 349.784 274.971 349.378C274.075 348.972 273.276 348.38 272.627 347.641L272.623 347.627C271.85 346.756 271.313 345.702 271.062 344.565L271.058 344.556C270.953 344.068 270.9 343.57 270.9 343.071V333.111C270.901 331.276 271.631 329.517 272.929 328.219C274.227 326.922 275.987 326.191 277.824 326.189H340.616Z"
      fill="#3F3D56" />
    <path
      d="M355.884 287.312L351.867 304.505C352.26 306.996 352.391 309.521 352.258 312.039C350.354 314.591 348.389 317.091 346.365 319.541C344.498 321.8 342.582 324.016 340.616 326.189C338.28 328.778 335.875 331.3 333.399 333.756C326.954 335.778 319.357 336.604 311.416 336.66C308.676 336.683 305.895 336.609 303.104 336.46C291.787 335.867 280.34 334.053 270.965 332.169C268.485 331.677 266.154 331.176 264.009 330.689C259.945 329.775 256.546 328.922 254.085 328.272C251.313 327.548 249.734 327.08 249.734 327.08L239.188 344.723L229.613 360.738L212.166 389.924C210.987 390.03 209.806 390.12 208.623 390.193C207.369 390.281 206.114 390.352 204.857 390.406C203.863 390.457 202.874 390.494 201.876 390.522L201.537 390.629L201.258 390.541L196.782 389.116L195.272 388.639L189.844 386.913C189.844 386.913 191.056 383.099 193.178 376.739C193.958 374.405 194.859 371.724 195.871 368.764C199.526 358.066 204.592 343.698 210.374 328.634C212.087 324.162 213.861 319.624 215.686 315.11C217.181 311.404 218.705 307.711 220.246 304.069C222.926 297.755 235.872 294.349 251.118 292.563C251.893 292.475 252.673 292.387 253.458 292.304C261.227 291.487 269.47 291.065 277.178 290.87C281.037 290.773 284.761 290.735 288.225 290.731C289.345 290.731 290.433 290.734 291.49 290.74H291.495C294.351 290.754 296.979 290.796 299.291 290.842C299.742 290.851 300.178 290.865 300.606 290.875H300.61C300.898 290.879 301.181 290.889 301.46 290.893C306.517 291.023 309.619 291.181 309.619 291.181L310.822 281.754L311.068 279.852L311.3 278.042V278.038L311.328 277.81L311.518 277.806L314.862 277.741L342.965 277.193L358.318 276.892L355.884 287.312Z"
      fill="#2F2E41" />
    <path
      d="M283.8 369.613C282.653 370.197 281.497 370.773 280.336 371.329C275.845 373.496 271.264 375.489 266.59 377.309C265.258 377.834 263.92 378.339 262.569 378.826C262.42 378.618 262.267 378.409 262.114 378.2C255.668 369.362 247.477 357.699 239.188 344.723C235.719 339.295 232.232 333.635 228.846 327.855L253.356 316.423L256.105 315.143L264.009 330.689L271.058 344.556L272.627 347.641L283.8 369.613Z"
      fill="#2F2E41" />
    <path
      d="M319.376 176.317C331.847 176.317 341.957 166.217 341.957 153.758C341.957 141.299 331.847 131.2 319.376 131.2C306.906 131.2 296.796 141.299 296.796 153.758C296.796 166.217 306.906 176.317 319.376 176.317Z"
      fill="#FFB6B6" />
    <path
      d="M318.629 175.338C323.909 177.868 330.407 177.011 335.447 174.034C340.487 171.056 344.197 166.201 346.789 160.955C348.687 157.113 350.066 152.714 348.967 148.573C347.867 144.432 343.482 140.962 339.373 142.188C342.188 139.924 341.86 135.254 339.585 132.448C337.311 129.642 333.722 128.293 330.254 127.276C325.221 125.8 319.933 124.758 314.742 125.513C309.552 126.268 304.441 129.076 301.999 133.713C300.304 134.15 298.511 134.012 296.903 133.322C295.294 132.631 293.96 131.428 293.109 129.899C292.544 131.369 292.478 132.983 292.924 134.494C293.369 136.004 294.301 137.326 295.574 138.254L288.544 134.444C286.752 136.925 288.38 140.71 291.101 142.116C293.821 143.522 297.11 143.147 300.079 142.396C303.048 141.645 299.545 147.909 302.608 147.97C305.67 148.03 308.983 149.631 309.859 152.563C310.319 154.099 310.051 155.748 310.186 157.345C310.322 158.942 311.088 160.713 312.637 161.13C313.616 161.392 314.687 161.044 315.657 161.336C316.861 161.698 317.594 162.984 317.7 164.235C317.806 165.485 317.413 166.719 317.025 167.913C315.493 172.632 320.411 169.987 318.878 174.706L318.629 175.338Z"
      fill="#2F2E41" />
    <path
      d="M362.933 241.972C362.748 223.34 361.903 210.643 360.426 204.227C356.46 186.978 338.141 183.832 335.271 183.442C334.965 182.629 334.495 181.888 333.891 181.264C333.286 180.64 332.559 180.148 331.755 179.816C330.952 179.485 330.088 179.323 329.219 179.339C328.35 179.356 327.494 179.551 326.703 179.912L313.687 185.869C311.046 187.081 308.683 188.823 306.745 190.985C304.806 193.148 303.333 195.686 302.417 198.441L300.485 204.333L299.514 243.874L302.719 260.506L302.723 260.515L304.882 271.719L303.396 273.946L294.912 286.658L294.769 286.88L294.764 286.885L294.392 287.437C294.908 287.72 295.419 287.998 295.92 288.277C297.22 288.991 298.488 289.692 299.723 290.378C300.021 290.545 300.313 290.708 300.606 290.875H300.61C300.796 290.977 300.982 291.079 301.163 291.181C305.797 293.77 310.015 296.168 313.817 298.376C314.346 298.683 314.871 298.989 315.387 299.29C332.94 309.548 341.837 315.829 346.365 319.541C348.389 317.091 350.354 314.591 352.258 312.039C353.985 309.733 355.658 307.388 357.277 305.001C357.561 303.136 357.751 301.271 357.937 299.443C358.16 297.244 358.392 294.967 358.782 292.726C358.954 291.733 358.294 290.791 357.658 289.882C357.068 289.033 356.511 288.235 356.627 287.483C356.748 286.709 357.602 285.864 358.434 285.043C359.339 284.143 360.277 283.215 360.412 282.236C360.783 279.508 361.113 276.771 361.401 274.025C361.875 269.557 362.238 265.076 362.492 260.58C362.85 254.373 362.997 248.17 362.933 241.972Z"
      fill="#FEB81E" />
    <path
      d="M276.98 307.738C277.362 306.44 278.025 305.242 278.922 304.227C279.818 303.213 280.927 302.407 282.168 301.867C283.41 301.327 284.756 301.065 286.11 301.101C287.464 301.136 288.793 301.468 290.005 302.072L313.556 279.084L316.8 295.868L293.939 315.124C292.788 317.091 290.955 318.567 288.786 319.274C286.618 319.98 284.266 319.867 282.176 318.957C280.085 318.047 278.402 316.402 277.444 314.334C276.486 312.266 276.321 309.92 276.98 307.738L276.98 307.738Z"
      fill="#FFB6B6" />
    <path
      d="M303.309 308.967L349.797 271.72L349.769 271.468C349.715 270.986 344.336 223.116 341.571 213.174C339.961 207.15 336.337 201.858 331.301 198.176L331.171 198.092L331.017 198.104C327.871 198.347 324.902 199.655 322.6 201.811C320.298 203.967 318.8 206.842 318.353 209.962C316.275 225.039 317.733 240.393 322.612 254.811L325.397 263.009L295.613 294.761L303.309 308.967Z"
      fill="#FEB81E" />
    <path
      d="M65.2506 175.912C76.3782 175.912 85.3989 166.9 85.3989 155.783C85.3989 144.666 76.3782 135.654 65.2506 135.654C54.123 135.654 45.1023 144.666 45.1023 155.783C45.1023 166.9 54.123 175.912 65.2506 175.912Z"
      fill="#A0616A" />
    <path
      d="M38.181 309.1L38.0711 308.946C32.2019 300.736 41.0292 281.01 42.3606 278.15C40.7796 277.638 39.4254 276.593 38.5285 275.195C37.6316 273.797 37.2476 272.132 37.4418 270.483L38.0157 265.609L38.614 260.828L34.3281 256.546L34.3161 256.439L31.8496 234.878L28.2635 220.558C26.9123 215.144 27.0275 209.469 28.5972 204.114C30.1669 198.76 33.1346 193.919 37.1956 190.089L45.4849 188.774L55.559 179.077H71.8046L77.3749 184.394C88.3262 193.362 90.926 189.466 103.275 206.349L94.4331 229.622L99.3753 263.947L99.3783 270.159L101.952 273.017C102.88 274.046 103.553 275.278 103.92 276.614C104.287 277.949 104.336 279.352 104.064 280.71L103.726 282.401C105.034 282.961 106.189 283.826 107.093 284.924C107.997 286.022 108.625 287.321 108.923 288.712L109.828 292.926C110.601 293.946 115.706 300.747 115.706 302.606C115.706 302.885 115.5 303.155 115.058 303.454C111.578 305.808 92.3478 310.607 83.8366 307.204C74.7705 303.583 38.7314 309.016 38.3683 309.071L38.181 309.1Z"
      fill="#3F3D56" />
    <path
      d="M27.9451 227.446L44.6979 224.169C50.8935 233.413 54.2196 258.689 54.2196 258.689L72.7417 297.065C73.8802 297.756 74.815 298.736 75.451 299.905C76.087 301.075 76.4014 302.392 76.3623 303.722C76.3231 305.052 75.9318 306.348 75.2281 307.478C74.5244 308.608 73.5335 309.532 72.3563 310.154C71.1792 310.777 69.8578 311.077 68.5268 311.024C67.1958 310.971 65.9027 310.566 64.7792 309.851C63.6557 309.136 62.742 308.136 62.131 306.954C61.5201 305.771 61.2338 304.448 61.3013 303.119L37.1437 257.65L27.9451 227.446Z"
      fill="#A0616A" />
    <path
      d="M27.8513 231.417L27.375 206.541L35.2588 196.004C36.814 193.941 38.9159 192.353 41.3267 191.421C43.7376 190.489 46.3614 190.249 48.9016 190.728C52.3406 191.401 55.3955 193.354 57.4487 196.191C59.5019 199.028 60.4001 202.539 59.9617 206.012C58.6236 216.546 55.5855 229.727 48.7123 232.71L48.6427 232.74L55.7662 257.629L29.349 261.316L27.8513 231.417Z"
      fill="#3F3D56" />
    <path
      d="M127.349 229.219C127.349 229.219 107.244 213.519 96.3399 211.264L86.6889 225.331L112.79 241.312L163.606 255.991C164.496 256.978 165.632 257.713 166.898 258.12C168.164 258.527 169.515 258.592 170.814 258.309C172.113 258.026 173.315 257.404 174.296 256.507C175.277 255.61 176.003 254.47 176.4 253.202C176.798 251.934 176.852 250.584 176.558 249.288C176.264 247.992 175.632 246.797 174.727 245.824C173.821 244.851 172.674 244.135 171.401 243.748C170.129 243.362 168.777 243.318 167.482 243.622L127.349 229.219Z"
      fill="#A0616A" />
    <path
      d="M91.9775 232.374L71.0254 218.924L66.6504 206.516C65.8004 204.077 65.6502 201.449 66.2167 198.929C66.7832 196.409 68.0439 194.098 69.8563 192.256C72.3299 189.776 75.6539 188.327 79.156 188.202C82.6582 188.077 86.0772 189.285 88.7219 191.582C96.7368 198.555 107.066 200.892 105.721 208.257L109.579 208.82L129.312 223.792L117.676 247.771L91.9775 232.374Z"
      fill="#3F3D56" />
    <path
      d="M42.3969 142.557C44.6593 139.06 48.9049 136.73 53.0207 137.385C53.4038 134.76 54.5002 132.292 56.1904 130.247C57.8807 128.202 60.1001 126.66 62.607 125.788C65.1139 124.916 67.8121 124.748 70.408 125.302C73.0038 125.856 75.3977 127.111 77.3291 128.931C78.5409 127.967 80.3024 127.917 81.7408 128.489C83.1574 129.133 84.3897 130.121 85.325 131.364C87.6867 134.306 89.2056 137.833 89.72 141.57C90.2344 145.306 89.7251 149.112 88.2463 152.582C88.7493 150.755 86.9167 149.036 85.0651 148.627C83.2136 148.217 81.2714 148.604 79.3938 148.337C76.9873 147.995 74.824 146.601 72.4137 146.287C70.388 146.023 68.3509 146.542 66.3755 147.062C64.4001 147.582 62.3683 148.112 60.3397 147.872C58.311 147.631 55.6979 155.312 55.733 160.721C55.7397 161.747 55.5283 163.063 54.5255 163.28C53.2905 163.548 52.5748 161.845 51.3993 161.381C50.3521 160.968 49.0966 161.734 48.732 162.799C48.5838 163.343 48.568 163.915 48.6857 164.466C48.8034 165.018 49.0514 165.534 49.4089 165.97C50.1314 166.836 50.9892 167.579 51.949 168.172L51.4649 168.574C50.6596 169.637 48.9892 169.683 47.8284 169.025C46.6679 168.368 45.9051 167.198 45.2176 166.055C43.0702 162.487 41.1865 158.685 40.4286 154.591C39.6708 150.497 40.1346 146.054 42.3969 142.557Z"
      fill="#2F2E41" />
    <path opacity="0.2"
      d="M219.339 176.385C221.382 184.891 222.325 193.625 222.144 202.371C221.97 211.118 220.69 219.809 218.333 228.235C217.003 232.994 215.326 237.648 213.315 242.162C212.953 242.973 214.153 243.681 214.518 242.864C218.149 234.731 220.717 226.165 222.158 217.377C223.604 208.587 223.929 199.65 223.123 190.778C222.667 185.804 221.851 180.87 220.682 176.015C220.472 175.144 219.128 175.513 219.339 176.385H219.339Z"
      fill="black" />
    <path opacity="0.2"
      d="M349.405 235.909L337.76 264.31C335.886 268.881 334.067 273.479 332.117 278.019C330.36 282.105 328.358 286.21 325.402 289.579C322.418 292.98 318.405 295.74 313.82 296.28C312.94 296.383 312.93 297.776 313.82 297.672C318.008 297.179 321.762 295.099 324.793 292.222C328.072 289.111 330.382 285.149 332.268 281.082C334.37 276.55 336.158 271.864 338.053 267.242L344.007 252.722L350.749 236.279C351.088 235.451 349.741 235.09 349.405 235.909Z"
      fill="black" />
    <path
      d="M211.363 261.688C211.567 262.283 211.956 262.798 212.471 263.159C212.987 263.52 213.604 263.708 214.234 263.697L226.536 263.381C227.17 263.368 227.784 263.151 228.284 262.762C228.785 262.372 229.146 261.832 229.313 261.22L231.054 242.623C231.672 242.902 232.344 243.04 233.022 243.027C233.611 243.012 234.192 242.881 234.73 242.642C235.269 242.404 235.755 242.061 236.161 241.635C236.567 241.208 236.885 240.706 237.096 240.157C237.308 239.607 237.41 239.022 237.395 238.433C237.38 237.845 237.249 237.265 237.01 236.727C236.771 236.189 236.428 235.704 236.001 235.298C235.575 234.892 235.072 234.575 234.522 234.363C233.972 234.152 233.386 234.05 232.797 234.065C232.526 234.064 232.256 234.092 231.991 234.149C231.703 233.837 231.352 233.59 230.963 233.422C230.573 233.254 230.152 233.169 229.728 233.173L210.804 233.661C210.647 233.667 210.491 233.687 210.337 233.719C209.922 233.797 209.529 233.962 209.183 234.204C208.837 234.446 208.548 234.759 208.333 235.122C208.119 235.486 207.985 235.89 207.94 236.31C207.895 236.729 207.941 237.153 208.074 237.553L211.363 261.688ZM231.411 241.36L232.65 236.928C232.791 236.416 232.794 235.876 232.66 235.362C232.72 235.362 232.773 235.334 232.833 235.334C233.682 235.316 234.504 235.636 235.118 236.223C235.732 236.809 236.087 237.615 236.107 238.464C236.127 239.313 235.809 240.134 235.224 240.749C234.638 241.364 233.832 241.722 232.983 241.744C232.434 241.761 231.891 241.628 231.411 241.36Z"
      fill="#2F2E41" />
    <path
      d="M210.337 233.719C210.741 236.022 215.273 237.641 220.723 237.36C225.735 237.129 229.833 235.371 230.584 233.287C230.306 233.205 230.017 233.167 229.728 233.173L210.804 233.661C210.647 233.667 210.491 233.687 210.337 233.719Z"
      fill="#3F3D56" />
    <path
      d="M170.388 236.626C170.521 236.225 170.567 235.801 170.522 235.382C170.477 234.963 170.343 234.558 170.129 234.194C169.914 233.831 169.625 233.518 169.279 233.276C168.933 233.034 168.54 232.869 168.125 232.791C167.971 232.759 167.815 232.739 167.658 232.733L148.734 232.245C148.31 232.241 147.889 232.326 147.499 232.494C147.11 232.662 146.759 232.909 146.471 233.221C146.206 233.164 145.936 233.136 145.665 233.137C144.475 233.107 143.323 233.551 142.461 234.37C141.598 235.189 141.097 236.317 141.067 237.505C141.037 238.694 141.481 239.845 142.301 240.707C143.121 241.568 144.25 242.069 145.44 242.099C146.118 242.112 146.79 241.974 147.408 241.695L149.149 260.292C149.316 260.904 149.677 261.445 150.178 261.834C150.678 262.223 151.292 262.441 151.926 262.453L164.228 262.769C164.858 262.78 165.475 262.592 165.991 262.231C166.506 261.87 166.895 261.355 167.099 260.76L170.388 236.626ZM145.479 240.816C144.63 240.794 143.824 240.436 143.238 239.821C142.653 239.206 142.335 238.385 142.355 237.536C142.375 236.688 142.73 235.882 143.344 235.295C143.958 234.708 144.78 234.388 145.629 234.406C145.689 234.406 145.742 234.434 145.802 234.435C145.668 234.948 145.671 235.488 145.812 236L147.051 240.432C146.571 240.7 146.028 240.833 145.479 240.816Z"
      fill="#2F2E41" />
    <path
      d="M168.125 232.791C167.721 235.094 163.189 236.713 157.739 236.432C152.727 236.201 148.629 234.443 147.878 232.359C148.156 232.277 148.445 232.239 148.734 232.245L167.658 232.733C167.815 232.739 167.971 232.759 168.125 232.791Z"
      fill="#3F3D56" />
    <path
      d="M150.191 192.392C151.139 191.7 152.227 191.224 153.379 190.998C154.531 190.772 155.719 190.801 156.859 191.083C157.998 191.365 159.062 191.893 159.975 192.63C160.889 193.367 161.629 194.295 162.144 195.349L190.477 191.925L183.859 205.184L157.968 206.403C156.138 207.151 154.098 207.202 152.233 206.547C150.368 205.892 148.809 204.576 147.85 202.849C146.892 201.122 146.6 199.103 147.032 197.176C147.463 195.249 148.587 193.547 150.191 192.392L150.191 192.392Z"
      fill="#9E616A" />
    <path
      d="M242.592 165.386C241.756 167.024 240.739 168.931 239.597 171.009C235.584 178.335 230.072 187.789 225.828 194.985C222.201 201.123 219.494 205.623 219.42 205.748L219.304 205.934L194.372 206.495L189.022 206.616L187.202 206.658L167.666 207.098L167.851 205.938L169.676 194.442L169.862 193.268L186.974 190.429L193.229 189.395L207.105 187.094L209.515 179.986C213.76 167.494 220.853 156.159 230.235 146.876C230.509 146.611 230.788 146.361 231.08 146.124C231.335 145.92 231.596 145.725 231.86 145.549C232.984 147.14 233.987 148.578 234.837 149.733L236.894 152.531C239.703 156.353 241.647 160.739 242.592 165.386Z"
      fill="#FEB81E" />
    <path
      d="M138.921 207.872C139.126 208.467 139.514 208.982 140.03 209.343C140.545 209.704 141.163 209.892 141.792 209.881L154.094 209.565C154.729 209.553 155.342 209.335 155.843 208.946C156.343 208.557 156.704 208.016 156.872 207.404L158.612 188.807C159.23 189.086 159.903 189.224 160.58 189.211C161.77 189.181 162.899 188.68 163.719 187.819C164.539 186.957 164.983 185.806 164.953 184.617C164.923 183.429 164.422 182.301 163.56 181.482C162.697 180.663 161.545 180.219 160.355 180.249C160.084 180.248 159.814 180.276 159.549 180.333C159.261 180.021 158.911 179.774 158.521 179.606C158.131 179.438 157.71 179.353 157.286 179.357L138.362 179.845C138.205 179.851 138.049 179.871 137.896 179.903C137.481 179.981 137.087 180.146 136.741 180.388C136.396 180.63 136.106 180.943 135.891 181.306C135.677 181.67 135.543 182.075 135.498 182.494C135.454 182.913 135.499 183.337 135.633 183.738L138.921 207.872ZM158.969 187.544L160.208 183.112C160.349 182.6 160.352 182.06 160.218 181.547C160.278 181.546 160.331 181.518 160.391 181.518C161.24 181.5 162.062 181.82 162.676 182.407C163.29 182.994 163.646 183.8 163.665 184.648C163.685 185.497 163.368 186.318 162.782 186.933C162.196 187.548 161.39 187.906 160.541 187.928C159.992 187.945 159.449 187.812 158.969 187.544Z"
      fill="#CCCCCC" />
    <path
      d="M137.896 179.903C138.299 182.206 142.831 183.825 148.282 183.544C153.293 183.313 157.391 181.555 158.142 179.471C157.864 179.389 157.575 179.351 157.286 179.357L138.362 179.845C138.205 179.851 138.049 179.871 137.896 179.903Z"
      fill="#3F3D56" />
  </g>
  <defs>
    <clipPath id="clip0_209_369">
      <rect width="391" height="391" fill="white" />
    </clipPath>
  </defs>
</svg>
